<svg width="334" height="162" viewBox="0 0 334 162" fill="none" xmlns="http://www.w3.org/2000/svg">
<g filter="url(#filter0_dd_4455_9889)">
<mask id="path-1-inside-1_4455_9889" fill="white">
<path fill-rule="evenodd" clip-rule="evenodd" d="M15 31C15 25.3995 15 22.5992 16.0899 20.4601C17.0487 18.5785 18.5785 17.0487 20.4601 16.0899C22.5992 15 25.3995 15 31 15H303C308.601 15 311.401 15 313.54 16.0899C315.422 17.0487 316.951 18.5785 317.91 20.4601C319 22.5992 319 25.3995 319 31V66.0001C317.05 66.0077 315.12 66.3955 313.318 67.1418C311.498 67.8956 309.845 69.0005 308.452 70.3934C307.059 71.7863 305.954 73.4399 305.2 75.2597C304.447 77.0796 304.059 79.0302 304.059 81C304.059 82.9698 304.447 84.9204 305.2 86.7402C305.954 88.5601 307.059 90.2137 308.452 91.6066C309.845 92.9995 311.498 94.1044 313.318 94.8582C315.12 95.6045 317.05 95.9923 319 95.9999V131C319 136.601 319 139.401 317.91 141.54C316.951 143.422 315.422 144.951 313.54 145.91C311.401 147 308.601 147 303 147H31C25.3995 147 22.5992 147 20.4601 145.91C18.5785 144.951 17.0487 143.422 16.0899 141.54C15 139.401 15 136.601 15 131V94.7088C17.8827 94.1323 20.5557 92.716 22.6652 90.6066C25.4782 87.7936 27.0586 83.9782 27.0586 80C27.0586 76.0218 25.4782 72.2064 22.6652 69.3934C20.5558 67.284 17.8827 65.8677 15 65.2912V31Z"/>
</mask>
<path fill-rule="evenodd" clip-rule="evenodd" d="M15 31C15 25.3995 15 22.5992 16.0899 20.4601C17.0487 18.5785 18.5785 17.0487 20.4601 16.0899C22.5992 15 25.3995 15 31 15H303C308.601 15 311.401 15 313.54 16.0899C315.422 17.0487 316.951 18.5785 317.91 20.4601C319 22.5992 319 25.3995 319 31V66.0001C317.05 66.0077 315.12 66.3955 313.318 67.1418C311.498 67.8956 309.845 69.0005 308.452 70.3934C307.059 71.7863 305.954 73.4399 305.2 75.2597C304.447 77.0796 304.059 79.0302 304.059 81C304.059 82.9698 304.447 84.9204 305.2 86.7402C305.954 88.5601 307.059 90.2137 308.452 91.6066C309.845 92.9995 311.498 94.1044 313.318 94.8582C315.12 95.6045 317.05 95.9923 319 95.9999V131C319 136.601 319 139.401 317.91 141.54C316.951 143.422 315.422 144.951 313.54 145.91C311.401 147 308.601 147 303 147H31C25.3995 147 22.5992 147 20.4601 145.91C18.5785 144.951 17.0487 143.422 16.0899 141.54C15 139.401 15 136.601 15 131V94.7088C17.8827 94.1323 20.5557 92.716 22.6652 90.6066C25.4782 87.7936 27.0586 83.9782 27.0586 80C27.0586 76.0218 25.4782 72.2064 22.6652 69.3934C20.5558 67.284 17.8827 65.8677 15 65.2912V31Z" fill="#E6EAF0"/>
<path d="M16.0899 20.4601L16.9809 20.9141L16.0899 20.4601ZM20.4601 16.0899L20.9141 16.9809L20.4601 16.0899ZM313.54 16.0899L313.994 15.1989V15.1989L313.54 16.0899ZM317.91 20.4601L318.801 20.0061V20.0061L317.91 20.4601ZM319 66.0001L319.004 67.0001L320 66.9962V66.0001H319ZM313.318 67.1418L312.936 66.2179V66.2179L313.318 67.1418ZM305.2 75.2597L304.277 74.8771V74.8771L305.2 75.2597ZM308.452 91.6066L309.159 90.8995L308.452 91.6066ZM313.318 94.8582L312.936 95.7821L313.318 94.8582ZM319 95.9999H320V95.0038L319.004 94.9999L319 95.9999ZM317.91 141.54L318.801 141.994L317.91 141.54ZM313.54 145.91L313.994 146.801L313.54 145.91ZM20.4601 145.91L20.0061 146.801H20.0061L20.4601 145.91ZM16.0899 141.54L16.9809 141.086L16.9809 141.086L16.0899 141.54ZM15 94.7088L14.8039 93.7283L14 93.889V94.7088H15ZM22.6652 90.6066L23.3723 91.3137H23.3723L22.6652 90.6066ZM22.6652 69.3934L21.9581 70.1005L22.6652 69.3934ZM15 65.2912H14V66.111L14.8039 66.2717L15 65.2912ZM15.1989 20.0061C14.5702 21.2401 14.2809 22.6212 14.1396 24.3506C13.9992 26.0683 14 28.2162 14 31H16C16 28.1832 16.0008 26.1308 16.1329 24.5135C16.2641 22.9078 16.5198 21.8192 16.9809 20.9141L15.1989 20.0061ZM20.0061 15.1989C17.9363 16.2535 16.2535 17.9363 15.1989 20.0061L16.9809 20.9141C17.8438 19.2206 19.2206 17.8438 20.9141 16.9809L20.0061 15.1989ZM31 14C28.2162 14 26.0683 13.9992 24.3506 14.1396C22.6212 14.2809 21.2401 14.5702 20.0061 15.1989L20.9141 16.9809C21.8192 16.5198 22.9078 16.2641 24.5135 16.1329C26.1308 16.0008 28.1832 16 31 16V14ZM303 14H31V16H303V14ZM313.994 15.1989C312.76 14.5702 311.379 14.2809 309.649 14.1396C307.932 13.9992 305.784 14 303 14V16C305.817 16 307.869 16.0008 309.487 16.1329C311.092 16.2641 312.181 16.5198 313.086 16.9809L313.994 15.1989ZM318.801 20.0061C317.746 17.9363 316.064 16.2535 313.994 15.1989L313.086 16.9809C314.779 17.8438 316.156 19.2206 317.019 20.9141L318.801 20.0061ZM320 31C320 28.2162 320.001 26.0683 319.86 24.3506C319.719 22.6212 319.43 21.2401 318.801 20.0061L317.019 20.9141C317.48 21.8192 317.736 22.9078 317.867 24.5135C317.999 26.1308 318 28.1832 318 31H320ZM320 66.0001V31H318V66.0001H320ZM313.701 68.0657C315.383 67.3691 317.184 67.0072 319.004 67.0001L318.996 65.0001C316.916 65.0082 314.858 65.4218 312.936 66.2179L313.701 68.0657ZM309.159 71.1005C310.459 69.8005 312.002 68.7692 313.701 68.0657L312.936 66.2179C310.994 67.022 309.231 68.2006 307.745 69.6863L309.159 71.1005ZM306.124 75.6424C306.828 73.9439 307.859 72.4005 309.159 71.1005L307.745 69.6863C306.259 71.172 305.081 72.9359 304.277 74.8771L306.124 75.6424ZM305.059 81C305.059 79.1615 305.421 77.341 306.124 75.6424L304.277 74.8771C303.472 76.8183 303.059 78.8988 303.059 81H305.059ZM306.124 86.3576C305.421 84.659 305.059 82.8385 305.059 81H303.059C303.059 83.1012 303.472 85.1817 304.277 87.1229L306.124 86.3576ZM309.159 90.8995C307.859 89.5995 306.828 88.0561 306.124 86.3576L304.277 87.1229C305.081 89.0641 306.259 90.828 307.745 92.3137L309.159 90.8995ZM313.701 93.9343C312.002 93.2307 310.459 92.1995 309.159 90.8995L307.745 92.3137C309.231 93.7994 310.994 94.978 312.936 95.7821L313.701 93.9343ZM319.004 94.9999C317.184 94.9928 315.383 94.6309 313.701 93.9343L312.936 95.7821C314.858 96.5782 316.916 96.9918 318.996 96.9999L319.004 94.9999ZM320 131V95.9999H318V131H320ZM318.801 141.994C319.43 140.76 319.719 139.379 319.86 137.649C320.001 135.932 320 133.784 320 131H318C318 133.817 317.999 135.869 317.867 137.487C317.736 139.092 317.48 140.181 317.019 141.086L318.801 141.994ZM313.994 146.801C316.064 145.746 317.746 144.064 318.801 141.994L317.019 141.086C316.156 142.779 314.779 144.156 313.086 145.019L313.994 146.801ZM303 148C305.784 148 307.932 148.001 309.649 147.86C311.379 147.719 312.76 147.43 313.994 146.801L313.086 145.019C312.181 145.48 311.092 145.736 309.487 145.867C307.869 145.999 305.817 146 303 146V148ZM31 148H303V146H31V148ZM20.0061 146.801C21.2401 147.43 22.6212 147.719 24.3506 147.86C26.0683 148.001 28.2162 148 31 148V146C28.1832 146 26.1308 145.999 24.5134 145.867C22.9078 145.736 21.8192 145.48 20.9141 145.019L20.0061 146.801ZM15.1989 141.994C16.2535 144.064 17.9363 145.746 20.0061 146.801L20.9141 145.019C19.2206 144.156 17.8438 142.779 16.9809 141.086L15.1989 141.994ZM14 131C14 133.784 13.9992 135.932 14.1396 137.649C14.2809 139.379 14.5702 140.76 15.1989 141.994L16.9809 141.086C16.5198 140.181 16.2641 139.092 16.1329 137.487C16.0008 135.869 16 133.817 16 131H14ZM14 94.7088V131H16V94.7088H14ZM21.9581 89.8995C19.9893 91.8683 17.4945 93.1902 14.8039 93.7283L15.1961 95.6894C18.2709 95.0745 21.1222 93.5638 23.3723 91.3137L21.9581 89.8995ZM26.0586 80C26.0586 83.713 24.5836 87.274 21.9581 89.8995L23.3723 91.3137C26.3729 88.3131 28.0586 84.2435 28.0586 80H26.0586ZM21.9581 70.1005C24.5836 72.726 26.0586 76.287 26.0586 80H28.0586C28.0586 75.7565 26.3729 71.6869 23.3723 68.6863L21.9581 70.1005ZM14.8039 66.2717C17.4945 66.8098 19.9893 68.1317 21.9581 70.1005L23.3723 68.6863C21.1222 66.4362 18.2709 64.9255 15.1961 64.3106L14.8039 66.2717ZM14 31V65.2912H16V31H14Z" fill="url(#paint0_linear_4455_9889)" fill-opacity="0.4" style="mix-blend-mode:hard-light" mask="url(#path-1-inside-1_4455_9889)"/>
</g>
<defs>
<filter id="filter0_dd_4455_9889" x="0" y="0" width="334" height="162" filterUnits="userSpaceOnUse" color-interpolation-filters="sRGB">
<feFlood flood-opacity="0" result="BackgroundImageFix"/>
<feColorMatrix in="SourceAlpha" type="matrix" values="0 0 0 0 0 0 0 0 0 0 0 0 0 0 0 0 0 0 127 0" result="hardAlpha"/>
<feOffset dx="5" dy="5"/>
<feGaussianBlur stdDeviation="5"/>
<feColorMatrix type="matrix" values="0 0 0 0 0.6512 0 0 0 0 0.66896 0 0 0 0 0.74 0 0 0 1 0"/>
<feBlend mode="normal" in2="BackgroundImageFix" result="effect1_dropShadow_4455_9889"/>
<feColorMatrix in="SourceAlpha" type="matrix" values="0 0 0 0 0 0 0 0 0 0 0 0 0 0 0 0 0 0 127 0" result="hardAlpha"/>
<feOffset dx="-5" dy="-5"/>
<feGaussianBlur stdDeviation="5"/>
<feColorMatrix type="matrix" values="0 0 0 0 0.979167 0 0 0 0 0.983333 0 0 0 0 1 0 0 0 1 0"/>
<feBlend mode="normal" in2="effect1_dropShadow_4455_9889" result="effect2_dropShadow_4455_9889"/>
<feBlend mode="normal" in="SourceGraphic" in2="effect2_dropShadow_4455_9889" result="shape"/>
</filter>
<linearGradient id="paint0_linear_4455_9889" x1="2.13846" y1="7.38461" x2="105.132" y2="246.282" gradientUnits="userSpaceOnUse">
<stop stop-color="white"/>
<stop offset="1" stop-color="white" stop-opacity="0"/>
</linearGradient>
</defs>
</svg>
