<svg width="390" height="100" viewBox="0 0 390 100" fill="none" xmlns="http://www.w3.org/2000/svg">
<rect width="390" height="100" rx="4" fill="#01AD6F"/>
<g opacity="0.9">
<path d="M223.231 75.8186L224.614 75.9149C224.614 75.9149 226.129 72.5289 222.233 72.8512C223.636 73.5208 223.712 74.3746 223.231 75.8186Z" fill="#FFCB49"/>
<path d="M137.583 38.7555C137.583 38.7555 139.515 37.0185 139.587 35.6248C140.789 35.7085 141.162 36.2233 141.162 36.2233C141.162 36.2233 140.429 38.5797 138.757 39.8269L137.583 38.7555Z" fill="#72B8D6"/>
<path d="M141.296 28.3326C141.022 28.2006 140.776 28.0144 140.571 27.7843C140.432 27.5287 140.356 27.241 140.35 26.9472C140.391 26.3204 140.498 25.7002 140.667 25.0972C140.807 24.4359 141.031 23.5947 140.883 22.9166C141.146 22.9161 141.403 22.9898 141.629 23.1301C141.783 23.3033 141.894 23.513 141.953 23.7412C142.062 24.317 142.043 24.9112 141.897 25.4781C141.733 26.3529 141.28 27.4411 141.288 28.3409L141.296 28.3326Z" fill="#7F65C0"/>
<path d="M148.458 42.5467C148.185 41.9384 148.075 41.2647 148.137 40.5963C148.237 39.303 148.738 37.813 149.159 36.2979C149.804 34.1299 150.321 31.5851 149.56 30.1119C149.845 30.1957 150.115 30.3256 150.362 30.4969C150.289 30.4258 150.213 30.3546 150.129 30.2835C150.205 30.3546 150.285 30.4341 150.362 30.4969C150.705 30.8642 150.937 31.3283 151.031 31.8321C151.251 32.9119 151.055 34.2889 150.718 35.6534C150.085 38.4199 148.714 41.2953 149.055 43.2917C148.815 43.0828 148.612 42.8305 148.458 42.5467V42.5467Z" fill="#7F65C0"/>
<path fill-rule="evenodd" clip-rule="evenodd" d="M141.532 29.3545C142.286 30.2795 144.149 30.1916 145.54 30.0409C147.303 29.9279 149.147 29.6601 150.349 30.4972C149.628 29.8317 148.979 29.0072 147.945 28.7728C146.975 28.62 145.991 28.5933 145.015 28.6932C143.532 28.7895 141.52 28.9193 140.57 27.7934C140.895 28.3082 141.184 28.8648 141.532 29.3545Z" fill="#6957A3"/>
<path fill-rule="evenodd" clip-rule="evenodd" d="M149.388 44.1786C151.127 47.347 158.938 45.2334 163.988 43.5257L162.722 42.3496C157.768 43.915 150.017 45.8779 148.458 42.5673C148.714 43.1366 149.025 43.6767 149.388 44.1786V44.1786Z" fill="#6957A3"/>
<path fill-rule="evenodd" clip-rule="evenodd" d="M238.041 52.7546C238.217 50.2434 234.694 47.5103 233.632 45.719C232.254 43.756 230.338 40.1733 231.488 37.2812C230.687 39.2274 229.665 40.889 229.969 43.0696C230.234 44.9363 231.135 46.6314 232.073 48.0921C233.067 49.9337 237.588 53.4787 237.187 56.0653C237.472 54.9645 237.788 53.8722 238.057 52.7546H238.041Z" fill="#FFCB49"/>
<path fill-rule="evenodd" clip-rule="evenodd" d="M231.733 68.5042C230.254 65.6623 222.892 62.8246 224.675 58.4132C223.978 60.1878 222.9 61.7615 223.645 63.8542C224.15 65.0296 224.861 66.0957 225.741 66.9975C226.855 68.2991 230.386 70.2035 230.855 71.6893C231.144 70.6136 231.501 69.5506 231.733 68.5042Z" fill="#FFCB49"/>
<path fill-rule="evenodd" clip-rule="evenodd" d="M245.636 27.8722C244.109 30.9025 240.494 32.246 238.314 33.0496C236.775 33.669 235.107 34.1629 233.596 35.0921C232.866 35.4131 232.243 35.9531 231.807 36.6436C231.37 37.3342 231.139 38.1445 231.144 38.9719C233.127 36.7579 236.791 36.31 238.859 35.3725C240.51 34.6819 242.213 33.8699 243.668 32.4804C244.536 31.6753 245.17 30.6308 245.496 29.4669C245.601 28.9427 245.648 28.4076 245.636 27.8722V27.8722Z" fill="#E5AC3C"/>
<path fill-rule="evenodd" clip-rule="evenodd" d="M228.246 69.0398L226.623 68.9519C225.669 68.9519 223.392 69.9689 223.733 71.8524C224.707 71.8105 225.809 71.9486 226.591 71.9779C227.6 72.09 228.616 72.1166 229.629 72.0575C230.066 72.0616 230.494 71.9258 230.855 71.6682C230.607 70.8353 229.424 69.9355 228.246 69.0398Z" fill="#E5AC3C"/>
<path fill-rule="evenodd" clip-rule="evenodd" d="M236.818 54.2191C235.107 55.5123 232.081 55.6881 230.482 55.9393C229.172 56.1653 227.797 56.3285 226.558 56.8391C225.695 57.1859 224.983 57.8496 224.555 58.7058C224.406 59.1893 224.366 59.7021 224.438 60.2042C226.093 59.0281 229.039 58.9862 230.779 58.6891C232.199 58.4919 233.601 58.1713 234.971 57.7306C236.045 57.3372 236.794 56.7889 237.163 56.0565C237.248 55.421 237.127 54.774 236.818 54.2191V54.2191Z" fill="#E5AC3C"/>
<path d="M162.309 79.4325L161.539 79.3368C161.271 79.2955 161.006 79.263 160.741 79.2482C160.392 79.2219 160.041 79.2238 159.692 79.2539C159.621 79.2541 159.544 79.2546 159.468 79.2492C159.051 79.2404 158.636 79.296 158.235 79.4142C157.707 79.5614 157.211 79.8129 156.773 80.1552C156.276 80.5595 155.837 81.035 155.467 81.5677C155.416 81.6263 155.374 81.7111 155.328 81.7754C155.283 81.8396 155.248 81.8975 155.211 81.9525L155.072 82.1097C155.006 82.1765 154.943 82.2476 154.885 82.3225C154.634 82.6542 154.404 83.004 154.2 83.3694C154.116 83.5337 154.044 83.7042 153.985 83.8797C153.841 84.3382 153.786 84.822 153.823 85.303C153.858 85.7513 153.952 86.1925 154.101 86.6146C154.248 87.034 154.418 87.4446 154.608 87.8448C154.781 88.2666 154.941 88.7037 155.093 89.1501C155.228 89.5625 155.316 89.99 155.355 90.424V90.424C155.198 90.6029 155.049 90.7725 154.874 90.9225C154.707 91.0835 154.529 91.232 154.342 91.3671C154.097 91.5588 153.832 91.7188 153.575 91.8933C153.416 92.0001 153.25 92.0956 153.079 92.1792C152.979 92.2252 152.873 92.2655 152.767 92.3117C152.37 92.454 151.973 92.5962 151.552 92.6981C151.13 92.8 149.232 93.9458 149.338 94.0536L150.388 93.9235C150.657 93.9025 150.931 93.8754 151.188 93.8608C151.446 93.8463 151.741 93.7768 152.005 93.7175C152.402 93.6444 152.791 93.5327 153.168 93.3838C153.544 93.2378 153.894 93.0279 154.204 92.7626C154.291 92.6897 154.374 92.6118 154.452 92.5293C154.872 92.0532 155.195 91.4936 155.403 90.884C155.436 90.8323 155.461 90.7751 155.475 90.7148C155.501 90.6485 155.533 90.5997 155.553 90.5454C155.695 90.229 155.794 89.8936 155.847 89.5488C155.902 89.2196 155.917 88.8845 155.891 88.5515C155.851 88.0833 155.766 87.6206 155.636 87.1707C155.461 86.7816 155.317 86.3259 155.157 85.8888C155.079 85.6494 155.003 85.3891 154.944 85.1163C154.868 84.8553 154.811 84.5884 154.775 84.3182C154.746 84.1029 154.729 83.886 154.725 83.6687C154.784 83.2284 154.89 82.7964 155.041 82.3807C155.071 82.2905 155.105 82.209 155.136 82.1306L155.216 81.9404C155.254 81.8972 155.3 81.8448 155.356 81.8245C155.412 81.8042 155.487 81.7179 155.562 81.6641C156.083 81.2309 156.686 80.9181 157.331 80.7463C157.606 80.6734 157.887 80.6251 158.17 80.602C158.438 80.5522 158.709 80.5173 158.98 80.4975L160.077 80.4867C160.197 80.4872 160.318 80.4847 160.444 80.4969C160.686 80.4445 160.939 80.4035 161.184 80.354C161.184 80.354 162.836 79.6251 162.8 79.5053L162.309 79.4325Z" fill="#EC4130"/>
<path d="M172.4 20.8018H170.5C170.645 23.2753 172.044 24.7319 173.943 24.9202C172.761 24.2464 172.007 22.409 172.4 20.8018Z" fill="#7F65C0"/>
<path d="M155.437 18.5786L153.79 18.2019C152.856 19.7756 151.349 22.1739 150.632 22.5087C151.065 23.2202 152.139 23.4588 152.139 23.4588C153.429 22.471 154.864 19.9263 155.437 18.5786Z" fill="#7F65C0"/>
<path d="M188.359 22.7859L189.253 23.9076C188.451 25.1633 187.249 26.9044 187.249 26.9044C186.946 26.4873 186.67 26.0497 186.423 25.5944C186.912 24.551 187.567 23.6014 188.359 22.7859V22.7859Z" fill="#00C89D"/>
<path d="M160.244 6.19476V8.44233L158.521 9.94071V7.65547L160.244 6.19476Z" fill="#00C89D"/>
<path d="M186.889 21.7347C186.889 21.7347 185.346 20.9897 184.989 19.9015C185.057 21.178 186.424 22.7852 186.424 22.7852C186.604 22.3709 186.889 21.7347 186.889 21.7347Z" fill="#7F65C0"/>
<path d="M180.542 13.1291C180.542 13.1291 181.183 15.2637 182.638 15.8831C181.836 16.7788 180.542 17.9047 180.542 17.9047C179.685 17.0622 179.101 15.9621 178.871 14.7572C179.841 13.7444 180.542 13.1291 180.542 13.1291Z" fill="#FFCB49"/>
<path d="M167.737 13.519L168.006 13.1298L166.014 9.7019L165.693 9.98233L167.737 13.519Z" fill="#FFCB49"/>
<path d="M254.625 50.7028C254.716 50.3933 254.716 50.0622 254.625 49.7527C254.178 49.7211 253.729 49.7211 253.282 49.7527C253.34 50.0665 253.34 50.389 253.282 50.7028H254.625Z" fill="#EC4130"/>
<path d="M182.44 7.84395V6.98176L180.896 5.44571V6.27024L182.44 7.84395Z" fill="#00C89D"/>
<path d="M165.962 22.8479V24.8108L163.542 22.8479V21.5546L165.962 22.8479Z" fill="#00C89D"/>
<path d="M229.287 13.3596L229.211 11.5975C227.516 11.0618 224.907 10.1619 224.402 9.50479C223.853 10.12 223.921 11.2627 223.921 11.2627C225.167 12.3383 227.892 13.1252 229.287 13.3596Z" fill="#7F65C0"/>
<path d="M241.556 19.3325L240.321 20.4542C239.191 19.9478 238.273 19.3325 237.628 18.0936C238.169 17.7002 238.786 17.1979 238.786 17.1979C239.61 18.0407 240.542 18.7592 241.556 19.3325V19.3325Z" fill="#EC4130"/>
<path d="M226.59 18.1522L225.123 17.1979C224.897 17.9066 224.53 18.5571 224.045 19.1065C224.485 19.3546 224.908 19.6343 225.311 19.9436C226.053 19.4999 226.59 18.1522 226.59 18.1522Z" fill="#EC4130"/>
<path d="M203.244 13.62C203.145 13.1662 202.941 12.7446 202.651 12.3916C202.36 12.0386 201.992 11.7649 201.577 11.5943C200.451 12.5527 198.892 14.1809 198.892 14.1809C199.801 14.4613 200.342 15.0807 200.823 15.9764C201.958 14.8966 203.244 13.62 203.244 13.62Z" fill="#EC4130"/>
<path d="M189.586 3.04297V5.17753C188.726 5.6891 188.046 6.47549 187.646 7.42092C187.594 6.63824 187.646 5.23194 187.646 5.23194C188.4 3.82564 188.724 3.60381 189.586 3.04297Z" fill="#00C89D"/>
<path d="M217.436 9.76446C217.53 9.45386 217.53 9.12077 217.436 8.81018C216.989 8.7786 216.541 8.7786 216.094 8.81018C216.152 9.12535 216.152 9.44929 216.094 9.76446H217.436Z" fill="#EC4130"/>
<path d="M235.463 11.6762V13.6433L233.042 11.6762V10.3829L235.463 11.6762Z" fill="#00C89D"/>
</g>
<path d="M195 12.3333C174.724 12.3333 158.333 28.7235 158.333 48.9999C158.333 69.2764 174.724 85.6666 195 85.6666C215.277 85.6666 231.667 69.2764 231.667 48.9999C231.667 28.7235 215.277 12.3333 195 12.3333V12.3333ZM191.874 63.0245C191.198 63.7005 190.354 64.0382 189.509 64.0382C188.664 64.0382 187.819 63.7005 187.143 63.0245L176.413 52.3791L181.229 47.5631L189.509 55.8425L208.771 36.5798L213.587 41.3964L191.874 63.0245Z" fill="#F0F0F3"/>
</svg>
