<svg width="388" height="204" viewBox="0 0 388 204" fill="none" xmlns="http://www.w3.org/2000/svg">
<g filter="url(#filter0_dd_4954_10268)">
<mask id="path-1-inside-1_4954_10268" fill="white">
<path fill-rule="evenodd" clip-rule="evenodd" d="M15 31C15 25.3995 15 22.5992 16.0899 20.4601C17.0487 18.5785 18.5785 17.0487 20.4601 16.09C22.5992 15 25.3995 15 31 15H357C362.6 15 365.401 15 367.54 16.09C369.422 17.0487 370.951 18.5785 371.91 20.4601C373 22.5992 373 25.3995 373 31L373 84.7966C371.008 84.7966 369.035 85.178 367.195 85.9191C365.354 86.6601 363.682 87.7463 362.274 89.1156C360.865 90.4848 359.748 92.1104 358.985 93.8994C358.223 95.6885 357.831 97.606 357.831 99.5424C357.831 101.479 358.223 103.396 358.985 105.185C359.748 106.974 360.865 108.6 362.274 109.969C363.682 111.339 365.354 112.425 367.195 113.166C369.035 113.907 371.008 114.288 373 114.288L373 173C373 178.601 373 181.401 371.91 183.54C370.951 185.422 369.422 186.951 367.54 187.91C365.401 189 362.6 189 357 189H31C25.3995 189 22.5992 189 20.4601 187.91C18.5785 186.951 17.0487 185.422 16.0899 183.54C15 181.401 15 178.601 15 173V119.171C18.6539 118.933 22.1097 117.417 24.7152 114.884C27.56 112.119 29.1583 108.368 29.1583 104.458C29.1583 100.547 27.56 96.7962 24.7152 94.0308C22.1097 91.4981 18.6539 89.9818 15 89.7447V31Z"/>
</mask>
<path fill-rule="evenodd" clip-rule="evenodd" d="M15 31C15 25.3995 15 22.5992 16.0899 20.4601C17.0487 18.5785 18.5785 17.0487 20.4601 16.09C22.5992 15 25.3995 15 31 15H357C362.6 15 365.401 15 367.54 16.09C369.422 17.0487 370.951 18.5785 371.91 20.4601C373 22.5992 373 25.3995 373 31L373 84.7966C371.008 84.7966 369.035 85.178 367.195 85.9191C365.354 86.6601 363.682 87.7463 362.274 89.1156C360.865 90.4848 359.748 92.1104 358.985 93.8994C358.223 95.6885 357.831 97.606 357.831 99.5424C357.831 101.479 358.223 103.396 358.985 105.185C359.748 106.974 360.865 108.6 362.274 109.969C363.682 111.339 365.354 112.425 367.195 113.166C369.035 113.907 371.008 114.288 373 114.288L373 173C373 178.601 373 181.401 371.91 183.54C370.951 185.422 369.422 186.951 367.54 187.91C365.401 189 362.6 189 357 189H31C25.3995 189 22.5992 189 20.4601 187.91C18.5785 186.951 17.0487 185.422 16.0899 183.54C15 181.401 15 178.601 15 173V119.171C18.6539 118.933 22.1097 117.417 24.7152 114.884C27.56 112.119 29.1583 108.368 29.1583 104.458C29.1583 100.547 27.56 96.7962 24.7152 94.0308C22.1097 91.4981 18.6539 89.9818 15 89.7447V31Z" fill="#FDD73F"/>
<path d="M16.0899 20.4601L16.9809 20.9141L16.0899 20.4601ZM20.4601 16.09L20.9141 16.981L20.4601 16.09ZM367.54 16.09L367.994 15.199V15.199L367.54 16.09ZM371.91 20.4601L371.019 20.9141L371.019 20.9141L371.91 20.4601ZM373 31H372H373ZM373 84.7966V85.7966H374V84.7966H373ZM367.195 85.9191L366.821 84.9915L367.195 85.9191ZM362.274 89.1156L361.577 88.3985V88.3985L362.274 89.1156ZM358.985 93.8994L358.065 93.5074V93.5074L358.985 93.8994ZM358.985 105.185L358.065 105.577V105.577L358.985 105.185ZM362.274 109.969L361.577 110.686V110.686L362.274 109.969ZM367.195 113.166L366.821 114.093L367.195 113.166ZM373 114.288H374V113.288H373V114.288ZM373 173H372H373ZM371.91 183.54L371.019 183.086V183.086L371.91 183.54ZM367.54 187.91L367.086 187.019L367.54 187.91ZM20.4601 187.91L20.9141 187.019H20.9141L20.4601 187.91ZM16.0899 183.54L15.1989 183.994H15.1989L16.0899 183.54ZM15 119.171L14.9352 118.173L14 118.233V119.171H15ZM24.7152 114.884L25.4122 115.602H25.4122L24.7152 114.884ZM24.7152 94.0308L25.4122 93.3138H25.4122L24.7152 94.0308ZM15 89.7447H14V90.6819L14.9352 90.7426L15 89.7447ZM15.1989 20.0061C14.5702 21.2402 14.2809 22.6213 14.1396 24.3506C13.9992 26.0683 14 28.2163 14 31H16C16 28.1833 16.0008 26.1308 16.1329 24.5135C16.2641 22.9078 16.5198 21.8192 16.9809 20.9141L15.1989 20.0061ZM20.0061 15.199C17.9363 16.2536 16.2535 17.9364 15.1989 20.0061L16.9809 20.9141C17.8438 19.2207 19.2206 17.8438 20.9141 16.981L20.0061 15.199ZM31 14C28.2162 14 26.0683 13.9993 24.3506 14.1396C22.6212 14.2809 21.2401 14.5702 20.0061 15.199L20.9141 16.981C21.8192 16.5198 22.9078 16.2641 24.5135 16.133C26.1308 16.0008 28.1832 16 31 16V14ZM357 14H31V16H357V14ZM367.994 15.199C366.76 14.5702 365.379 14.2809 363.649 14.1396C361.932 13.9993 359.784 14 357 14V16C359.817 16 361.869 16.0008 363.487 16.133C365.092 16.2641 366.181 16.5198 367.086 16.981L367.994 15.199ZM372.801 20.0061C371.746 17.9364 370.064 16.2536 367.994 15.199L367.086 16.981C368.779 17.8438 370.156 19.2207 371.019 20.9141L372.801 20.0061ZM374 31C374 28.2163 374.001 26.0683 373.86 24.3506C373.719 22.6213 373.43 21.2402 372.801 20.0061L371.019 20.9141C371.48 21.8192 371.736 22.9078 371.867 24.5135C371.999 26.1308 372 28.1833 372 31H374ZM374 84.7966L374 31L372 31L372 84.7966H374ZM367.568 86.8467C369.29 86.1537 371.135 85.7966 373 85.7966V83.7966C370.88 83.7966 368.781 84.2024 366.821 84.9915L367.568 86.8467ZM362.971 89.8326C364.285 88.5548 365.847 87.5397 367.568 86.8467L366.821 84.9915C364.862 85.7805 363.079 86.9378 361.577 88.3985L362.971 89.8326ZM359.905 94.2915C360.615 92.6257 361.656 91.1104 362.971 89.8326L361.577 88.3985C360.074 89.8593 358.88 91.5951 358.065 93.5074L359.905 94.2915ZM358.831 99.5424C358.831 97.7413 359.195 95.9571 359.905 94.2915L358.065 93.5074C357.25 95.4199 356.831 97.4706 356.831 99.5424H358.831ZM359.905 104.793C359.195 103.128 358.831 101.344 358.831 99.5424H356.831C356.831 101.614 357.25 103.665 358.065 105.577L359.905 104.793ZM362.971 109.252C361.656 107.974 360.615 106.459 359.905 104.793L358.065 105.577C358.88 107.49 360.074 109.225 361.577 110.686L362.971 109.252ZM367.568 112.238C365.847 111.545 364.285 110.53 362.971 109.252L361.577 110.686C363.079 112.147 364.862 113.304 366.821 114.093L367.568 112.238ZM373 113.288C371.135 113.288 369.29 112.931 367.568 112.238L366.821 114.093C368.781 114.882 370.88 115.288 373 115.288V113.288ZM374 173L374 114.288H372L372 173H374ZM372.801 183.994C373.43 182.76 373.719 181.379 373.86 179.649C374.001 177.932 374 175.784 374 173H372C372 175.817 371.999 177.869 371.867 179.487C371.736 181.092 371.48 182.181 371.019 183.086L372.801 183.994ZM367.994 188.801C370.064 187.747 371.746 186.064 372.801 183.994L371.019 183.086C370.156 184.779 368.779 186.156 367.086 187.019L367.994 188.801ZM357 190C359.784 190 361.932 190.001 363.649 189.86C365.379 189.719 366.76 189.43 367.994 188.801L367.086 187.019C366.181 187.48 365.092 187.736 363.487 187.867C361.869 187.999 359.817 188 357 188V190ZM31 190H357V188H31V190ZM20.0061 188.801C21.2401 189.43 22.6212 189.719 24.3506 189.86C26.0683 190.001 28.2162 190 31 190V188C28.1832 188 26.1308 187.999 24.5135 187.867C22.9078 187.736 21.8192 187.48 20.9141 187.019L20.0061 188.801ZM15.1989 183.994C16.2535 186.064 17.9363 187.747 20.0061 188.801L20.9141 187.019C19.2206 186.156 17.8438 184.779 16.9809 183.086L15.1989 183.994ZM14 173C14 175.784 13.9992 177.932 14.1396 179.649C14.2809 181.379 14.5702 182.76 15.1989 183.994L16.9809 183.086C16.5198 182.181 16.2641 181.092 16.1329 179.487C16.0008 177.869 16 175.817 16 173H14ZM14 119.171V173H16V119.171H14ZM24.0182 114.167C21.5864 116.531 18.356 117.951 14.9352 118.173L15.0648 120.169C18.9518 119.916 22.633 118.303 25.4122 115.602L24.0182 114.167ZM28.1583 104.458C28.1583 108.094 26.6725 111.587 24.0182 114.167L25.4122 115.602C28.4476 112.651 30.1583 108.643 30.1583 104.458H28.1583ZM24.0182 94.7479C26.6725 97.328 28.1583 100.821 28.1583 104.458H30.1583C30.1583 100.272 28.4476 96.2644 25.4122 93.3138L24.0182 94.7479ZM14.9352 90.7426C18.356 90.9646 21.5864 92.384 24.0182 94.7479L25.4122 93.3138C22.633 90.6122 18.9518 88.9991 15.0648 88.7468L14.9352 90.7426ZM14 31V89.7447H16V31H14Z" fill="url(#paint0_linear_4954_10268)" fill-opacity="0.4" style="mix-blend-mode:hard-light" mask="url(#path-1-inside-1_4954_10268)"/>
</g>
<mask id="mask0_4954_10268" style="mask-type:alpha" maskUnits="userSpaceOnUse" x="15" y="15" width="358" height="174">
<mask id="path-3-inside-2_4954_10268" fill="white">
<path fill-rule="evenodd" clip-rule="evenodd" d="M15 31C15 25.3995 15 22.5992 16.0899 20.4601C17.0487 18.5785 18.5785 17.0487 20.4601 16.09C22.5992 15 25.3995 15 31 15H357C362.6 15 365.401 15 367.54 16.09C369.421 17.0487 370.951 18.5785 371.91 20.4601C373 22.5992 373 25.3995 373 31V78.2724C370.226 78.2725 367.479 78.8862 364.915 80.0785C362.352 81.2709 360.023 83.0187 358.061 85.222C356.099 87.4252 354.543 90.0409 353.481 92.9196C352.419 95.7984 351.873 98.8838 351.873 102C351.873 105.116 352.419 108.201 353.481 111.08C354.543 113.958 356.099 116.574 358.061 118.777C360.023 120.981 362.352 122.728 364.915 123.921C367.479 125.113 370.226 125.727 373 125.727V173C373 178.601 373 181.401 371.91 183.54C370.951 185.422 369.421 186.951 367.54 187.91C365.401 189 362.6 189 357 189H31C25.3995 189 22.5992 189 20.4601 187.91C18.5785 186.951 17.0487 185.422 16.0899 183.54C15 181.401 15 178.601 15 173V31ZM15.0007 125.727C20.6042 125.727 25.9781 123.227 29.9404 118.777C33.9026 114.328 36.1286 108.293 36.1286 102C36.1286 95.7068 33.9026 89.6717 29.9404 85.222C25.9781 80.7722 20.6042 78.2724 15.0007 78.2724L15.0007 102V125.727Z"/>
</mask>
<path fill-rule="evenodd" clip-rule="evenodd" d="M15 31C15 25.3995 15 22.5992 16.0899 20.4601C17.0487 18.5785 18.5785 17.0487 20.4601 16.09C22.5992 15 25.3995 15 31 15H357C362.6 15 365.401 15 367.54 16.09C369.421 17.0487 370.951 18.5785 371.91 20.4601C373 22.5992 373 25.3995 373 31V78.2724C370.226 78.2725 367.479 78.8862 364.915 80.0785C362.352 81.2709 360.023 83.0187 358.061 85.222C356.099 87.4252 354.543 90.0409 353.481 92.9196C352.419 95.7984 351.873 98.8838 351.873 102C351.873 105.116 352.419 108.201 353.481 111.08C354.543 113.958 356.099 116.574 358.061 118.777C360.023 120.981 362.352 122.728 364.915 123.921C367.479 125.113 370.226 125.727 373 125.727V173C373 178.601 373 181.401 371.91 183.54C370.951 185.422 369.421 186.951 367.54 187.91C365.401 189 362.6 189 357 189H31C25.3995 189 22.5992 189 20.4601 187.91C18.5785 186.951 17.0487 185.422 16.0899 183.54C15 181.401 15 178.601 15 173V31ZM15.0007 125.727C20.6042 125.727 25.9781 123.227 29.9404 118.777C33.9026 114.328 36.1286 108.293 36.1286 102C36.1286 95.7068 33.9026 89.6717 29.9404 85.222C25.9781 80.7722 20.6042 78.2724 15.0007 78.2724L15.0007 102V125.727Z" fill="#FDD73F"/>
<path fill-rule="evenodd" clip-rule="evenodd" d="M15 31C15 25.3995 15 22.5992 16.0899 20.4601C17.0487 18.5785 18.5785 17.0487 20.4601 16.09C22.5992 15 25.3995 15 31 15H357C362.6 15 365.401 15 367.54 16.09C369.421 17.0487 370.951 18.5785 371.91 20.4601C373 22.5992 373 25.3995 373 31V78.2724C370.226 78.2725 367.479 78.8862 364.915 80.0785C362.352 81.2709 360.023 83.0187 358.061 85.222C356.099 87.4252 354.543 90.0409 353.481 92.9196C352.419 95.7984 351.873 98.8838 351.873 102C351.873 105.116 352.419 108.201 353.481 111.08C354.543 113.958 356.099 116.574 358.061 118.777C360.023 120.981 362.352 122.728 364.915 123.921C367.479 125.113 370.226 125.727 373 125.727V173C373 178.601 373 181.401 371.91 183.54C370.951 185.422 369.421 186.951 367.54 187.91C365.401 189 362.6 189 357 189H31C25.3995 189 22.5992 189 20.4601 187.91C18.5785 186.951 17.0487 185.422 16.0899 183.54C15 181.401 15 178.601 15 173V31ZM15.0007 125.727C20.6042 125.727 25.9781 123.227 29.9404 118.777C33.9026 114.328 36.1286 108.293 36.1286 102C36.1286 95.7068 33.9026 89.6717 29.9404 85.222C25.9781 80.7722 20.6042 78.2724 15.0007 78.2724L15.0007 102V125.727Z" fill="url(#paint1_linear_4954_10268)" fill-opacity="0.4"/>
<path d="M16.0899 20.4601L16.9809 20.9141L16.0899 20.4601ZM20.4601 16.09L20.9141 16.981L20.4601 16.09ZM367.54 16.09L367.994 15.199V15.199L367.54 16.09ZM371.91 20.4601L371.019 20.9141L371.019 20.9141L371.91 20.4601ZM373 78.2724L373 79.2724L374 79.2724V78.2724H373ZM364.915 80.0785L365.337 80.9852L364.915 80.0785ZM358.061 85.222L357.314 84.5569V84.557L358.061 85.222ZM353.481 92.9196L354.419 93.2657L354.419 93.2657L353.481 92.9196ZM353.481 111.08L354.419 110.734L354.419 110.734L353.481 111.08ZM358.061 118.777L357.314 119.442L358.061 118.777ZM364.915 123.921L364.494 124.828L364.915 123.921ZM373 125.727H374V124.727L373 124.727L373 125.727ZM371.91 183.54L371.019 183.086L371.019 183.086L371.91 183.54ZM367.54 187.91L367.994 188.801L367.54 187.91ZM20.4601 187.91L20.0061 188.801H20.0061L20.4601 187.91ZM16.0899 183.54L16.9809 183.086H16.9809L16.0899 183.54ZM29.9404 118.777L30.6872 119.442H30.6872L29.9404 118.777ZM15.0007 125.727H14.0007V126.727H15.0007V125.727ZM29.9404 85.222L29.1935 85.887H29.1935L29.9404 85.222ZM15.0007 78.2724V77.2724H14.0007L14.0007 78.2724H15.0007ZM15.0007 102H14.0007H15.0007ZM15.1989 20.0061C14.5702 21.2402 14.2809 22.6213 14.1396 24.3506C13.9992 26.0683 14 28.2163 14 31H16C16 28.1833 16.0008 26.1308 16.1329 24.5135C16.2641 22.9078 16.5198 21.8192 16.9809 20.9141L15.1989 20.0061ZM20.0061 15.199C17.9363 16.2536 16.2535 17.9364 15.1989 20.0061L16.9809 20.9141C17.8438 19.2207 19.2206 17.8438 20.9141 16.981L20.0061 15.199ZM31 14C28.2162 14 26.0683 13.9993 24.3506 14.1396C22.6212 14.2809 21.2401 14.5702 20.0061 15.199L20.9141 16.981C21.8192 16.5198 22.9078 16.2641 24.5135 16.133C26.1308 16.0008 28.1832 16 31 16V14ZM357 14H31V16H357V14ZM367.994 15.199C366.76 14.5702 365.379 14.2809 363.649 14.1396C361.932 13.9993 359.784 14 357 14V16C359.817 16 361.869 16.0008 363.486 16.133C365.092 16.2641 366.181 16.5198 367.086 16.981L367.994 15.199ZM372.801 20.0061C371.746 17.9364 370.064 16.2536 367.994 15.199L367.086 16.981C368.779 17.8438 370.156 19.2207 371.019 20.9141L372.801 20.0061ZM374 31C374 28.2163 374.001 26.0683 373.86 24.3506C373.719 22.6213 373.43 21.2402 372.801 20.0061L371.019 20.9141C371.48 21.8192 371.736 22.9078 371.867 24.5135C371.999 26.1308 372 28.1833 372 31H374ZM374 78.2724V31H372V78.2724H374ZM365.337 80.9852C367.771 79.8532 370.374 79.2725 373 79.2724L373 77.2724C370.077 77.2725 367.186 77.9193 364.494 79.1718L365.337 80.9852ZM358.808 85.887C360.683 83.7811 362.903 82.1176 365.337 80.9852L364.494 79.1718C361.801 80.4243 359.363 82.2563 357.314 84.5569L358.808 85.887ZM354.419 93.2657C355.44 90.4995 356.932 87.9931 358.808 85.887L357.314 84.557C355.266 86.8574 353.646 89.5823 352.543 92.5736L354.419 93.2657ZM352.873 102C352.873 99 353.399 96.0319 354.419 93.2657L352.543 92.5736C351.44 95.5649 350.873 98.7675 350.873 102H352.873ZM354.419 110.734C353.399 107.967 352.873 104.999 352.873 102H350.873C350.873 105.232 351.44 108.435 352.543 111.426L354.419 110.734ZM358.808 118.112C356.932 116.006 355.44 113.5 354.419 110.734L352.543 111.426C353.646 114.417 355.266 117.142 357.314 119.442L358.808 118.112ZM365.337 123.014C362.903 121.882 360.683 120.218 358.808 118.112L357.314 119.442C359.363 121.743 361.801 123.575 364.494 124.828L365.337 123.014ZM373 124.727C370.374 124.727 367.771 124.146 365.337 123.014L364.494 124.828C367.186 126.08 370.077 126.727 373 126.727L373 124.727ZM374 173V125.727H372V173H374ZM372.801 183.994C373.43 182.76 373.719 181.379 373.86 179.649C374.001 177.932 374 175.784 374 173H372C372 175.817 371.999 177.869 371.867 179.487C371.736 181.092 371.48 182.181 371.019 183.086L372.801 183.994ZM367.994 188.801C370.064 187.746 371.746 186.064 372.801 183.994L371.019 183.086C370.156 184.779 368.779 186.156 367.086 187.019L367.994 188.801ZM357 190C359.784 190 361.932 190.001 363.649 189.86C365.379 189.719 366.76 189.43 367.994 188.801L367.086 187.019C366.181 187.48 365.092 187.736 363.486 187.867C361.869 187.999 359.817 188 357 188V190ZM31 190H357V188H31V190ZM20.0061 188.801C21.2401 189.43 22.6212 189.719 24.3506 189.86C26.0683 190.001 28.2162 190 31 190V188C28.1832 188 26.1308 187.999 24.5135 187.867C22.9078 187.736 21.8192 187.48 20.9141 187.019L20.0061 188.801ZM15.1989 183.994C16.2535 186.064 17.9363 187.746 20.0061 188.801L20.9141 187.019C19.2206 186.156 17.8438 184.779 16.9809 183.086L15.1989 183.994ZM14 173C14 175.784 13.9992 177.932 14.1396 179.649C14.2809 181.379 14.5702 182.76 15.1989 183.994L16.9809 183.086C16.5198 182.181 16.2641 181.092 16.1329 179.487C16.0008 177.869 16 175.817 16 173H14ZM14 31V173H16V31H14ZM29.1935 118.112C25.4075 122.364 20.299 124.727 15.0007 124.727V126.727C20.9093 126.727 26.5488 124.09 30.6872 119.442L29.1935 118.112ZM35.1286 102C35.1286 108.062 32.983 113.857 29.1935 118.112L30.6872 119.442C34.8222 114.799 37.1286 108.523 37.1286 102H35.1286ZM29.1935 85.887C32.983 90.1426 35.1286 95.937 35.1286 102H37.1286C37.1286 95.4766 34.8222 89.2007 30.6872 84.557L29.1935 85.887ZM15.0007 79.2724C20.299 79.2724 25.4075 81.6351 29.1935 85.887L30.6872 84.557C26.5488 79.9094 20.9093 77.2724 15.0007 77.2724V79.2724ZM16.0007 102L16.0007 78.2724H14.0007L14.0007 102H16.0007ZM16.0007 125.727V102H14.0007V125.727H16.0007Z" fill="url(#paint2_linear_4954_10268)" fill-opacity="0.4" mask="url(#path-3-inside-2_4954_10268)"/>
</mask>
<g mask="url(#mask0_4954_10268)">
<path d="M578.014 8.5373C464.935 22.1799 287.647 49.7892 377.84 136.945C492.617 247.856 773.096 218.801 648.526 304.406" stroke="white" stroke-opacity="0.12" stroke-width="3"/>
<path d="M537.605 9.13251C424.526 22.7751 247.238 50.3844 337.431 137.54C452.208 248.451 732.687 219.396 608.117 305.001" stroke="white" stroke-opacity="0.12" stroke-width="3"/>
<path d="M497.259 7.22208C384.179 20.8647 206.892 48.474 297.085 135.63C411.861 246.541 692.34 217.485 567.77 303.09" stroke="white" stroke-opacity="0.12" stroke-width="3"/>
<path d="M457.102 3.54716C344.023 17.1898 166.735 44.7991 256.928 131.955C371.705 242.866 652.184 213.81 527.613 299.415" stroke="white" stroke-opacity="0.12" stroke-width="3"/>
<path d="M417.129 -1.21257C304.05 12.4301 126.762 40.0394 216.955 127.195C331.732 238.106 612.21 209.051 487.64 294.656" stroke="white" stroke-opacity="0.12" stroke-width="3"/>
<path d="M377.262 -6.49838C264.182 7.14426 86.8947 34.7535 177.088 121.909C291.865 232.821 572.343 203.765 447.773 289.37" stroke="white" stroke-opacity="0.12" stroke-width="3"/>
<path d="M337.407 -11.8725C224.327 1.77011 47.0397 29.3794 137.233 116.535C252.009 227.446 532.488 198.391 407.918 283.996" stroke="white" stroke-opacity="0.12" stroke-width="3"/>
<path d="M297.507 -17.0067C184.427 -3.36402 7.13978 24.2453 97.3327 111.401C212.11 222.312 492.588 193.257 368.018 278.862" stroke="white" stroke-opacity="0.12" stroke-width="3"/>
<path d="M257.514 -21.6608C144.435 -8.01815 -32.8525 19.5911 57.3405 106.747C172.117 217.658 452.596 188.603 328.026 274.207" stroke="white" stroke-opacity="0.12" stroke-width="3"/>
<path d="M217.408 -25.6602C104.328 -12.0176 -72.9593 15.5917 17.2336 102.747C132.01 213.659 412.489 184.603 287.919 270.208" stroke="white" stroke-opacity="0.12" stroke-width="3"/>
<path d="M177.191 -28.8916C64.1119 -15.249 -113.176 12.3603 -22.9828 99.5158C91.7941 210.427 372.273 181.372 247.703 266.977" stroke="white" stroke-opacity="0.12" stroke-width="3"/>
<path d="M136.637 -31.307C23.5572 -17.6643 -153.73 9.94494 -63.5375 97.1004C51.2394 208.012 331.718 178.956 207.148 264.561" stroke="white" stroke-opacity="0.12" stroke-width="3"/>
<path d="M96.2883 -33.1694C-16.7911 -19.5268 -194.079 8.08252 -103.886 95.238C10.8911 206.15 291.37 177.094 166.8 262.699" stroke="white" stroke-opacity="0.12" stroke-width="3"/>
</g>
<defs>
<filter id="filter0_dd_4954_10268" x="0" y="3.05176e-05" width="388" height="204" filterUnits="userSpaceOnUse" color-interpolation-filters="sRGB">
<feFlood flood-opacity="0" result="BackgroundImageFix"/>
<feColorMatrix in="SourceAlpha" type="matrix" values="0 0 0 0 0 0 0 0 0 0 0 0 0 0 0 0 0 0 127 0" result="hardAlpha"/>
<feOffset dx="5" dy="5"/>
<feGaussianBlur stdDeviation="5"/>
<feColorMatrix type="matrix" values="0 0 0 0 0.6512 0 0 0 0 0.66896 0 0 0 0 0.74 0 0 0 1 0"/>
<feBlend mode="normal" in2="BackgroundImageFix" result="effect1_dropShadow_4954_10268"/>
<feColorMatrix in="SourceAlpha" type="matrix" values="0 0 0 0 0 0 0 0 0 0 0 0 0 0 0 0 0 0 127 0" result="hardAlpha"/>
<feOffset dx="-5" dy="-5"/>
<feGaussianBlur stdDeviation="5"/>
<feColorMatrix type="matrix" values="0 0 0 0 0.979167 0 0 0 0 0.983333 0 0 0 0 1 0 0 0 1 0"/>
<feBlend mode="normal" in2="effect1_dropShadow_4954_10268" result="effect2_dropShadow_4954_10268"/>
<feBlend mode="normal" in="SourceGraphic" in2="effect2_dropShadow_4954_10268" result="shape"/>
</filter>
<linearGradient id="paint0_linear_4954_10268" x1="-0.146149" y1="4.96157" x2="146.026" y2="307.863" gradientUnits="userSpaceOnUse">
<stop stop-color="white"/>
<stop offset="1" stop-color="white" stop-opacity="0"/>
</linearGradient>
<linearGradient id="paint1_linear_4954_10268" x1="569.723" y1="102" x2="440.423" y2="-190.37" gradientUnits="userSpaceOnUse">
<stop/>
<stop offset="1" stop-color="white"/>
</linearGradient>
<linearGradient id="paint2_linear_4954_10268" x1="-0.146148" y1="4.96157" x2="146.026" y2="307.863" gradientUnits="userSpaceOnUse">
<stop stop-color="white"/>
<stop offset="1" stop-color="white" stop-opacity="0"/>
</linearGradient>
</defs>
</svg>
