<svg width="200" height="200" viewBox="0 0 200 200" fill="none" xmlns="http://www.w3.org/2000/svg">
<rect width="200" height="200" fill="#F0F0F3"/>
<g style="mix-blend-mode:luminosity" clip-path="url(#clip0_18585_112035)">
<g filter="url(#filter0_d_18585_112035)">
<mask id="mask0_18585_112035" style="mask-type:alpha" maskUnits="userSpaceOnUse" x="40" y="73" width="131" height="85">
<path fill-rule="evenodd" clip-rule="evenodd" d="M41.5826 113.613C40.9437 111.454 40.6242 110.374 40.7999 109.424C40.9545 108.588 41.3692 107.823 41.9844 107.237C42.6839 106.57 43.7623 106.248 45.9191 105.604L150.67 74.3166C152.827 73.6723 153.906 73.3503 154.854 73.5244C155.688 73.6776 156.451 74.0916 157.035 74.7068C157.699 75.4062 158.018 76.4859 158.657 78.6452L162.65 92.1401C161.9 92.3674 161.201 92.7389 160.592 93.2339C159.977 93.7339 159.467 94.3501 159.089 95.0473C158.711 95.7446 158.475 96.5093 158.392 97.2977C158.309 98.086 158.382 98.8827 158.607 99.6422C158.832 100.402 159.204 101.109 159.701 101.724C160.199 102.339 160.814 102.85 161.509 103.226C162.204 103.603 162.967 103.839 163.754 103.92C164.533 104.001 165.321 103.928 166.072 103.707L170.065 117.202C170.704 119.362 171.023 120.441 170.848 121.391C170.693 122.227 170.279 122.993 169.663 123.579C168.964 124.245 167.886 124.567 165.729 125.211L60.9775 156.499C58.8207 157.143 57.7423 157.465 56.7941 157.291C55.9601 157.138 55.1965 156.724 54.6126 156.109C53.9488 155.409 53.6294 154.33 52.9904 152.17L48.8504 138.177C49.8948 137.624 50.7626 136.77 51.3344 135.714C52.0968 134.306 52.2702 132.653 51.8164 131.119C51.3625 129.585 50.3187 128.296 48.9144 127.535C47.8614 126.964 46.6704 126.726 45.4945 126.835L41.5826 113.613Z" fill="white"/>
</mask>
<g mask="url(#mask0_18585_112035)">
<path fill-rule="evenodd" clip-rule="evenodd" d="M41.584 113.594C40.9445 111.434 40.6248 110.354 40.8002 109.404C40.9546 108.568 41.369 107.802 41.984 107.216C42.6833 106.549 43.7616 106.227 45.9182 105.584L150.657 74.3151C152.814 73.6712 153.892 73.3493 154.84 73.5238C155.674 73.6773 156.438 74.0916 157.022 74.7072C157.686 75.407 158.006 76.4871 158.645 78.6474L162.641 92.1479C161.891 92.375 161.193 92.7464 160.584 93.2414C159.969 93.7414 159.459 94.3576 159.081 95.0551C158.704 95.7525 158.467 96.5173 158.385 97.3059C158.303 98.0945 158.376 98.8915 158.601 99.6513C158.826 100.411 159.198 101.119 159.696 101.734C160.194 102.35 160.808 102.86 161.504 103.238C162.199 103.615 162.962 103.851 163.749 103.932C164.528 104.013 165.315 103.941 166.067 103.72L170.063 117.22C170.703 119.381 171.022 120.461 170.847 121.411C170.693 122.247 170.278 123.013 169.663 123.599C168.964 124.265 167.886 124.587 165.729 125.231L60.9901 156.499C58.8336 157.143 57.7552 157.465 56.8071 157.291C55.973 157.137 55.2094 156.723 54.6253 156.107C53.9614 155.408 53.6417 154.328 53.0021 152.167L48.8583 138.169C49.9026 137.615 50.7701 136.761 51.3416 135.705C52.1036 134.297 52.2765 132.643 51.8223 131.109C51.368 129.574 50.3238 128.284 48.9194 127.523C47.8663 126.952 46.6753 126.712 45.4994 126.822L41.584 113.594Z" fill="url(#paint0_linear_18585_112035)"/>
<g filter="url(#filter1_d_18585_112035)">
<path d="M40.8004 109.404L41.1954 109.477L40.8004 109.404ZM41.9843 107.216L42.2608 107.507L41.9843 107.216ZM154.841 73.5239L154.914 73.128L154.841 73.5239ZM157.022 74.7073L157.314 74.4297L157.022 74.7073ZM162.642 92.148L162.758 92.5333L163.141 92.4173L163.027 92.0331L162.642 92.148ZM160.584 93.2416L160.332 92.9292L160.584 93.2416ZM158.385 97.3062L157.986 97.2647L158.385 97.3062ZM161.504 103.238L161.695 102.884L161.504 103.238ZM163.749 103.933L163.707 104.333L163.749 103.933ZM166.067 103.72L166.452 103.605L166.339 103.221L165.955 103.334L166.067 103.72ZM170.847 121.411L171.242 121.484L170.847 121.411ZM169.664 123.599L169.94 123.891L169.664 123.599ZM56.8074 157.291L56.7343 157.687L56.8074 157.291ZM54.6255 156.108L54.9168 155.83L54.6255 156.108ZM48.8586 138.169L48.6711 137.813L48.3799 137.968L48.4735 138.284L48.8586 138.169ZM51.3418 135.706L51.6949 135.897L51.3418 135.706ZM48.9197 127.523L48.7281 127.877L48.9197 127.523ZM45.4996 126.822L45.1146 126.937L45.2082 127.253L45.5361 127.223L45.4996 126.822ZM40.4055 109.331C40.3043 109.88 40.3506 110.445 40.4937 111.129C40.6357 111.808 40.8813 112.636 41.1991 113.71L41.9693 113.48C41.6477 112.393 41.4136 111.602 41.2798 110.963C41.147 110.328 41.1212 109.879 41.1954 109.477L40.4055 109.331ZM41.7077 106.924C41.0311 107.569 40.5753 108.412 40.4055 109.331L41.1954 109.477C41.3343 108.724 41.7072 108.035 42.2608 107.507L41.7077 106.924ZM45.8042 105.198C44.7323 105.518 43.9051 105.765 43.2597 106.016C42.6099 106.27 42.1111 106.54 41.7077 106.924L42.2608 107.507C42.5567 107.225 42.9467 107.002 43.55 106.766C44.1577 106.53 44.9479 106.293 46.0326 105.97L45.8042 105.198ZM150.543 73.9294L45.8042 105.198L46.0326 105.97L150.772 74.7009L150.543 73.9294ZM154.914 73.128C154.367 73.0274 153.802 73.0746 153.12 73.2189C152.442 73.3622 151.615 73.6094 150.543 73.9294L150.772 74.7009C151.856 74.3771 152.647 74.1415 153.285 74.0064C153.918 73.8725 154.366 73.846 154.768 73.9198L154.914 73.128ZM157.314 74.4297C156.671 73.7526 155.831 73.2969 154.914 73.128L154.768 73.9198C155.518 74.058 156.205 74.4308 156.731 74.9848L157.314 74.4297ZM159.031 78.5325C158.713 77.4588 158.468 76.6301 158.217 75.9838C157.966 75.3329 157.697 74.8334 157.314 74.4297L156.731 74.9848C157.012 75.2809 157.235 75.6714 157.469 76.2757C157.704 76.8844 157.939 77.6759 158.26 78.7625L159.031 78.5325ZM163.027 92.0331L159.031 78.5325L158.26 78.7625L162.257 92.263L163.027 92.0331ZM160.837 93.554C161.405 93.0919 162.058 92.7453 162.758 92.5333L162.526 91.7628C161.726 92.005 160.981 92.4011 160.332 92.9292L160.837 93.554ZM159.435 95.2467C159.787 94.5958 160.263 94.0206 160.837 93.554L160.332 92.9292C159.676 93.4626 159.131 94.1199 158.729 94.8638L159.435 95.2467ZM158.785 97.3476C158.862 96.6115 159.083 95.8976 159.435 95.2467L158.729 94.8638C158.326 95.6077 158.074 96.4235 157.986 97.2647L158.785 97.3476ZM158.986 99.5366C158.776 98.8274 158.708 98.0836 158.785 97.3476L157.986 97.2647C157.898 98.106 157.976 98.956 158.216 99.7665L158.986 99.5366ZM160.008 101.481C159.544 100.906 159.196 100.246 158.986 99.5366L158.216 99.7665C158.456 100.577 158.853 101.332 159.384 101.988L160.008 101.481ZM161.695 102.884C161.046 102.532 160.473 102.055 160.008 101.481L159.384 101.988C159.916 102.645 160.571 103.19 161.312 103.592L161.695 102.884ZM163.791 103.532C163.056 103.456 162.345 103.236 161.695 102.884L161.312 103.592C162.054 103.994 162.868 104.246 163.707 104.333L163.791 103.532ZM165.955 103.334C165.253 103.54 164.518 103.608 163.791 103.532L163.707 104.333C164.538 104.419 165.378 104.342 166.18 104.106L165.955 103.334ZM170.449 117.105L166.452 103.605L165.682 103.835L169.679 117.335L170.449 117.105ZM171.242 121.484C171.344 120.936 171.297 120.37 171.154 119.686C171.012 119.008 170.767 118.179 170.449 117.105L169.679 117.335C170 118.422 170.234 119.214 170.368 119.853C170.501 120.487 170.527 120.936 170.453 121.339L171.242 121.484ZM169.94 123.891C170.617 123.246 171.073 122.404 171.242 121.484L170.453 121.339C170.314 122.091 169.941 122.78 169.387 123.308L169.94 123.891ZM165.844 125.617C166.916 125.297 167.743 125.051 168.388 124.799C169.038 124.545 169.537 124.275 169.94 123.891L169.387 123.308C169.091 123.59 168.701 123.814 168.098 124.049C167.49 124.286 166.7 124.522 165.615 124.846L165.844 125.617ZM61.1046 156.886L165.844 125.617L165.615 124.846L60.8762 156.114L61.1046 156.886ZM56.7343 157.687C57.2813 157.788 57.8461 157.741 58.5281 157.596C59.2057 157.453 60.0326 157.206 61.1046 156.886L60.8762 156.114C59.7916 156.438 59.0011 156.674 58.3632 156.809C57.73 156.943 57.2816 156.969 56.8804 156.895L56.7343 157.687ZM54.3343 156.385C54.9767 157.063 55.8168 157.518 56.7343 157.687L56.8804 156.895C56.1298 156.757 55.4424 156.384 54.9168 155.83L54.3343 156.385ZM52.6173 152.283C52.9352 153.356 53.1801 154.185 53.4303 154.831C53.6822 155.482 53.9513 155.982 54.3343 156.385L54.9168 155.83C54.6359 155.534 54.4131 155.144 54.1793 154.54C53.9437 153.931 53.7091 153.139 53.3875 152.053L52.6173 152.283ZM48.4735 138.284L52.6173 152.283L53.3875 152.053L49.2437 138.054L48.4735 138.284ZM50.9888 135.514C50.4555 136.5 49.6458 137.297 48.6711 137.813L49.0461 138.525C50.1599 137.934 51.0853 137.024 51.6949 135.897L50.9888 135.514ZM51.4375 131.224C51.8614 132.656 51.7 134.2 50.9888 135.514L51.6949 135.897C52.5077 134.395 52.6921 132.631 52.2076 130.994L51.4375 131.224ZM48.7281 127.877C50.0389 128.588 51.0135 129.792 51.4375 131.224L52.2076 130.994C51.7231 129.357 50.6093 127.981 49.1112 127.169L48.7281 127.877ZM45.5361 127.223C46.6336 127.121 47.7452 127.344 48.7281 127.877L49.1112 127.169C47.9879 126.56 46.7174 126.305 45.4632 126.421L45.5361 127.223ZM41.1991 113.71L45.1146 126.937L45.8847 126.707L41.9693 113.48L41.1991 113.71Z" fill="url(#paint1_linear_18585_112035)" fill-opacity="0.4" style="mix-blend-mode:hard-light" shape-rendering="crispEdges"/>
</g>
</g>
<path d="M144.783 103.743L146.227 104.249L146.227 104.249C146.281 104.268 146.328 104.303 146.362 104.35C146.396 104.396 146.414 104.452 146.415 104.509L146.454 106.35C146.455 106.414 146.484 106.476 146.532 106.518C146.581 106.561 146.645 106.581 146.709 106.574C146.773 106.567 146.832 106.534 146.87 106.481L147.851 105.139C147.888 105.09 147.939 105.054 147.998 105.036C148.057 105.018 148.12 105.021 148.177 105.042L149.73 105.629C149.791 105.651 149.858 105.648 149.915 105.618C149.973 105.589 150.016 105.537 150.033 105.474C150.05 105.412 150.041 105.345 150.007 105.29L149.037 103.728C149.007 103.679 148.992 103.622 148.995 103.565C148.998 103.507 149.018 103.452 149.053 103.407L149.987 102.191C150.027 102.14 150.043 102.074 150.031 102.009C150.019 101.945 149.981 101.889 149.926 101.855C149.87 101.821 149.803 101.812 149.741 101.831L148.209 102.287C148.152 102.305 148.091 102.303 148.034 102.282C147.978 102.262 147.929 102.224 147.896 102.174L146.968 100.787C146.932 100.732 146.873 100.695 146.808 100.687C146.743 100.678 146.677 100.697 146.627 100.741C146.577 100.784 146.548 100.846 146.547 100.912L146.525 102.583C146.525 102.643 146.505 102.701 146.469 102.749C146.432 102.797 146.382 102.832 146.324 102.85L144.793 103.306C144.731 103.325 144.679 103.369 144.651 103.428C144.624 103.487 144.622 103.555 144.647 103.615C144.672 103.675 144.721 103.722 144.783 103.743L144.783 103.743Z" fill="white"/>
<path d="M66.8362 126.985L65.9019 128.2L65.9019 128.2C65.8669 128.246 65.8466 128.301 65.8438 128.358C65.8409 128.416 65.8556 128.473 65.8859 128.522L66.8558 130.084C66.8899 130.139 66.8994 130.206 66.8821 130.268C66.8647 130.331 66.822 130.383 66.7644 130.412C66.7068 130.441 66.6396 130.445 66.5792 130.422L65.0262 129.836C64.9688 129.814 64.9058 129.812 64.8471 129.83C64.7883 129.847 64.7368 129.884 64.7005 129.933L63.7189 131.275C63.6807 131.327 63.6224 131.361 63.5582 131.368C63.4941 131.375 63.4299 131.355 63.3813 131.312C63.3328 131.269 63.3044 131.208 63.3031 131.143L63.2645 129.303C63.2632 129.246 63.2446 129.19 63.2109 129.143C63.1772 129.097 63.1302 129.062 63.0761 129.043L61.6316 128.537C61.5703 128.515 61.521 128.469 61.4959 128.409C61.4708 128.348 61.4724 128.281 61.5003 128.222C61.5281 128.163 61.5796 128.119 61.6419 128.1L63.173 127.643C63.2305 127.626 63.281 127.591 63.3172 127.543C63.3534 127.495 63.3733 127.437 63.3741 127.377L63.3952 125.706C63.3962 125.64 63.4253 125.578 63.4752 125.534C63.5251 125.491 63.5911 125.472 63.6564 125.48C63.7217 125.489 63.7802 125.526 63.817 125.581L64.7444 126.968C64.7778 127.018 64.8263 127.056 64.8827 127.076C64.9392 127.097 65.0006 127.098 65.0581 127.081L66.5897 126.625C66.652 126.606 66.7191 126.615 66.7745 126.649C66.8298 126.683 66.8682 126.739 66.8799 126.803C66.8917 126.867 66.8758 126.933 66.8361 126.985L66.8362 126.985Z" fill="white"/>
<path fill-rule="evenodd" clip-rule="evenodd" d="M145.718 122.936L77.0382 143.352L66.7227 108.652L135.402 88.2353L145.718 122.936ZM135.691 87.7014L146.3 84.5478C148.118 84.0073 150.03 85.0431 150.571 86.8613L159.173 115.8C159.714 117.619 158.678 119.531 156.86 120.071L66.1409 147.04C64.3227 147.58 62.4105 146.544 61.87 144.726L53.2672 115.787C52.7267 113.969 53.7625 112.057 55.5807 111.516L66.1888 108.363L66.1887 108.362L66.6002 108.24L66.6003 108.24L135.28 87.8238L135.28 87.8235L135.691 87.7012L135.691 87.7014ZM135.814 88.113L146.129 122.813L156.738 119.66C158.329 119.187 159.235 117.514 158.762 115.923L150.159 86.9837C149.686 85.3927 148.013 84.4864 146.422 84.9593L135.814 88.113ZM66.0185 146.628L76.6267 143.475L66.3111 108.774L55.703 111.928C54.1121 112.401 53.2058 114.074 53.6787 115.665L62.2815 144.604C62.7545 146.195 64.4276 147.101 66.0185 146.628Z" fill="white"/>
<path opacity="0.2" d="M59.1252 110.463L135.77 87.6787L146.33 123.202L69.6854 145.987L59.1252 110.463Z" fill="white"/>
</g>
<g filter="url(#filter2_d_18585_112035)">
<mask id="mask1_18585_112035" style="mask-type:alpha" maskUnits="userSpaceOnUse" x="27" y="29" width="142" height="128">
<path fill-rule="evenodd" clip-rule="evenodd" d="M30.2794 116.904C28.7482 114.911 27.9825 113.914 27.7846 112.853C27.6106 111.921 27.7355 110.956 28.1415 110.099C28.603 109.124 29.5973 108.355 31.5858 106.818L128.163 32.1575C130.152 30.6201 131.146 29.8516 132.203 29.6523C133.134 29.477 134.095 29.6017 134.95 30.0081C135.922 30.4702 136.687 31.4668 138.219 33.46L147.788 45.9161C147.098 46.454 146.519 47.1218 146.083 47.882C145.643 48.6499 145.358 49.4968 145.244 50.3749C145.13 51.2529 145.19 52.1447 145.42 52.9994C145.65 53.8537 146.046 54.6544 146.584 55.3555C147.123 56.0565 147.794 56.6442 148.559 57.0851C149.324 57.5258 150.169 57.811 151.044 57.9244C151.92 58.0378 152.809 57.9773 153.661 57.746C154.505 57.5169 155.296 57.1252 155.991 56.5926L165.56 69.0488C167.092 71.0421 167.857 72.0386 168.055 73.099C168.229 74.032 168.104 74.9959 167.698 75.8537C167.237 76.8288 166.243 77.5973 164.254 79.1347L67.6767 153.795C65.6882 155.332 64.6939 156.101 63.6364 156.3C62.7061 156.475 61.7448 156.351 60.8898 155.944C59.918 155.482 59.1525 154.486 57.6211 152.492L47.6985 139.577C48.5644 138.58 49.1262 137.343 49.2985 136.013C49.5282 134.24 49.0461 132.448 47.9584 131.032C46.8707 129.616 45.2664 128.692 43.4984 128.463C42.1727 128.292 40.8364 128.521 39.6552 129.108L30.2794 116.904Z" fill="white"/>
</mask>
<g mask="url(#mask1_18585_112035)">
<path fill-rule="evenodd" clip-rule="evenodd" d="M30.2798 116.904C28.7485 114.911 27.9828 113.914 27.7849 112.854C27.6109 111.921 27.7358 110.956 28.1417 110.099C28.6032 109.124 29.5975 108.355 31.586 106.818L128.163 32.1581C130.151 30.6208 131.146 29.8522 132.203 29.653C133.133 29.4776 134.095 29.6024 134.95 30.0088C135.921 30.4709 136.687 31.4675 138.218 33.4607L147.788 45.917C147.098 46.4549 146.519 47.1227 146.083 47.8829C145.643 48.6508 145.358 49.4977 145.244 50.3758C145.13 51.2539 145.19 52.1456 145.42 53.0003C145.65 53.8546 146.046 54.6554 146.584 55.3564C147.123 56.0574 147.794 56.6451 148.559 57.0861C149.324 57.5268 150.169 57.812 151.044 57.9254C151.92 58.0388 152.809 57.9783 153.661 57.747C154.505 57.518 155.296 57.1262 155.991 56.5937L165.56 69.05C167.092 71.0433 167.857 72.0398 168.055 73.1003C168.229 74.0333 168.104 74.9971 167.698 75.855C167.237 76.83 166.243 77.5986 164.254 79.136L67.6775 153.796C65.689 155.333 64.6947 156.101 63.6372 156.301C62.7069 156.476 61.7456 156.352 60.8906 155.945C59.9188 155.483 59.1532 154.486 57.6218 152.493L47.6991 139.577C48.565 138.581 49.1268 137.343 49.299 136.013C49.5287 134.24 49.0466 132.448 47.9589 131.033C46.8712 129.617 45.2668 128.693 43.4989 128.464C42.1732 128.292 40.8368 128.522 39.6557 129.108L30.2798 116.904Z" fill="url(#paint2_linear_18585_112035)"/>
</g>
<path d="M83.0949 110.78L78.5317 104.859L81.1455 102.844C81.5515 102.531 81.9411 102.326 82.3144 102.227C82.6832 102.122 83.0229 102.126 83.3334 102.237C83.6451 102.338 83.9184 102.541 84.153 102.846C84.4138 103.184 84.5487 103.534 84.5577 103.895C84.5723 104.253 84.4522 104.592 84.1972 104.915L84.0564 104.767C84.3649 104.619 84.6694 104.542 84.9698 104.535C85.2758 104.524 85.5628 104.582 85.8307 104.708C86.0943 104.828 86.326 105.018 86.526 105.277C86.7563 105.576 86.9076 105.878 86.98 106.181C87.0479 106.48 87.0447 106.779 86.9703 107.079C86.8959 107.379 86.7573 107.665 86.5544 107.938C86.3571 108.207 86.1034 108.461 85.7933 108.7L83.0949 110.78ZM83.5226 108.536L84.8168 107.538C84.9747 107.417 85.0877 107.289 85.1557 107.156C85.2294 107.018 85.2603 106.877 85.2485 106.734C85.2323 106.584 85.1698 106.439 85.0612 106.298C84.9612 106.169 84.8427 106.085 84.7055 106.047C84.5739 106.004 84.4315 106.006 84.2783 106.052C84.1208 106.093 83.9603 106.176 83.7967 106.302L82.5448 107.267L83.5226 108.536ZM81.7169 106.193L82.7743 105.378C82.9209 105.265 83.0276 105.147 83.0943 105.023C83.1623 104.89 83.1891 104.761 83.1747 104.638C83.1616 104.504 83.1072 104.375 83.0116 104.251C82.8725 104.071 82.7018 103.977 82.4995 103.972C82.2929 103.96 82.0655 104.05 81.8174 104.241L80.8108 105.017L81.7169 106.193Z" fill="white"/>
<path d="M89.026 106.209L84.4628 100.288L88.5907 97.1067L89.5359 98.3332L86.8037 100.439L89.4764 103.907L92.2932 101.736L93.2384 102.963L89.026 106.209ZM87.8318 103.26L86.9322 102.093L90.0027 99.7262L90.9023 100.894L87.8318 103.26Z" fill="white"/>
<path d="M94.4779 102.007L89.9147 96.0863L91.2004 95.0954L97.5642 96.9324L97.2525 97.1052C97.0809 96.9409 96.9214 96.7806 96.7741 96.6245C96.6268 96.4683 96.4817 96.315 96.3388 96.1645C96.2015 96.0097 96.062 95.852 95.9203 95.6915C95.7843 95.5267 95.6374 95.3478 95.4797 95.1547C95.3276 94.9574 95.1624 94.7431 94.9843 94.5119L93.8565 93.0485L95.2522 91.9729L99.8154 97.894L98.5127 98.8979L91.9093 97.0299L92.3863 96.7567C92.6231 97.0056 92.8239 97.2195 92.9885 97.3982C93.1545 97.5669 93.2996 97.7202 93.4239 97.8581C93.5538 97.9917 93.6672 98.1155 93.7641 98.2296C93.861 98.3437 93.9551 98.4599 94.0464 98.5783C94.1389 98.6868 94.2395 98.8115 94.3482 98.9525L95.8736 100.932L94.4779 102.007Z" fill="white"/>
<path d="M101.301 96.7491L96.7379 90.8279L100.866 87.6468L101.811 88.8733L99.0788 90.9789L101.752 94.4469L104.568 92.2762L105.514 93.5027L101.301 96.7491ZM100.107 93.7999L99.2073 92.6326L102.278 90.2663L103.177 91.4336L100.107 93.7999Z" fill="white"/>
<path d="M106.753 92.5475L102.19 86.6264L103.628 85.5182L108.191 91.4393L106.753 92.5475ZM105.674 89.7656L104.749 88.5644L107.811 86.2046L108.736 87.4057L105.674 89.7656ZM103.836 87.3802L102.858 86.1114L106.267 83.4843L107.245 84.7531L103.836 87.3802Z" fill="white"/>
<path d="M111.863 88.609L110.931 87.3994L111.929 86.6302L109.231 83.1283L108.233 83.8975L107.3 82.6879L110.743 80.0348L111.675 81.2444L110.669 82.0201L113.367 85.522L114.374 84.7463L115.306 85.9559L111.863 88.609Z" fill="white"/>
<path d="M117.96 83.911L114.374 79.2587L112.615 80.6146L111.637 79.3458L116.636 75.4932L117.614 76.762L115.812 78.1505L119.398 82.8028L117.96 83.911Z" fill="white"/>
<path d="M133.827 65.1565L135.533 65.1024L135.533 65.1024C135.597 65.1004 135.66 65.118 135.714 65.1529C135.768 65.1878 135.809 65.2383 135.834 65.2977L136.61 67.1985C136.637 67.2654 136.691 67.3177 136.759 67.3427C136.826 67.3677 136.901 67.363 136.965 67.3299C137.029 67.2967 137.076 67.2381 137.095 67.1684L137.581 65.3761C137.599 65.3098 137.638 65.2512 137.692 65.2093C137.746 65.1674 137.813 65.1444 137.881 65.1439L139.733 65.1295C139.805 65.129 139.874 65.0981 139.922 65.0444C139.97 64.9908 139.994 64.9193 139.987 64.8473C139.98 64.7753 139.943 64.7096 139.886 64.6661L138.251 63.4291C138.2 63.3904 138.162 63.3371 138.142 63.2761C138.122 63.2151 138.121 63.1496 138.139 63.0881L138.626 61.4465C138.647 61.3768 138.637 61.3016 138.599 61.2396C138.561 61.1776 138.499 61.1347 138.428 61.1215C138.356 61.1083 138.283 61.1261 138.225 61.1705L136.813 62.2619C136.76 62.3029 136.696 62.3258 136.629 62.3273C136.562 62.3288 136.496 62.3088 136.441 62.2702L134.921 61.1984C134.86 61.156 134.785 61.1416 134.713 61.1587C134.642 61.1759 134.581 61.2229 134.546 61.2879C134.512 61.3529 134.506 61.4298 134.532 61.499L135.178 63.247C135.201 63.31 135.204 63.3788 135.185 63.4433C135.167 63.5078 135.128 63.5647 135.075 63.6057L133.663 64.6974C133.605 64.7419 133.569 64.8086 133.564 64.8811C133.559 64.9536 133.584 65.025 133.634 65.0775C133.684 65.13 133.754 65.1587 133.827 65.1564L133.827 65.1565Z" fill="white"/>
<path d="M61.9482 120.719L61.4612 122.36L61.4612 122.36C61.443 122.422 61.4439 122.487 61.4639 122.548C61.4839 122.609 61.5219 122.663 61.573 122.701L63.2078 123.938C63.2654 123.982 63.302 124.047 63.3089 124.119C63.3157 124.191 63.2921 124.263 63.2439 124.317C63.1956 124.37 63.1271 124.401 63.055 124.402L61.2034 124.416C61.1349 124.417 61.0685 124.44 61.0143 124.481C60.96 124.523 60.921 124.582 60.903 124.648L60.4174 126.44C60.3985 126.51 60.3513 126.569 60.2872 126.602C60.2232 126.635 60.1483 126.64 60.0806 126.615C60.013 126.59 59.959 126.538 59.9317 126.471L59.1556 124.57C59.1314 124.51 59.0896 124.46 59.036 124.425C58.9823 124.39 58.9193 124.372 58.8554 124.375L57.1487 124.429C57.0762 124.431 57.0062 124.402 56.9561 124.35C56.906 124.297 56.8805 124.226 56.8859 124.153C56.8914 124.081 56.9273 124.014 56.9847 123.97L58.3967 122.878C58.4497 122.837 58.4883 122.78 58.5067 122.716C58.5252 122.651 58.5226 122.582 58.4994 122.519L57.8535 120.771C57.828 120.702 57.8333 120.625 57.8681 120.56C57.9028 120.495 57.9636 120.448 58.0352 120.431C58.1067 120.414 58.1821 120.428 58.2424 120.471L59.7631 121.543C59.8179 121.581 59.8835 121.601 59.9504 121.6C60.0173 121.598 60.082 121.575 60.135 121.534L61.5474 120.443C61.6049 120.398 61.6783 120.38 61.7496 120.394C61.8209 120.407 61.8832 120.45 61.921 120.512C61.9589 120.574 61.9688 120.649 61.9481 120.719L61.9482 120.719Z" fill="white"/>
<path fill-rule="evenodd" clip-rule="evenodd" d="M117.788 52.9294L54.4549 101.738L79.1155 133.737L142.449 84.9287L117.788 52.9294ZM118.168 52.6369L128.037 45.0307C129.504 43.9 131.61 44.1728 132.741 45.6399L153.307 72.3263C154.438 73.7935 154.165 75.8993 152.698 77.03L142.828 84.6362L118.168 52.6369ZM143.121 85.0157L152.99 77.4095C154.667 76.1173 154.979 73.7106 153.687 72.0339L133.12 45.3474C131.828 43.6707 129.422 43.359 127.745 44.6512L44.0875 109.123C42.4108 110.415 42.0991 112.821 43.3912 114.498L63.9574 141.185C65.2495 142.861 67.6563 143.173 69.333 141.881L79.0284 134.409L79.0286 134.409L79.408 134.117L79.4079 134.117L142.741 85.3082L142.741 85.3086L143.121 85.0161L143.121 85.0157ZM78.736 134.029L54.0754 102.03L44.3799 109.502C42.9128 110.633 42.6401 112.739 43.7707 114.206L64.3369 140.892C65.4675 142.359 67.5734 142.632 69.0405 141.501L78.736 134.029Z" fill="white"/>
<path opacity="0.2" d="M54.0942 101.411L117.426 52.604L142.255 84.8226L78.9238 133.63L54.0942 101.411Z" fill="white"/>
</g>
</g>
<defs>
<filter id="filter0_d_18585_112035" x="30.2402" y="64.7175" width="153.503" height="107.22" filterUnits="userSpaceOnUse" color-interpolation-filters="sRGB">
<feFlood flood-opacity="0" result="BackgroundImageFix"/>
<feColorMatrix in="SourceAlpha" type="matrix" values="0 0 0 0 0 0 0 0 0 0 0 0 0 0 0 0 0 0 127 0" result="hardAlpha"/>
<feOffset dx="1.168" dy="2.92"/>
<feGaussianBlur stdDeviation="5.84"/>
<feComposite in2="hardAlpha" operator="out"/>
<feColorMatrix type="matrix" values="0 0 0 0 0 0 0 0 0 0 0 0 0 0 0 0 0 0 0.12 0"/>
<feBlend mode="normal" in2="BackgroundImageFix" result="effect1_dropShadow_18585_112035"/>
<feBlend mode="normal" in="SourceGraphic" in2="effect1_dropShadow_18585_112035" result="shape"/>
</filter>
<filter id="filter1_d_18585_112035" x="29.8391" y="64.3142" width="154.306" height="108.027" filterUnits="userSpaceOnUse" color-interpolation-filters="sRGB">
<feFlood flood-opacity="0" result="BackgroundImageFix"/>
<feColorMatrix in="SourceAlpha" type="matrix" values="0 0 0 0 0 0 0 0 0 0 0 0 0 0 0 0 0 0 127 0" result="hardAlpha"/>
<feOffset dx="1.168" dy="2.92"/>
<feGaussianBlur stdDeviation="5.84"/>
<feComposite in2="hardAlpha" operator="out"/>
<feColorMatrix type="matrix" values="0 0 0 0 0 0 0 0 0 0 0 0 0 0 0 0 0 0 0.1 0"/>
<feBlend mode="normal" in2="BackgroundImageFix" result="effect1_dropShadow_18585_112035"/>
<feBlend mode="normal" in="SourceGraphic" in2="effect1_dropShadow_18585_112035" result="shape"/>
</filter>
<filter id="filter2_d_18585_112035" x="17.1965" y="20.8157" width="163.783" height="150.162" filterUnits="userSpaceOnUse" color-interpolation-filters="sRGB">
<feFlood flood-opacity="0" result="BackgroundImageFix"/>
<feColorMatrix in="SourceAlpha" type="matrix" values="0 0 0 0 0 0 0 0 0 0 0 0 0 0 0 0 0 0 127 0" result="hardAlpha"/>
<feOffset dx="1.168" dy="2.92"/>
<feGaussianBlur stdDeviation="5.84"/>
<feComposite in2="hardAlpha" operator="out"/>
<feColorMatrix type="matrix" values="0 0 0 0 0 0 0 0 0 0 0 0 0 0 0 0 0 0 0.12 0"/>
<feBlend mode="normal" in2="BackgroundImageFix" result="effect1_dropShadow_18585_112035"/>
<feBlend mode="normal" in="SourceGraphic" in2="effect1_dropShadow_18585_112035" result="shape"/>
</filter>
<linearGradient id="paint0_linear_18585_112035" x1="150.433" y1="65.6587" x2="44.4676" y2="171.514" gradientUnits="userSpaceOnUse">
<stop stop-color="#AE73FF"/>
<stop offset="1" stop-color="#0AF0F3"/>
</linearGradient>
<linearGradient id="paint1_linear_18585_112035" x1="33.9352" y1="105.964" x2="101.06" y2="186.117" gradientUnits="userSpaceOnUse">
<stop stop-color="white"/>
<stop offset="1" stop-color="white" stop-opacity="0"/>
</linearGradient>
<linearGradient id="paint2_linear_18585_112035" x1="124.462" y1="23.2315" x2="56.5501" y2="176.106" gradientUnits="userSpaceOnUse">
<stop stop-color="#AE73FF"/>
<stop offset="1" stop-color="#0AF0F3"/>
</linearGradient>
<clipPath id="clip0_18585_112035">
<rect width="152" height="152" fill="white" transform="translate(24 24)"/>
</clipPath>
</defs>
</svg>
