<svg width="169" height="119" viewBox="0 0 169 119" fill="none" xmlns="http://www.w3.org/2000/svg">
<path d="M45.5156 0L31.7746 45.1491C-20.0487 50.6455 2.98388 59.8716 20.9781 63.7976C37.9908 67.0693 85.5609 71.6496 139.74 63.7976C193.919 55.9456 159.697 48.0936 135.814 45.1491L122.073 0C101.658 4.71121 62.5283 1.963 45.5156 0Z" fill="#2E3648"/>
<path fill-rule="evenodd" clip-rule="evenodd" d="M25.8856 77.5386C24.2498 87.0265 26.2782 107.965 47.4787 115.817C68.6791 123.669 80.5226 115.163 83.7943 109.928V80.4831L25.8856 77.5386ZM83.7943 80.4831L141.703 77.5386C143.339 87.0265 141.31 107.965 120.11 115.817C98.9096 123.669 87.066 115.163 83.7943 109.928V80.4831Z" fill="#2E3648"/>
<path d="M70.0531 95.2056C72.0161 102.076 65.7614 103.058 59.2566 103.058C52.7517 103.058 45.5155 97.3739 45.5155 95.2056C43.5527 90.2981 47.4785 91.2796 58.2751 91.2796C66.1273 91.2796 70.0531 93.0373 70.0531 95.2056Z" fill="#F0F0F3"/>
<path d="M97.9015 95.2858C95.9385 102.156 102.193 103.138 108.698 103.138C115.203 103.138 122.439 97.454 122.439 95.2858C124.402 90.3783 120.476 91.3598 109.68 91.3598C101.827 91.3598 97.9015 93.1175 97.9015 95.2858Z" fill="#F0F0F3"/>
</svg>
