<svg width="24" height="24" viewBox="0 0 24 24" fill="none" xmlns="http://www.w3.org/2000/svg">
<path d="M12 7C13.1046 7 14 6.10457 14 5C14 3.89543 13.1046 3 12 3C10.8954 3 10 3.89543 10 5C10 6.10457 10.8954 7 12 7Z" stroke="#F0F0F3" stroke-width="1.5" stroke-linecap="round" stroke-linejoin="round"/>
<path d="M20 12.5V17.25C20.0066 17.3611 19.9877 17.4722 19.945 17.575C19.8783 17.7358 19.7543 17.8662 19.597 17.941L14.135 20.521C13.4675 20.8364 12.7383 21 12 21C11.2617 21 10.5326 20.8364 9.86501 20.521L4.40301 17.941C4.27411 17.8799 4.16677 17.7812 4.09518 17.6578C4.02358 17.5344 3.99109 17.3922 4.00201 17.25L4.00001 12.5" stroke="#F0F0F3" stroke-width="1.5" stroke-linecap="round" stroke-linejoin="round"/>
<path d="M4.43097 12.216L10.065 9.884C11.3041 9.37175 12.6958 9.37175 13.935 9.884L19.569 12.216C19.6938 12.267 19.801 12.3534 19.8774 12.4644C19.9538 12.5755 19.9961 12.7065 19.9991 12.8413C20.002 12.9761 19.9656 13.1088 19.8941 13.2232C19.8227 13.3376 19.7194 13.4285 19.597 13.485L14.135 16.028C13.4662 16.339 12.7375 16.5001 12 16.5001C11.2624 16.5001 10.5338 16.339 9.86497 16.028L4.40297 13.485C4.27986 13.429 4.17589 13.3381 4.10394 13.2236C4.032 13.1091 3.99523 12.976 3.99821 12.8408C4.0012 12.7056 4.04379 12.5742 4.12071 12.463C4.19764 12.3517 4.30552 12.2655 4.43097 12.215V12.216Z" stroke="#F0F0F3" stroke-width="1.5" stroke-linecap="round" stroke-linejoin="round"/>
<path d="M12 7V13" stroke="#F0F0F3" stroke-width="1.5" stroke-linecap="round" stroke-linejoin="round"/>
</svg>
