<svg width="24" height="24" viewBox="0 0 24 24" fill="none" xmlns="http://www.w3.org/2000/svg">
<path d="M20 17.2513V17.2453L20 6.74999C20 5.50736 19.4304 4.78328 18.7633 4.39936C18.1365 4.03863 17.4706 4.00265 17.2515 4.00002V3.99999H17.2455H6.75017C5.50765 3.99999 4.78355 4.56924 4.39958 5.23617C4.03882 5.8628 4.00284 6.52854 4.00021 6.74767L4.00017 6.74767V6.75367V17.2498C4.00017 18.4923 4.56942 19.2164 5.23635 19.6004C5.86298 19.9612 6.52873 19.9972 6.74785 19.9998L6.74785 19.9998H6.75386H17.25C18.4926 19.9998 19.2167 19.4303 19.6006 18.7632C19.9614 18.1363 19.9973 17.4704 20 17.2513L20 17.2513ZM12.25 11.25V11.75H12.75H16V12.25H12.75H12.25V12.75V16H11.75V12.75V12.25H11.25H8V11.75H11.25H11.75V11.25V8.00003H12.25V11.25ZM6.75 3.50003H17.25C17.8164 3.50003 18.6441 3.67513 19.3163 4.16639C19.964 4.63979 20.5 5.42788 20.5 6.75003V17.25C20.5 17.8165 20.3249 18.6441 19.8336 19.3163C19.3602 19.964 18.5721 20.5 17.25 20.5H6.75C6.18356 20.5 5.3559 20.3249 4.68375 19.8337C4.03603 19.3603 3.5 18.5722 3.5 17.25V6.75003C3.5 6.18359 3.67509 5.35593 4.16635 4.68378C4.63976 4.03606 5.42785 3.50003 6.75 3.50003Z" fill="black" stroke="black"/>
</svg>
