<svg width="21" height="20" viewBox="0 0 21 20" fill="none" xmlns="http://www.w3.org/2000/svg">
<path d="M10.3883 12.1163C13.2476 12.1163 15.6891 12.5697 15.6891 14.3836C15.6891 16.1968 13.2633 16.6667 10.3883 16.6667C7.52897 16.6667 5.08751 16.2134 5.08751 14.4001C5.08751 12.5862 7.5133 12.1163 10.3883 12.1163ZM14.96 11.0241C16.0531 11.0038 17.2283 11.1539 17.6626 11.2605C18.5826 11.4413 19.1878 11.8106 19.4385 12.3472C19.6504 12.7877 19.6504 13.2988 19.4385 13.7386C19.055 14.5709 17.8186 14.8381 17.338 14.9072C17.2388 14.9222 17.159 14.8359 17.1694 14.7361C17.4149 12.4298 15.4622 11.3363 14.957 11.0849C14.9354 11.0736 14.9309 11.0563 14.9331 11.0458C14.9346 11.0383 14.9436 11.0263 14.96 11.0241ZM5.69625 11.0225L5.9021 11.0244C5.91851 11.0266 5.92672 11.0386 5.92821 11.0454C5.93045 11.0566 5.92598 11.0731 5.90508 11.0852C5.39918 11.3366 3.44646 12.4301 3.69195 14.7356C3.70239 14.8362 3.6233 14.9217 3.52406 14.9075C3.04353 14.8384 1.80712 14.5712 1.42359 13.7389C1.21093 13.2984 1.21093 12.788 1.42359 12.3475C1.67431 11.8109 2.2787 11.4416 3.19873 11.26C3.63374 11.1542 4.80821 11.0041 5.9021 11.0244L5.69625 11.0225ZM10.3883 3.33333C12.335 3.33333 13.896 4.90189 13.896 6.8607C13.896 8.81877 12.335 10.3888 10.3883 10.3888C8.44153 10.3888 6.88055 8.81877 6.88055 6.8607C6.88055 4.90189 8.44153 3.33333 10.3883 3.33333ZM15.1503 3.92157C17.0306 3.92157 18.5073 5.70102 18.0044 7.68311C17.6649 9.01751 16.4359 9.90385 15.0667 9.86783C14.9294 9.86408 14.7943 9.85132 14.6638 9.8288C14.569 9.81229 14.5212 9.70497 14.575 9.62542C15.0973 8.8524 15.395 7.92252 15.395 6.92435C15.395 5.88265 15.0697 4.91149 14.5048 4.11521C14.4869 4.09044 14.4735 4.05216 14.4914 4.02364C14.5063 4.00038 14.5339 3.98837 14.56 3.98237C14.7503 3.94334 14.9458 3.92157 15.1503 3.92157ZM5.71071 3.9215C5.91516 3.9215 6.11065 3.94326 6.30167 3.98229C6.32704 3.98829 6.3554 4.00105 6.37032 4.02357C6.38748 4.05209 6.3748 4.09036 6.35689 4.11513C5.79204 4.91142 5.46671 5.88257 5.46671 6.92427C5.46671 7.92244 5.76443 8.85232 6.28675 9.62534C6.34047 9.7049 6.29272 9.81222 6.19795 9.82873C6.06663 9.85199 5.93232 9.864 5.79502 9.86776C4.4258 9.90378 3.19686 9.01743 2.85736 7.68303C2.35369 5.70095 3.83036 3.9215 5.71071 3.9215Z" fill="#8595BC"/>
</svg>
