<svg width="20" height="20" viewBox="0 0 20 20" fill="none" xmlns="http://www.w3.org/2000/svg">
<path d="M15.5509 4.08982H4.43713V14.1976H15.5509V4.08982Z" fill="white"/>
<path fill-rule="evenodd" clip-rule="evenodd" d="M18.994 10.006C18.994 14.9733 14.9673 19 9.99999 19C5.03274 19 1.00598 14.9733 1.00598 10.006C1.00598 5.03873 5.03274 1.01197 9.99999 1.01197C14.9673 1.01197 18.994 5.03873 18.994 10.006ZM7.45135 13.5851H5.70586C5.33908 13.5851 5.15791 13.5851 5.04744 13.5145C4.92813 13.4371 4.85522 13.309 4.84638 13.1675C4.83974 13.0372 4.93034 12.8781 5.11152 12.5599L9.42134 4.96329C9.60472 4.6407 9.69752 4.47941 9.81462 4.41976C9.94056 4.35569 10.0908 4.35569 10.2167 4.41976C10.3339 4.47941 10.4267 4.6407 10.61 4.96329L11.496 6.50993L11.5006 6.51782C11.6986 6.86389 11.7991 7.03939 11.8429 7.22358C11.8915 7.42464 11.8915 7.63675 11.8429 7.83782C11.7987 8.02341 11.6993 8.20018 11.4982 8.55148L9.2344 12.5533L9.22855 12.5636C9.02917 12.9125 8.92813 13.0893 8.78809 13.2228C8.63564 13.3686 8.45225 13.4746 8.25118 13.5344C8.06779 13.5851 7.86232 13.5851 7.45135 13.5851ZM11.8593 13.5851H14.3604C14.7293 13.5851 14.915 13.5851 15.0255 13.5123C15.1448 13.435 15.2199 13.3045 15.2266 13.1632C15.2329 13.0371 15.1443 12.8842 14.9707 12.5845C14.9647 12.5743 14.9587 12.5639 14.9526 12.5534L13.6998 10.4102L13.6855 10.386C13.5095 10.0883 13.4206 9.93801 13.3065 9.8799C13.1806 9.81582 13.0324 9.81582 12.9066 9.8799C12.7917 9.93955 12.6989 10.0964 12.5155 10.4124L11.2671 12.5556L11.2629 12.563C11.0801 12.8784 10.9888 13.036 10.9954 13.1654C11.0042 13.3068 11.0771 13.4371 11.1964 13.5145C11.3047 13.5851 11.4903 13.5851 11.8593 13.5851Z" fill="#E84142"/>
</svg>
