<svg width="32" height="32" viewBox="0 0 32 32" fill="none" xmlns="http://www.w3.org/2000/svg">
<path d="M6.66667 9.33325H8C8.70724 9.33325 9.38552 9.0523 9.88562 8.5522C10.3857 8.05211 10.6667 7.37383 10.6667 6.66659C10.6667 6.31296 10.8071 5.97383 11.0572 5.72378C11.3072 5.47373 11.6464 5.33325 12 5.33325H20C20.3536 5.33325 20.6928 5.47373 20.9428 5.72378C21.1929 5.97383 21.3333 6.31296 21.3333 6.66659C21.3333 7.37383 21.6143 8.05211 22.1144 8.5522C22.6145 9.0523 23.2928 9.33325 24 9.33325H25.3333C26.0406 9.33325 26.7189 9.6142 27.219 10.1143C27.719 10.6144 28 11.2927 28 11.9999V23.9999C28 24.7072 27.719 25.3854 27.219 25.8855C26.7189 26.3856 26.0406 26.6666 25.3333 26.6666H6.66667C5.95942 26.6666 5.28115 26.3856 4.78105 25.8855C4.28095 25.3854 4 24.7072 4 23.9999V11.9999C4 11.2927 4.28095 10.6144 4.78105 10.1143C5.28115 9.6142 5.95942 9.33325 6.66667 9.33325" stroke="#2E3648" stroke-width="1.5" stroke-linecap="round" stroke-linejoin="round"/>
<path d="M16 21.3333C18.2091 21.3333 20 19.5424 20 17.3333C20 15.1241 18.2091 13.3333 16 13.3333C13.7909 13.3333 12 15.1241 12 17.3333C12 19.5424 13.7909 21.3333 16 21.3333Z" stroke="#2E3648" stroke-width="1.5" stroke-linecap="round" stroke-linejoin="round"/>
</svg>
