<svg xmlns="http://www.w3.org/2000/svg" fill="none" viewBox="-145.1 -49.67 811.37 341.17">
<path d="M563.014 -6.46265C449.935 7.18 272.648 34.7893 362.84 121.945C477.617 232.856 758.096 203.801 633.526 289.406" stroke="white" stroke-opacity="0.12" stroke-width="3"/>
<path d="M522.606 -5.86743C409.526 7.77521 232.239 35.3845 322.432 122.54C437.208 233.452 717.687 204.396 593.117 290.001" stroke="white" stroke-opacity="0.12" stroke-width="3"/>
<path d="M482.259 -7.77783C369.179 5.86481 191.892 33.4741 282.085 120.63C396.861 231.541 677.34 202.485 552.77 288.09" stroke="white" stroke-opacity="0.12" stroke-width="3"/>
<path d="M442.102 -11.4529C329.023 2.18976 151.735 29.799 241.928 116.955C356.705 227.866 637.184 198.81 512.614 284.415" stroke="white" stroke-opacity="0.12" stroke-width="3"/>
<path d="M402.129 -16.2126C289.05 -2.57001 111.762 25.0393 201.955 112.195C316.732 223.106 597.21 194.051 472.64 279.656" stroke="white" stroke-opacity="0.12" stroke-width="3"/>
<path d="M362.262 -21.4985C249.182 -7.8559 71.8948 19.7534 162.088 106.909C276.865 217.82 557.343 188.765 432.773 274.37" stroke="white" stroke-opacity="0.12" stroke-width="3"/>
<path d="M322.407 -26.8726C209.327 -13.2299 32.0399 14.3794 122.233 101.535C237.01 212.446 517.488 183.391 392.918 268.996" stroke="white" stroke-opacity="0.12" stroke-width="3"/>
<path d="M282.507 -32.0066C169.428 -18.364 -7.86004 9.24533 82.3329 96.4008C197.11 207.312 477.588 178.257 353.018 263.862" stroke="white" stroke-opacity="0.12" stroke-width="3"/>
<path d="M242.515 -36.6609C129.435 -23.0182 -47.8522 4.59105 42.3407 91.7466C157.118 202.658 437.596 173.602 313.026 259.207" stroke="white" stroke-opacity="0.12" stroke-width="3"/>
<path d="M202.408 -40.6602C89.3284 -27.0175 -87.9592 0.591778 2.23376 87.7473C117.011 198.659 397.489 169.603 272.919 255.208" stroke="white" stroke-opacity="0.12" stroke-width="3"/>
<path d="M162.192 -43.8916C49.1121 -30.249 -128.175 -2.63967 -37.9825 84.5158C76.7943 195.427 357.273 166.372 232.703 251.977" stroke="white" stroke-opacity="0.12" stroke-width="3"/>
<path d="M121.637 -46.3071C8.55744 -32.6645 -168.73 -5.0552 -78.5372 82.1003C36.2396 193.012 316.718 163.956 192.148 249.561" stroke="white" stroke-opacity="0.12" stroke-width="3"/>
<path d="M81.2884 -48.1694C-31.791 -34.5268 -209.079 -6.91751 -118.886 80.238C-4.10876 191.15 276.37 162.094 151.8 247.699" stroke="white" stroke-opacity="0.12" stroke-width="3"/>
</svg>