<svg width="17" height="17" viewBox="0 0 17 17" fill="none" xmlns="http://www.w3.org/2000/svg">
<path d="M6.375 6.65825C6.375 6.20738 6.57078 5.77498 6.91927 5.45617C7.26776 5.13736 7.74042 4.95825 8.23326 4.95825H8.76419C9.25703 4.95825 9.72968 5.13736 10.0782 5.45617C10.4267 5.77498 10.6224 6.20738 10.6224 6.65825C10.642 7.02616 10.549 7.39089 10.3575 7.69751C10.166 8.00412 9.88629 8.23601 9.56058 8.35825C9.23487 8.52124 8.95519 8.83043 8.76368 9.23925C8.57216 9.64806 8.47917 10.1344 8.49872 10.6249" stroke="#4969F9" stroke-width="1.5" stroke-linecap="round" stroke-linejoin="round"/>
<path d="M8.5 13.0415V13.0493" stroke="#4969F9" stroke-width="1.5" stroke-linecap="round" stroke-linejoin="round"/>
<path d="M14.8333 8.85425C14.8333 12.5477 11.8392 15.5417 8.14583 15.5417C4.45242 15.5417 1.45833 12.5477 1.45833 8.85425C1.45833 5.16084 4.45242 2.16675 8.14583 2.16675C11.8392 2.16675 14.8333 5.16084 14.8333 8.85425Z" stroke="#4969F9" stroke-width="1.5"/>
</svg>
