<svg width="20" height="20" viewBox="0 0 20 20" fill="none" xmlns="http://www.w3.org/2000/svg">
<path d="M15 6.66667H8.33329C7.41282 6.66667 6.66663 7.41286 6.66663 8.33334V15C6.66663 15.9205 7.41282 16.6667 8.33329 16.6667H15C15.9204 16.6667 16.6666 15.9205 16.6666 15V8.33334C16.6666 7.41286 15.9204 6.66667 15 6.66667Z" stroke="#4969F9" stroke-width="1.5" stroke-linecap="round" stroke-linejoin="round"/>
<path d="M13.3334 6.66666V4.99999C13.3334 4.55797 13.1578 4.13404 12.8452 3.82148C12.5327 3.50892 12.1087 3.33333 11.6667 3.33333H5.00004C4.55801 3.33333 4.13409 3.50892 3.82153 3.82148C3.50897 4.13404 3.33337 4.55797 3.33337 4.99999V11.6667C3.33337 12.1087 3.50897 12.5326 3.82153 12.8452C4.13409 13.1577 4.55801 13.3333 5.00004 13.3333H6.66671" stroke="#4969F9" stroke-width="1.5" stroke-linecap="round" stroke-linejoin="round"/>
</svg>
