<svg width="20" height="21" viewBox="0 0 20 21" fill="none" xmlns="http://www.w3.org/2000/svg">
<path d="M15 7.16675H8.33329C7.41282 7.16675 6.66663 7.91294 6.66663 8.83342V15.5001C6.66663 16.4206 7.41282 17.1668 8.33329 17.1668H15C15.9204 17.1668 16.6666 16.4206 16.6666 15.5001V8.83342C16.6666 7.91294 15.9204 7.16675 15 7.16675Z" stroke="#2E3648" stroke-width="1.5" stroke-linecap="round" stroke-linejoin="round"/>
<path d="M13.3334 7.16658V5.49992C13.3334 5.05789 13.1578 4.63397 12.8452 4.32141C12.5327 4.00885 12.1087 3.83325 11.6667 3.83325H5.00004C4.55801 3.83325 4.13409 4.00885 3.82153 4.32141C3.50897 4.63397 3.33337 5.05789 3.33337 5.49992V12.1666C3.33337 12.6086 3.50897 13.0325 3.82153 13.3451C4.13409 13.6577 4.55801 13.8333 5.00004 13.8333H6.66671" stroke="#2E3648" stroke-width="1.5" stroke-linecap="round" stroke-linejoin="round"/>
</svg>
