<svg width="24" height="24" viewBox="0 0 24 24" fill="none" xmlns="http://www.w3.org/2000/svg">
<path d="M15 17L17 19L19 17" stroke="#4969F9" stroke-width="1.5" stroke-linecap="round" stroke-linejoin="round"/>
<path d="M9.5 5H5.5C5.22386 5 5 5.22386 5 5.5V9.5C5 9.77614 5.22386 10 5.5 10H9.5C9.77614 10 10 9.77614 10 9.5V5.5C10 5.22386 9.77614 5 9.5 5Z" stroke="#4969F9" stroke-width="1.5" stroke-linecap="round" stroke-linejoin="round"/>
<path d="M9.5 14H5.5C5.22386 14 5 14.2239 5 14.5V18.5C5 18.7761 5.22386 19 5.5 19H9.5C9.77614 19 10 18.7761 10 18.5V14.5C10 14.2239 9.77614 14 9.5 14Z" stroke="#4969F9" stroke-width="1.5" stroke-linecap="round" stroke-linejoin="round"/>
<path d="M17 6V18" stroke="#4969F9" stroke-width="1.5" stroke-linecap="round" stroke-linejoin="round"/>
</svg>
