<svg width="22" height="17" viewBox="0 0 22 17" fill="none" xmlns="http://www.w3.org/2000/svg">
<path d="M18.6239 1.40921C17.2217 0.756946 15.7181 0.27639 14.1459 0.00115457C14.1173 -0.00415737 14.0887 0.00911747 14.0739 0.0356678C13.8805 0.384356 13.6663 0.839249 13.5163 1.19679C11.8254 0.940147 10.1431 0.940147 8.48679 1.19679C8.33676 0.831301 8.11478 0.384356 7.92053 0.0356678C7.90578 0.0100033 7.87718 -0.00327153 7.84855 0.00115457C6.27725 0.27551 4.7736 0.756067 3.37052 1.40921C3.35838 1.41452 3.34797 1.42337 3.34106 1.43487C0.488942 5.75461 -0.292371 9.96817 0.0909151 14.1295C0.0926494 14.1498 0.103922 14.1693 0.119532 14.1817C2.00127 15.5827 3.82406 16.4332 5.61301 16.9969C5.64164 17.0058 5.67197 16.9951 5.69019 16.9712C6.11337 16.3854 6.49059 15.7676 6.81402 15.118C6.83311 15.08 6.81489 15.0348 6.77588 15.0198C6.17754 14.7897 5.6078 14.5091 5.05975 14.1906C5.0164 14.1649 5.01293 14.102 5.05281 14.0719C5.16814 13.9843 5.2835 13.8932 5.39363 13.8011C5.41355 13.7843 5.44131 13.7808 5.46474 13.7914C9.06518 15.4579 12.9631 15.4579 16.521 13.7914C16.5445 13.7799 16.5722 13.7834 16.593 13.8002C16.7032 13.8923 16.8185 13.9843 16.9347 14.0719C16.9746 14.102 16.972 14.1649 16.9286 14.1906C16.3806 14.5153 15.8108 14.7897 15.2116 15.0189C15.1726 15.034 15.1553 15.08 15.1744 15.118C15.5047 15.7667 15.882 16.3845 16.2973 16.9704C16.3147 16.9951 16.3459 17.0058 16.3745 16.9969C18.1721 16.4332 19.9949 15.5827 21.8766 14.1817C21.8931 14.1693 21.9035 14.1507 21.9053 14.1304C22.364 9.31942 21.1369 5.14042 18.6525 1.43575C18.6465 1.42337 18.6361 1.41452 18.6239 1.40921ZM7.35169 11.5957C6.26771 11.5957 5.37454 10.5868 5.37454 9.34776C5.37454 8.10873 6.25039 7.09984 7.35169 7.09984C8.46163 7.09984 9.34616 8.11759 9.32881 9.34776C9.32881 10.5868 8.45296 11.5957 7.35169 11.5957ZM14.6619 11.5957C13.5779 11.5957 12.6847 10.5868 12.6847 9.34776C12.6847 8.10873 13.5606 7.09984 14.6619 7.09984C15.7718 7.09984 16.6563 8.11759 16.639 9.34776C16.639 10.5868 15.7718 11.5957 14.6619 11.5957Z" fill="#5865F2"/>
</svg>
