<svg width="25" height="25" viewBox="0 0 25 25" fill="none" xmlns="http://www.w3.org/2000/svg">
<path d="M15.625 21.875H6.25C5.4212 21.875 4.62634 21.5458 4.04029 20.9597C3.45424 20.3737 3.125 19.5788 3.125 18.75V17.7083H13.5417V19.7917C13.5417 20.3442 13.7612 20.8741 14.1519 21.2648C14.5426 21.6555 15.0725 21.875 15.625 21.875ZM15.625 21.875C16.1775 21.875 16.7074 21.6555 17.0981 21.2648C17.4888 20.8741 17.7083 20.3442 17.7083 19.7917V5.20833C17.7083 4.79629 17.8305 4.3935 18.0594 4.0509C18.2884 3.70829 18.6137 3.44127 18.9944 3.28359C19.3751 3.1259 19.794 3.08465 20.1981 3.16503C20.6022 3.24542 20.9734 3.44384 21.2648 3.73519C21.5562 4.02655 21.7546 4.39777 21.835 4.8019C21.9154 5.20602 21.8741 5.62491 21.7164 6.00559C21.5587 6.38627 21.2917 6.71164 20.9491 6.94056C20.6065 7.16948 20.2037 7.29167 19.7917 7.29167H17.7083L15.625 21.875ZM19.7917 3.125H8.33333C7.50453 3.125 6.70968 3.45424 6.12362 4.04029C5.53757 4.62634 5.20833 5.4212 5.20833 6.25V17.7083" stroke="#2E3648" stroke-width="1.5" stroke-linecap="round" stroke-linejoin="round"/>
<path d="M9.375 7.29167H13.5417" stroke="#2E3648" stroke-width="1.5" stroke-linecap="round" stroke-linejoin="round"/>
<path d="M9.375 11.4583H13.5417" stroke="#2E3648" stroke-width="1.5" stroke-linecap="round" stroke-linejoin="round"/>
</svg>
