<svg width="24" height="24" viewBox="0 0 24 24" fill="none" xmlns="http://www.w3.org/2000/svg">
<path d="M16.3528 8.30572C16.1814 7.8194 15.8684 7.39549 15.454 7.08857C15.0397 6.78164 14.5429 6.60574 14.0278 6.5835H10.5833C9.89819 6.5835 9.24111 6.85567 8.75664 7.34014C8.27217 7.82461 8 8.48169 8 9.16683C8 9.85197 8.27217 10.5091 8.75664 10.9935C9.24111 11.478 9.89819 11.7502 10.5833 11.7502H14.0278C14.7129 11.7502 15.37 12.0223 15.8545 12.5068C16.3389 12.9913 16.6111 13.6484 16.6111 14.3335C16.6111 15.0186 16.3389 15.6757 15.8545 16.1602C15.37 16.6447 14.7129 16.9168 14.0278 16.9168H10.5833C10.0682 16.8946 9.57145 16.7187 9.1571 16.4118C8.74275 16.1048 8.42973 15.6809 8.25833 15.1946" stroke="#2C3E50" stroke-width="1.5" stroke-linecap="round" stroke-linejoin="round"/>
<path d="M12.3055 4V6.58333M12.3055 16.9167V19.5" stroke="#2C3E50" stroke-width="1.5" stroke-linecap="round" stroke-linejoin="round"/>
</svg>
