<svg width="20" height="20" viewBox="0 0 20 20" fill="none" xmlns="http://www.w3.org/2000/svg">
<path d="M9.99967 5.83333C10.9201 5.83333 11.6663 5.08714 11.6663 4.16667C11.6663 3.24619 10.9201 2.5 9.99967 2.5C9.0792 2.5 8.33301 3.24619 8.33301 4.16667C8.33301 5.08714 9.0792 5.83333 9.99967 5.83333Z" stroke="#8595BC" stroke-width="1.5" stroke-linecap="round" stroke-linejoin="round"/>
<path d="M16.6664 10.4167V14.3751C16.6719 14.4677 16.6562 14.5603 16.6206 14.6459C16.5649 14.78 16.4616 14.8886 16.3306 14.9509L11.7789 17.1009C11.2226 17.3637 10.615 17.5 9.99973 17.5C9.38447 17.5 8.77686 17.3637 8.22056 17.1009L3.6689 14.9509C3.56148 14.9 3.47204 14.8177 3.41237 14.7149C3.35271 14.6121 3.32564 14.4936 3.33473 14.3751L3.33306 10.4167" stroke="#8595BC" stroke-width="1.5" stroke-linecap="round" stroke-linejoin="round"/>
<path d="M3.6928 10.18L8.3878 8.23666C9.42043 7.80979 10.5802 7.80979 11.6128 8.23666L16.3078 10.18C16.4118 10.2225 16.5011 10.2945 16.5648 10.387C16.6285 10.4796 16.6637 10.5888 16.6662 10.7011C16.6687 10.8134 16.6383 10.924 16.5788 11.0193C16.5192 11.1146 16.4332 11.1904 16.3311 11.2375L11.7795 13.3567C11.2221 13.6158 10.6149 13.75 10.0003 13.75C9.38568 13.75 8.77847 13.6158 8.22114 13.3567L3.66947 11.2375C3.56688 11.1908 3.48024 11.1151 3.42028 11.0197C3.36032 10.9242 3.32969 10.8133 3.33217 10.7006C3.33466 10.588 3.37015 10.4785 3.43425 10.3858C3.49836 10.2931 3.58826 10.2213 3.6928 10.1792V10.18Z" stroke="#8595BC" stroke-width="1.5" stroke-linecap="round" stroke-linejoin="round"/>
<path d="M10 5.83325V10.8333" stroke="#8595BC" stroke-width="1.5" stroke-linecap="round" stroke-linejoin="round"/>
</svg>
