<svg width="20" height="20" viewBox="0 0 20 20" fill="none" xmlns="http://www.w3.org/2000/svg">
<path d="M10 19C14.9706 19 19 14.9706 19 10C19 5.02944 14.9706 1 10 1C5.02944 1 1 5.02944 1 10C1 14.9706 5.02944 19 10 19Z" fill="#13B5EC"/>
<path fill-rule="evenodd" clip-rule="evenodd" d="M10.675 8.25625L12.7 7.075V9.4375L10.675 8.25625ZM12.7 13.3187L10 14.8938L7.3 13.3187V10.5625L10 12.1375L12.7 10.5625V13.3187ZM7.3 7.075L9.325 8.25625L7.3 9.4375V7.075ZM10.3375 8.81875L12.3625 10L10.3375 11.1813V8.81875ZM9.6625 11.1813L7.6375 10L9.6625 8.81875V11.1813ZM12.3625 6.5125L10 7.8625L7.6375 6.5125L10 5.10625L12.3625 6.5125ZM6.625 6.2875V13.6562L10 15.5687L13.375 13.6562V6.2875L10 4.375L6.625 6.2875Z" fill="white"/>
</svg>
