<svg width="24" height="24" viewBox="0 0 24 24" fill="none" xmlns="http://www.w3.org/2000/svg">
<path d="M19.7777 8.28564H8.66656C7.43926 8.28564 6.44434 9.24503 6.44434 10.4285V16.8571C6.44434 18.0405 7.43926 18.9999 8.66656 18.9999H19.7777C21.005 18.9999 21.9999 18.0405 21.9999 16.8571V10.4285C21.9999 9.24503 21.005 8.28564 19.7777 8.28564Z" stroke="#8595BC" stroke-width="1.5" stroke-linecap="round" stroke-linejoin="round"/>
<path d="M14.2222 15.7857C15.4495 15.7857 16.4445 14.8263 16.4445 13.6429C16.4445 12.4594 15.4495 11.5 14.2222 11.5C12.9949 11.5 12 12.4594 12 13.6429C12 14.8263 12.9949 15.7857 14.2222 15.7857Z" stroke="#8595BC" stroke-width="1.5" stroke-linecap="round" stroke-linejoin="round"/>
<path d="M17.5556 8.28571V6.14286C17.5556 5.57453 17.3215 5.02949 16.9047 4.62763C16.488 4.22576 15.9227 4 15.3334 4H4.22223C3.63285 4 3.06762 4.22576 2.65087 4.62763C2.23413 5.02949 2 5.57453 2 6.14286V12.5714C2 13.1397 2.23413 13.6848 2.65087 14.0866C3.06762 14.4885 3.63285 14.7143 4.22223 14.7143H6.44445" stroke="#8595BC" stroke-width="1.5" stroke-linecap="round" stroke-linejoin="round"/>
</svg>
