<svg width="18" height="18" viewBox="0 0 18 18" fill="none" xmlns="http://www.w3.org/2000/svg">
<path d="M11.0833 4.83341C12.2339 4.83341 13.1667 3.90067 13.1667 2.75008C13.1667 1.59949 12.2339 0.666748 11.0833 0.666748C9.93274 0.666748 9 1.59949 9 2.75008C9 3.90067 9.93274 4.83341 11.0833 4.83341Z" stroke="#2C3E50" stroke-width="1.28125" stroke-linecap="round" stroke-linejoin="round"/>
<path d="M0.666748 2.75H9.00008" stroke="#2C3E50" stroke-width="1.28125" stroke-linecap="round" stroke-linejoin="round"/>
<path d="M13.1667 2.75H17.3334" stroke="#2C3E50" stroke-width="1.28125" stroke-linecap="round" stroke-linejoin="round"/>
<path d="M4.83333 11.0834C5.98393 11.0834 6.91667 10.1507 6.91667 9.00008C6.91667 7.84949 5.98393 6.91675 4.83333 6.91675C3.68274 6.91675 2.75 7.84949 2.75 9.00008C2.75 10.1507 3.68274 11.0834 4.83333 11.0834Z" stroke="#2C3E50" stroke-width="1.28125" stroke-linecap="round" stroke-linejoin="round"/>
<path d="M0.666748 9H2.75008" stroke="#2C3E50" stroke-width="1.28125" stroke-linecap="round" stroke-linejoin="round"/>
<path d="M6.91675 9H17.3334" stroke="#2C3E50" stroke-width="1.28125" stroke-linecap="round" stroke-linejoin="round"/>
<path d="M14.2083 17.3334C15.3589 17.3334 16.2917 16.4007 16.2917 15.2501C16.2917 14.0995 15.3589 13.1667 14.2083 13.1667C13.0577 13.1667 12.125 14.0995 12.125 15.2501C12.125 16.4007 13.0577 17.3334 14.2083 17.3334Z" stroke="#2C3E50" stroke-width="1.28125" stroke-linecap="round" stroke-linejoin="round"/>
<path d="M0.666748 15.25H12.1251" stroke="#2C3E50" stroke-width="1.28125" stroke-linecap="round" stroke-linejoin="round"/>
<path d="M16.2917 15.25H17.3334" stroke="#2C3E50" stroke-width="1.28125" stroke-linecap="round" stroke-linejoin="round"/>
</svg>
