<svg width="24" height="24" viewBox="0 0 24 24" fill="none" xmlns="http://www.w3.org/2000/svg">
<path d="M13.969 15.9999C13.9711 16.0001 13.9735 16.0001 13.9763 16C13.9359 15.985 13.9186 15.9789 13.969 15.9999Z" fill="#8BC34A"/>
<path fill-rule="evenodd" clip-rule="evenodd" d="M21 11.4999C21 16.1948 17.1947 20.0003 12.4996 20.0003C7.80606 20.0002 4 16.1948 4 11.5C4.00007 6.80533 7.80606 3 12.4996 3C17.1947 3 21 6.80534 21 11.5V11.4999Z" fill="#0884DD"/>
<path fill-rule="evenodd" clip-rule="evenodd" d="M13.1996 9.90617L13.2375 9.90839L13.2618 9.90963L13.1996 9.90617ZM19.4013 11.6314C19.4013 11.6314 19.3484 11.6659 19.3188 11.689C19.2894 11.7117 19.2425 11.7063 19.16 11.7066C19.0776 11.7071 19.095 11.7243 19.0302 11.7246C18.9648 11.7249 18.9884 11.765 18.9289 11.7711C18.8694 11.7772 18.8274 11.7831 18.7916 11.7834C18.7555 11.7836 18.7562 11.7377 18.7323 11.7379L18.6978 11.7021L18.6969 11.692C18.6969 11.6746 18.6973 11.6458 18.6976 11.6114C18.6976 11.5768 18.6737 11.554 18.6436 11.5312C18.6135 11.5082 18.614 11.4851 18.5717 11.4391C18.5296 11.393 18.4695 11.3354 18.4083 11.324C18.3477 11.3122 18.4026 11.2894 18.3229 11.1852C18.2432 11.0808 18.2921 11.1446 18.2735 11.0691C18.2659 11.0395 18.2576 11.0272 18.2466 11.0187C18.2296 11.006 18.2057 11.0032 18.1685 10.9645C18.106 10.9 18.1186 10.9234 18.106 10.9C18.0936 10.8764 18.0987 10.8069 18.0982 10.7894C18.0982 10.772 18.0284 10.6372 18.0019 10.5726C17.9758 10.5077 17.9332 10.5424 17.9514 10.5248C17.9615 10.5155 17.9528 10.5039 17.9394 10.4803C17.9282 10.4604 17.9144 10.4323 17.9045 10.3893C17.8836 10.295 17.8379 10.2233 17.7791 10.1569C17.7206 10.0906 17.7396 10.1026 17.7379 10.0551C17.7368 10.0076 17.6325 9.92774 17.6314 9.89792C17.6305 9.86802 17.5967 9.81331 17.6101 9.83161C17.6233 9.84991 17.664 9.92259 17.6842 9.95287C17.704 9.9831 17.6913 9.97698 17.7754 10.044C17.8593 10.1113 17.7997 10.0271 17.8037 9.9616C17.8053 9.94159 17.8002 9.90975 17.7934 9.87544C17.7761 9.79678 17.7439 9.70339 17.7308 9.70293C17.712 9.70253 17.6991 9.6961 17.6481 9.69473C17.5981 9.69337 17.6098 9.68165 17.5592 9.68014C17.508 9.67865 17.5195 9.64283 17.4366 9.64036C17.3534 9.63781 17.3492 9.69192 17.2859 9.7144C17.2227 9.73654 17.108 9.6365 17.0752 9.62915C17.0424 9.62205 16.9445 9.62485 16.9183 9.62396C16.8997 9.62336 16.8832 9.60793 16.8618 9.59809L16.8312 9.59061C16.7917 9.5895 16.7032 9.54364 16.7032 9.54364C16.7033 9.54364 16.6695 9.52405 16.627 9.47957C16.5852 9.43514 16.5266 9.46994 16.4862 9.46824C16.4462 9.4668 16.4285 9.52157 16.3959 9.54502C16.3635 9.56813 16.4007 9.64315 16.4023 9.6862C16.4044 9.72892 16.3761 9.69767 16.343 9.72098C16.3104 9.74416 16.2279 9.7234 16.1856 9.69102C16.1432 9.65872 16.1712 9.66601 16.1349 9.63405C16.0996 9.60199 16.0039 9.61691 15.9763 9.61599C15.9488 9.61483 15.9345 9.61444 15.9249 9.55219C15.915 9.48979 15.8659 9.47559 15.8659 9.47559C15.8661 9.47553 15.754 9.45874 15.7046 9.45683C15.6557 9.45488 15.6127 9.44043 15.5775 9.43912L15.5245 9.40149L15.4754 9.37231C15.433 9.37062 15.4167 9.33238 15.4167 9.33238C15.4167 9.33238 15.3867 9.29963 15.3924 9.26232C15.3972 9.2246 15.4321 9.20748 15.4516 9.17683C15.4715 9.1464 15.433 9.09438 15.4178 9.07464L15.4632 8.99454C15.4632 8.99454 15.4013 9.02952 15.3995 8.99813C15.3977 8.96621 15.3118 8.94922 15.3118 8.94922C15.2812 8.95417 15.2504 8.95885 15.2196 8.96394C15.2196 8.96394 15.1482 8.96648 15.1266 8.96562C15.105 8.96439 15.0331 8.96733 15.0331 8.96733C14.9918 8.9651 14.9506 8.96315 14.909 8.9608C14.909 8.96073 14.8445 8.97052 14.7052 8.9823C14.5653 8.99454 14.5573 8.98757 14.535 8.98645C14.5127 8.98556 14.4608 8.99565 14.4608 8.99565C14.4608 8.99565 14.3714 9.00365 14.342 9.02156C14.3127 9.03921 14.3057 9.05816 14.2756 9.0566C14.2453 9.05504 14.215 9.05992 14.155 9.08258C14.0948 9.10519 14.155 9.08258 14.1335 9.10712L14.0907 9.13285L14.0652 9.1296C14.0266 9.12132 14.0266 9.11482 14.0032 9.10712C13.9798 9.0994 13.9568 9.10492 13.9258 9.10323C13.8947 9.10167 13.8562 9.09965 13.8251 9.09821C13.7936 9.09651 13.7461 9.06813 13.7461 9.06813C13.7461 9.06813 13.713 9.02136 13.6583 9.0118C13.6032 9.00248 13.612 9.03531 13.612 9.03531C13.612 9.03525 13.6053 9.06761 13.5977 9.093C13.5908 9.1186 13.56 9.14965 13.5612 9.18195C13.5619 9.21446 13.4986 9.21146 13.4831 9.2366C13.4679 9.262 13.4284 9.2603 13.3806 9.27736C13.333 9.2945 13.2926 9.28609 13.2614 9.33005C13.2299 9.37421 13.1899 9.40513 13.1823 9.43764C13.1753 9.4698 13.1426 9.48138 13.143 9.52041C13.144 9.55961 13.161 9.60605 13.161 9.60605L13.1538 9.65807C13.1538 9.65807 13.0888 9.70104 13.0895 9.7469C13.0902 9.79228 12.9666 9.78147 12.9663 9.78147C12.9666 9.78147 12.8759 9.81736 12.8511 9.84294C12.8263 9.86809 12.7594 9.87883 12.7343 9.88442L12.7332 9.88482C12.7105 9.89271 12.7502 9.97125 12.6171 10.0254C12.4824 10.0804 12.4823 10.1865 12.4651 10.2126C12.4481 10.2386 12.4396 10.2516 12.4054 10.2839C12.3711 10.316 12.3541 10.3818 12.3541 10.3818C12.3541 10.3818 12.2678 10.4596 12.2328 10.5122C12.1984 10.5645 12.2069 10.5383 12.1984 10.5847C12.1896 10.6312 12.2156 10.6318 12.2331 10.6652C12.2503 10.6989 12.2418 10.6921 12.2852 10.706C12.3287 10.7199 12.2852 10.7926 12.2852 10.8524C12.2852 10.9122 12.294 10.8857 12.294 10.9455C12.294 11.0051 12.2767 11.0248 12.2767 11.098C12.2767 11.1212 12.2767 11.1365 12.2763 11.1482C12.2751 11.1731 12.2712 11.1774 12.2593 11.1912L12.1806 11.3042C12.1806 11.3042 12.163 11.3439 12.163 11.3775C12.163 11.4108 12.163 11.4178 12.163 11.4575C12.163 11.4974 12.163 11.4575 12.1457 11.5176C12.1281 11.5779 12.1457 11.5176 12.137 11.5642C12.1281 11.6111 12.1984 11.6439 12.1984 11.6439L12.2027 11.6492L12.2331 11.6834C12.268 11.7232 12.3459 11.7023 12.3459 11.7023C12.3266 11.7422 12.3746 11.7664 12.4003 11.7763L12.4153 11.7813C12.4153 11.7813 12.4495 11.8339 12.4839 11.8533C12.518 11.8726 12.5096 11.8858 12.5606 11.9181C12.5922 11.9381 12.6137 11.973 12.6259 11.9967L12.6372 12.0224L12.637 12.1013C12.637 12.1212 12.6962 12.1527 12.7212 12.1722C12.7465 12.1912 12.7633 12.1973 12.8221 12.2225L12.8552 12.2406C12.8821 12.2599 12.8885 12.2797 12.9135 12.2989C12.9466 12.3247 13.0955 12.4183 13.095 12.4183C13.095 12.4182 13.1853 12.4614 13.2496 12.5051C13.3149 12.5486 13.339 12.5218 13.339 12.5218L13.3595 12.5184C13.3827 12.5143 13.4058 12.5103 13.4284 12.5064C13.4287 12.5062 13.5097 12.465 13.5336 12.4646C13.5577 12.4638 13.5906 12.4304 13.6779 12.428C13.7658 12.4259 13.7891 12.4253 13.8601 12.4232C13.9311 12.4214 13.8915 12.4415 13.9379 12.4595C13.9655 12.4701 13.9926 12.4672 14.011 12.4631L14.0317 12.4569C14.0579 12.4476 14.0843 12.4384 14.11 12.4294C14.11 12.4294 14.172 12.4149 14.1955 12.4015C14.2189 12.3882 14.2658 12.3614 14.3043 12.3606C14.3425 12.3595 14.3508 12.3279 14.3965 12.327C14.4424 12.3256 14.4426 12.2877 14.4429 12.2877L14.4686 12.2835C14.4996 12.2784 14.5494 12.2704 14.5796 12.2657L14.5853 12.265C14.6294 12.2587 14.6798 12.2633 14.7374 12.2621C14.7969 12.2606 14.7893 12.286 14.8697 12.334C14.9502 12.3821 14.8837 12.3836 14.8745 12.4403C14.8658 12.4967 14.8959 12.4897 14.9472 12.4883C14.9991 12.4868 15.0512 12.4605 15.0948 12.4593C15.1387 12.4581 15.2417 12.4181 15.2412 12.4181L15.2429 12.4198L15.2906 12.4788C15.2906 12.4788 15.326 12.5027 15.374 12.5759C15.4082 12.628 15.3919 12.6592 15.374 12.6867L15.3552 12.7193C15.3448 12.7444 15.3303 12.7837 15.3219 12.818L15.3143 12.8634C15.3124 12.9014 15.2612 12.934 15.2431 13.0285C15.2282 13.1082 15.3469 13.2439 15.4535 13.3381L15.5121 13.387C15.5396 13.4074 15.5575 13.4321 15.5709 13.4583C15.587 13.4899 15.5952 13.5247 15.6005 13.5595C15.6092 13.6191 15.61 13.6797 15.6272 13.7276C15.6635 13.827 15.7321 13.8363 15.6903 13.8382C15.6483 13.8403 15.6669 13.9917 15.7071 14.015C15.7469 14.0384 15.7507 14.1907 15.6591 14.3115C15.5801 14.4153 15.4903 14.6547 15.4505 14.8046C15.4441 14.8289 15.439 14.851 15.4354 14.869C15.4126 15.0004 15.6504 15.4255 15.649 15.4266C15.649 15.4262 15.6908 15.7066 15.6777 15.8313C15.6676 15.9346 15.7593 16.0525 15.7949 16.1129L15.8082 16.141C15.8172 16.1824 15.8059 16.2944 15.8856 16.4178C15.9658 16.5413 15.8333 16.6472 15.9091 16.8028C15.9842 16.9591 16.0581 16.8986 16.1735 16.8207C16.2893 16.7433 16.3474 16.8137 16.4011 16.8118C16.454 16.8098 16.582 16.732 16.6617 16.7288C16.7409 16.7257 16.7299 16.595 16.8946 16.531C17.0589 16.4665 17.0895 16.4216 17.131 16.2767C17.1726 16.1325 17.2682 16.0865 17.3665 16.0119C17.4517 15.9469 17.4547 15.9177 17.428 15.8288L17.4146 15.7863C17.3755 15.663 17.6397 15.5836 17.6394 15.5836C17.6842 15.5819 17.7226 15.5181 17.7472 15.3814C17.7718 15.2448 17.7667 15.1584 17.6971 15.0814C17.6272 15.0046 17.7311 14.9804 17.7782 14.9521C17.8244 14.9237 17.8654 14.889 17.9064 14.848C17.9475 14.807 17.9636 14.7605 17.9909 14.7336C18.0185 14.7065 18.1274 14.6699 18.1607 14.6426C18.1938 14.615 18.2592 14.574 18.3073 14.5081C18.3553 14.4419 18.3619 14.4353 18.3479 14.3656C18.3339 14.2962 18.353 14.2952 18.3617 14.1561C18.3705 14.0173 18.3842 13.9924 18.3842 13.9924C18.3842 13.9924 18.3734 13.9624 18.3608 13.9222C18.345 13.8722 18.3254 13.8061 18.3179 13.7591C18.304 13.6729 18.3245 13.6355 18.3018 13.5996C18.279 13.5635 18.2689 13.5272 18.2673 13.442C18.2652 13.3593 18.3211 13.4072 18.3268 13.3477L18.3272 13.3433C18.3305 13.2768 18.3379 13.2525 18.3758 13.2273C18.4137 13.2023 18.3684 13.1191 18.418 13.1063C18.4591 13.0953 18.5062 13.0307 18.5209 13.0091L18.5255 13.0019L18.6078 12.9228C18.6206 12.9045 18.7022 12.8083 18.7215 12.7727C18.7408 12.7369 18.8331 12.6764 18.8513 12.6583C18.8697 12.6406 18.9299 12.6337 18.9425 12.6102C18.9552 12.5863 19.041 12.4802 19.0714 12.4622C19.1015 12.4444 19.1621 12.3622 19.1872 12.31C19.2117 12.2575 19.2248 12.1996 19.2972 12.0784C19.3696 11.9567 19.3833 11.7111 19.4245 11.6598C19.4656 11.6083 19.4013 11.6315 19.4013 11.6314V11.6314Z" fill="#95CC56"/>
<path fill-rule="evenodd" clip-rule="evenodd" d="M6.49483 6.8865C6.49483 6.8865 6.54055 6.86847 6.56765 6.84984C6.59479 6.83174 6.66005 6.71953 6.67606 6.70508L6.49184 6.71569C6.46703 6.74911 6.40042 6.84593 6.38067 6.86906C6.36114 6.89249 6.36914 6.98973 6.34623 6.99851C6.32369 7.0073 6.27845 7.10889 6.2479 7.13534C6.21735 7.16237 6.1792 7.23686 6.1792 7.23666L6.2169 7.29756C6.2408 7.28856 6.26489 7.27951 6.28899 7.27006C6.3067 7.24109 6.32461 7.21212 6.34232 7.18261C6.3724 7.17108 6.40204 7.15968 6.43212 7.14817C6.4273 7.12478 6.42248 7.10115 6.41787 7.0777C6.41975 7.04905 6.42204 7.02014 6.42405 6.99122C6.44756 6.95651 6.4712 6.92168 6.49483 6.8865V6.8865Z" fill="#9DD45D"/>
<path fill-rule="evenodd" clip-rule="evenodd" d="M7.77694 6.98497C7.80702 6.97215 7.89064 7.00288 7.90991 7.03819C7.929 7.07374 7.93727 7.08443 7.97907 7.02308C8.0216 6.96121 7.98479 6.94036 8.08866 6.88841C8.193 6.83637 8.23128 6.78311 8.11023 6.7764C7.98917 6.76864 8.00688 6.7536 7.92002 6.74598C7.8332 6.73836 7.76613 6.80465 7.75303 6.76487C7.73969 6.72559 7.88764 6.66979 7.88784 6.66979C7.88791 6.66979 7.9908 6.57256 7.90971 6.59978C7.82793 6.62714 7.67371 6.63976 7.74724 6.60858C7.82031 6.57732 7.68888 6.5721 7.68915 6.57197L7.66023 6.51466C7.66023 6.51466 7.54483 6.52507 7.56692 6.49989C7.58854 6.47508 7.46884 6.49474 7.49157 6.47723C7.51502 6.45951 7.532 6.40534 7.51384 6.41281C7.49575 6.42063 7.37598 6.40025 7.29907 6.44042C7.22255 6.48067 7.28019 6.55862 7.31007 6.54619C7.34016 6.53343 7.38822 6.55218 7.38822 6.55218L7.30572 6.59463L7.16556 6.66867C7.17892 6.64784 7.1922 6.62662 7.20529 6.60551C7.21845 6.58162 7.23155 6.55829 7.24437 6.53454L7.23564 6.48289C7.19819 6.50137 7.16074 6.51948 7.12377 6.53766C7.09251 6.5531 7.06151 6.56871 7.03051 6.58422L6.97099 6.64022C6.98361 6.6063 6.99652 6.57197 7.00961 6.53766C6.98752 6.5678 6.96545 6.5979 6.94364 6.62785C6.92273 6.65306 6.96108 6.86209 6.9377 6.87081C6.91472 6.8804 6.85683 6.80361 6.85683 6.80361C6.85683 6.80361 6.89538 6.74182 6.903 6.71511C6.91056 6.68861 6.82876 6.65155 6.82876 6.65143C6.78767 6.70209 6.74722 6.7525 6.70705 6.80232C6.6836 6.82986 6.6599 6.85759 6.63672 6.88482C6.64016 6.91399 6.6438 6.9435 6.64753 6.97247C6.68224 6.96121 6.71689 6.95001 6.75205 6.93861C6.71786 6.96478 6.6838 6.9913 6.65008 7.0172L6.66569 7.06417C6.69396 7.05289 6.72241 7.04176 6.75113 7.03011C6.75113 7.03004 6.88209 7.0077 6.98042 6.96752C7.07895 6.92735 7.17266 6.88821 7.17266 6.88821C7.18738 6.8645 7.2021 6.84074 7.21682 6.81677C7.21656 6.81697 7.34935 6.81482 7.37142 6.86613C7.39304 6.91731 7.48103 6.91021 7.4893 6.95879C7.49776 7.0075 7.46793 7.05661 7.41622 7.08611C7.36432 7.11503 7.34179 7.23394 7.34179 7.23375C7.34179 7.23367 7.34342 7.27667 7.30253 7.29352C7.26162 7.31051 7.18028 7.30786 7.15411 7.33272C7.12768 7.35813 7.07415 7.4013 7.0744 7.4013C7.07415 7.40189 6.98661 7.55128 7.04934 7.52614C7.11185 7.50049 7.09095 7.48765 7.13085 7.4715C7.17038 7.45555 7.32935 7.34042 7.36224 7.44773C7.39467 7.55506 7.47712 7.52724 7.51366 7.51944C7.54991 7.5113 7.66088 7.52829 7.65717 7.50863C7.65353 7.48902 7.74523 7.46526 7.65261 7.41245C7.55982 7.35904 7.60136 7.30596 7.65353 7.34803C7.70595 7.38984 7.76658 7.40657 7.79094 7.32582C7.81529 7.24449 7.89501 7.21759 7.80702 7.16132C7.71995 7.10474 7.71396 7.07028 7.71396 7.07073C7.71377 7.07073 7.74659 6.998 7.77694 6.98497H7.77694Z" fill="#9DD45D"/>
<path fill-rule="evenodd" clip-rule="evenodd" d="M8.16448 8.37208C8.06269 8.41948 8.06296 8.41928 8.06296 8.41928L8.07142 8.42866C8.07142 8.42866 7.99634 8.50374 7.972 8.57018C7.94783 8.63633 7.92028 8.68473 7.88146 8.71227C7.84312 8.74034 7.82031 8.89122 7.82031 8.8909C7.82058 8.89084 7.81967 8.89122 7.96119 8.83626C8.10294 8.78084 8.1624 8.71996 8.16221 8.71996L8.1863 8.76632C8.20909 8.76983 8.23229 8.77322 8.2552 8.77648C8.25527 8.77641 8.29799 8.75974 8.31864 8.73285C8.33935 8.70589 8.33745 8.6691 8.33745 8.6691L8.31864 8.6454C8.31362 8.6241 8.30898 8.60327 8.30417 8.58208C8.30143 8.56015 8.29864 8.53801 8.29591 8.51586C8.29591 8.51586 8.22056 8.50851 8.18194 8.54269C8.14313 8.57727 8.12013 8.56118 8.12013 8.56118C8.13074 8.54034 8.1413 8.51924 8.15204 8.49802C8.15211 8.49802 8.08386 8.50492 8.0595 8.51991C8.09423 8.48852 8.25227 8.33079 8.16448 8.37208V8.37208Z" fill="#9DD45D"/>
<path fill-rule="evenodd" clip-rule="evenodd" d="M6.35598 6.37458C6.38262 6.36129 6.40904 6.34754 6.43588 6.33453L6.46077 6.36545L6.52066 6.34944C6.51722 6.32072 6.51403 6.29181 6.51032 6.26296C6.4883 6.25801 6.46648 6.25314 6.4444 6.24805C6.42305 6.25672 6.40143 6.26524 6.38006 6.27397C6.34451 6.29649 6.30935 6.31864 6.27393 6.34091C6.29691 6.33992 6.31944 6.33928 6.34218 6.33871L6.35598 6.37458Z" fill="#9DD45D"/>
<path fill-rule="evenodd" clip-rule="evenodd" d="M6.31814 6.71287C6.35238 6.69957 6.39693 6.70583 6.40245 6.67184C6.40819 6.63797 6.41235 6.59622 6.41235 6.59622C6.416 6.57344 6.41964 6.55058 6.42335 6.52734C6.391 6.53208 6.35901 6.5369 6.32665 6.5414L6.33148 6.59592C6.33148 6.59599 6.3193 6.68876 6.30758 6.66142C6.29566 6.63387 6.27906 6.55208 6.26505 6.57383C6.25061 6.59565 6.20579 6.67711 6.20606 6.67686C6.21687 6.69957 6.2276 6.72171 6.23822 6.74407C6.23822 6.74407 6.28413 6.72628 6.31814 6.71287V6.71287Z" fill="#9DD45D"/>
<path fill-rule="evenodd" clip-rule="evenodd" d="M5.98779 7.10416C6.01327 7.11002 6.03853 7.11588 6.06425 7.12187C6.06432 7.1218 6.04634 7.20437 6.11277 7.17937C6.1794 7.15457 6.1702 7.1123 6.1702 7.1123C6.1702 7.11257 6.25129 7.06666 6.27793 7.04862C6.30462 7.03103 6.26554 6.93068 6.26529 6.93035L6.31608 6.91067C6.31588 6.91067 6.36934 6.81216 6.35054 6.78005C6.33146 6.74794 6.27128 6.84263 6.24283 6.85332C6.21456 6.86431 6.15803 6.88561 6.15803 6.88561L6.11506 6.94084C6.11323 6.97021 6.1116 6.99925 6.10977 7.02784C6.10977 7.02784 6.10977 7.02784 6.05325 7.01852C5.99679 7.0085 5.98779 7.10416 5.98779 7.10416V7.10416Z" fill="#9DD45D"/>
<path fill-rule="evenodd" clip-rule="evenodd" d="M11.6497 3.96858C11.5171 4.00784 11.4137 4.05585 11.3823 4.07102C11.3508 4.08567 11.221 4.13282 11.2065 4.13777C11.193 4.14244 11.2755 4.08391 11.2074 4.06932L11.1898 4.06528L11.1911 4.06333L11.1507 4.02335L11.1006 4.02068L11.0513 3.99365L10.9733 4.02687L10.9047 4.03052L10.83 4.02751L10.7707 4.07213L10.757 4.04913L10.7103 4.06749C10.6865 4.07213 10.662 4.07629 10.6381 4.08085L10.595 4.10657L10.594 4.10137L10.5537 4.11258L10.4962 4.14363C10.4737 4.15352 10.4507 4.16329 10.4284 4.17306L10.4112 4.15921C10.3906 4.16285 10.3694 4.16636 10.3485 4.1702C10.3274 4.18595 10.3062 4.20216 10.2855 4.21819L10.247 4.24607L10.2205 4.23551C10.193 4.2456 10.1651 4.25596 10.1373 4.26588L10.113 4.3067L10.0942 4.29614C10.0719 4.30343 10.0496 4.31073 10.0273 4.3179L9.99283 4.35956L9.9421 4.4103L9.90694 4.40912C9.88259 4.42019 9.85823 4.43133 9.83389 4.44253L9.80653 4.44416C9.78887 4.46853 9.77116 4.49282 9.75344 4.5169L9.72447 4.52525L9.68638 4.55748L9.63812 4.57317L9.62456 4.56132L9.57313 4.61023C9.54852 4.62579 9.52397 4.64142 9.49961 4.65725C9.48444 4.68357 9.46953 4.71051 9.45454 4.73721C9.4298 4.7509 9.40492 4.76471 9.37991 4.77851C9.37991 4.77851 9.43826 4.72602 9.30085 4.78084C9.16417 4.83613 9.07502 4.87247 9.03737 4.88751C8.99994 4.90302 8.89241 4.98885 8.88506 5.00936C8.87796 5.03039 8.78072 5.07655 8.78099 5.07655C8.77988 5.07655 8.39937 5.33061 8.48025 5.31445C8.56043 5.29843 8.60067 5.34592 8.49517 5.39032C8.38954 5.43512 8.29876 5.54936 8.16369 5.6068C8.02863 5.66429 7.95575 5.78268 8.07617 5.7311C8.19704 5.67972 8.34331 5.62879 8.34357 5.62879C8.34246 5.62899 8.02147 5.85256 8.16089 5.82689C8.29994 5.80176 8.27558 5.82892 8.37938 5.78464C8.4837 5.74002 8.4998 5.64794 8.62267 5.65796C8.74517 5.66787 8.76718 5.64729 8.78217 5.71931C8.79709 5.79107 8.85906 5.84708 8.82025 5.9182C8.78144 5.98931 8.69574 6.03743 8.69574 6.03743C8.69601 6.0375 8.68337 6.11891 8.76899 6.07085C8.85522 6.02291 8.90569 5.93076 8.91559 5.9643C8.92575 5.99804 8.99576 6.06993 8.99576 6.06993C8.99583 6.06993 8.90067 6.06271 8.84988 6.08465C8.7989 6.1064 8.73827 6.15961 8.79818 6.16586C8.85795 6.17225 8.95766 6.14489 8.97166 6.13895C8.98567 6.1329 8.95929 6.21873 8.92296 6.23971C8.88642 6.26074 8.76509 6.36624 8.76509 6.36624C8.76509 6.36611 8.65713 6.48737 8.68631 6.60439C8.71509 6.72068 8.73389 6.74289 8.74954 6.80731C8.76535 6.87177 8.7548 7.00664 8.80281 7.02559C8.85085 7.04467 8.85842 7.0857 8.93149 7.07398C9.00429 7.06213 9.05072 7.03707 9.06447 7.03086C9.07873 7.02488 9.09409 7.05295 9.12306 7.07014C9.15205 7.08681 9.18005 7.07477 9.26112 7.03959C9.28294 7.01043 9.30502 6.98131 9.32704 6.95187C9.35329 6.90128 9.39418 6.789 9.39418 6.789C9.39418 6.789 9.43735 6.71568 9.42055 6.68246C9.40407 6.64964 9.4199 6.70794 9.50508 6.6055C9.59038 6.50306 9.60823 6.48501 9.5995 6.43845C9.59038 6.39157 9.56596 6.37138 9.5855 6.36312C9.60484 6.35464 9.62894 6.28784 9.70701 6.25443C9.78543 6.22036 9.75574 6.28938 9.90667 6.15778C10.0581 6.02657 10.0574 6.02174 10.1286 5.94516C10.1996 5.8685 10.1302 5.87236 10.2313 5.80893C10.3326 5.74538 10.3241 5.75911 10.4298 5.68924C10.5355 5.61902 10.5739 5.56732 10.6196 5.54837C10.6648 5.52947 10.8231 5.39722 10.9671 5.30345C11.1116 5.20942 11.0834 5.23123 11.0579 5.24158C11.0324 5.25162 10.8213 5.29563 10.7602 5.31562C10.6988 5.33516 10.802 5.23143 10.8017 5.23168C10.8018 5.23168 10.8734 5.16155 10.886 5.19267C10.8985 5.22367 10.9265 5.24816 11.0175 5.21182C11.1084 5.17503 11.1656 5.13745 11.102 5.10658C11.0393 5.07519 11.0444 5.07304 11.0016 5.05404C10.9589 5.03482 10.9499 5.04335 10.8897 5.04133C10.83 5.03905 10.7682 5.02688 10.793 5.01743C10.8181 5.00721 10.8741 4.96949 10.9536 4.93889C11.0326 4.90804 11.0576 4.89839 11.0974 4.8834C11.1372 4.86811 11.1985 4.87509 11.1964 4.84511C11.195 4.82571 11.1633 4.82213 11.1358 4.82415C11.1723 4.81379 11.2268 4.79316 11.2566 4.76112C11.3078 4.70608 11.3545 4.65861 11.2858 4.6838C11.2171 4.7094 11.3331 4.61537 11.3329 4.61551C11.3329 4.61544 11.3698 4.53077 11.2679 4.56751C11.1659 4.60483 11.0802 4.57389 11.1962 4.53161C11.3127 4.48975 11.3898 4.44253 11.3635 4.44149C11.3368 4.44078 11.19 4.4357 11.19 4.43558C11.1898 4.43576 11.1794 4.40731 11.3446 4.29913C11.5086 4.19253 11.5272 4.11204 11.569 4.09863C11.6111 4.0854 11.6432 4.05539 11.7018 4.03285C11.7602 4.01025 11.7873 3.9678 11.7873 3.9678C11.7873 3.96799 11.7815 3.92977 11.6497 3.96858V3.96858Z" fill="#9DD45D"/>
<path fill-rule="evenodd" clip-rule="evenodd" d="M11.4706 5.44213C11.4088 5.49195 11.4086 5.47228 11.3509 5.49571C11.2933 5.51936 11.2673 5.5299 11.2356 5.56299C11.2046 5.59587 11.1582 5.61989 11.1166 5.63728C11.0748 5.6544 11.0923 5.61195 11.0486 5.60012C11.005 5.58754 10.8428 5.73563 10.8703 5.75464C10.8981 5.77307 10.9574 5.71296 11.0305 5.6827C11.1035 5.65247 11.0273 5.71414 11.0116 5.72065L10.905 5.82081C10.9489 5.81235 10.9932 5.80362 11.0378 5.79496C11.0195 5.82088 11.0013 5.8468 10.9829 5.8731C10.9829 5.87303 11.0867 5.82464 11.1132 5.83343C11.1393 5.84243 11.2202 5.8337 11.2685 5.81351C11.3165 5.79327 11.37 5.77118 11.3697 5.75145C11.3695 5.73146 11.4826 5.65019 11.571 5.60421C11.6593 5.55778 11.7165 5.44107 11.7165 5.44141C11.6829 5.38103 11.5315 5.3925 11.4706 5.44213L11.4706 5.44213Z" fill="#9DD45D"/>
<path fill-rule="evenodd" clip-rule="evenodd" d="M6.47168 6.67591C6.47168 6.67591 6.53921 6.64082 6.56377 6.63917C6.58839 6.63697 6.63755 6.60147 6.63755 6.60147C6.63755 6.60142 6.63937 6.51286 6.61046 6.52449C6.58129 6.53616 6.52039 6.57661 6.52039 6.57661C6.50431 6.60988 6.48776 6.64296 6.47168 6.67591Z" fill="#9DD45D"/>
<path fill-rule="evenodd" clip-rule="evenodd" d="M6.80572 11.6815C6.80572 11.6815 6.68116 11.6264 6.522 11.5881C6.36257 11.5495 6.36205 11.5813 6.3196 11.562C6.27732 11.543 6.28098 11.5367 6.21944 11.5597C6.15854 11.5826 6.1071 11.6389 6.08984 11.6699C6.07284 11.7007 6.08321 11.7184 6.08321 11.7184C6.09746 11.7142 6.19274 11.63 6.22335 11.6263C6.2537 11.6228 6.25018 11.6654 6.2888 11.6542C6.32741 11.6432 6.38367 11.6379 6.40984 11.6564C6.43656 11.6749 6.48155 11.6307 6.48155 11.6307L6.51443 11.6897L6.56908 11.6951L6.56725 11.743C6.55371 11.7517 6.73566 11.7378 6.80572 11.6815Z" fill="#9DD45D"/>
<path fill-rule="evenodd" clip-rule="evenodd" d="M11.1434 13.3928C11.0866 13.332 11.1587 13.2722 11.0661 13.2818C10.9745 13.2915 11.0089 13.3302 10.8706 13.2838C10.7335 13.2373 10.6691 13.1981 10.6329 13.1835C10.5963 13.1688 10.4723 13.1008 10.4199 13.1025C10.367 13.1045 10.3445 13.1071 10.2889 13.1144C10.2333 13.1211 10.1906 13.1447 10.1454 13.132C10.1006 13.1193 10.0064 13.0685 9.93215 13.1633L9.90662 13.1986C9.90096 13.1717 9.89153 13.1301 9.88091 13.1027C9.86462 13.0603 9.85863 13.0609 9.75755 13.0393C9.65623 13.0175 9.59651 12.9999 9.54617 12.9938C9.49617 12.9878 9.458 13.0109 9.44282 13.0396L9.42283 13.0732C9.43319 13.0513 9.43963 13.0246 9.42355 13.0029C9.39139 12.9593 9.35366 12.9697 9.31967 12.9747C9.28549 12.9798 9.20551 12.9835 9.20571 12.9835C9.20551 12.9833 9.14255 12.95 9.19218 12.921C9.24225 12.8915 9.2489 12.8818 9.22851 12.8421C9.20851 12.802 9.2397 12.8314 9.15747 12.8017C9.07618 12.7724 9.1003 12.7557 9.06948 12.714C9.0392 12.6722 8.97988 12.6066 8.97988 12.6066L8.9397 12.5925L8.92341 12.5872C8.92269 12.5868 8.73085 12.5134 8.69157 12.5213L8.6762 12.5229C8.63558 12.525 8.57696 12.5138 8.52343 12.5242C8.46254 12.536 8.41982 12.5444 8.41982 12.5444L8.40993 12.5388C8.38331 12.5229 8.30905 12.4816 8.28288 12.4902C8.25025 12.5006 8.17581 12.3627 8.11565 12.3799L8.10964 12.3812C8.05084 12.3955 7.98494 12.3799 7.98494 12.3799C7.98494 12.3799 8.04374 12.3234 8.01203 12.3067C7.98013 12.2897 7.98239 12.309 7.92171 12.2949C7.86108 12.2807 7.769 12.2703 7.83607 12.2551C7.90288 12.2398 7.88381 12.2324 7.88381 12.2324C7.82318 12.2381 7.76319 12.2443 7.70375 12.25C7.70375 12.25 7.68076 12.3065 7.65249 12.3207C7.62397 12.3351 7.58424 12.2897 7.53098 12.3023C7.47836 12.3149 7.48272 12.3407 7.43356 12.3526C7.3853 12.364 7.37541 12.3202 7.37541 12.3202C7.37546 12.3202 7.35267 12.2871 7.32695 12.2934C7.30077 12.2998 7.23851 12.3151 7.21298 12.3215C7.18726 12.3278 7.10965 12.4045 7.15581 12.4394C7.20198 12.4741 7.24217 12.5149 7.20563 12.5237C7.1691 12.5326 7.12591 12.5315 7.11517 12.4838C7.10409 12.4367 7.14819 12.391 7.11675 12.3644L7.09011 12.3356L7.10117 12.3151L7.14045 12.2783C7.14045 12.2783 7.16227 12.2346 7.11465 12.2581C7.06757 12.2815 7.06757 12.2815 7.05266 12.3082C7.03749 12.3348 7.02992 12.3597 6.99405 12.3687C6.95848 12.378 6.95205 12.3947 6.95406 12.4135L6.94124 12.4473C6.94124 12.4473 6.91089 12.3864 6.89617 12.413C6.88152 12.4396 6.82245 12.4589 6.83443 12.4979C6.84635 12.5367 6.86361 12.5939 6.86361 12.5939C6.86361 12.5939 6.76711 12.6264 6.78428 12.6837C6.80155 12.741 6.7561 12.7916 6.7561 12.7916C6.7563 12.7916 6.8018 12.6673 6.72711 12.6447C6.65223 12.6222 6.65867 12.6051 6.60397 12.6238C6.54952 12.6423 6.5608 12.6929 6.52263 12.7033L6.49397 12.7182C6.47927 12.727 6.46336 12.7313 6.40711 12.7042C6.32993 12.6675 6.32758 12.6742 6.31867 12.6437L6.25804 12.6225C6.24196 12.6271 6.23753 12.6157 6.20679 12.6245C6.17782 12.6329 6.13027 12.6321 6.125 12.6421C6.14128 12.682 6.16792 12.7548 6.22789 12.7547C6.30969 12.7546 6.3037 12.76 6.33357 12.7864C6.36367 12.8125 6.37858 12.8123 6.41673 12.8017C6.45463 12.7911 6.51736 12.8011 6.52679 12.8336C6.53644 12.8656 6.62052 12.8702 6.5918 12.8236C6.57668 12.7993 6.56288 12.797 6.55689 12.7952L6.5537 12.7911L6.56288 12.7771C6.58697 12.7437 6.58633 12.7287 6.60142 12.7166C6.61686 12.7048 6.6603 12.6736 6.68394 12.7023C6.70739 12.7308 6.71838 12.7667 6.72392 12.7848C6.72919 12.8027 6.76983 12.8116 6.78428 12.835C6.799 12.8578 6.85761 13.0759 6.86218 13.0913C6.86661 13.1059 6.88934 13.1801 6.84751 13.2071C6.80571 13.2339 6.78663 13.2347 6.80273 13.2754C6.81879 13.3157 6.83299 13.2996 6.81879 13.3158L6.81419 13.3217L6.77998 13.3786C6.76227 13.3832 6.71702 13.3865 6.7494 13.4437C6.78202 13.501 6.75675 13.5201 6.74965 13.5344C6.7423 13.5485 6.73011 13.56 6.75101 13.6171C6.77173 13.6742 6.78774 13.7418 6.83371 13.7129C6.87942 13.6843 6.85761 13.7532 6.85735 13.779L6.83626 13.8078C6.82589 13.8272 6.82082 13.8668 6.85253 13.9731C6.8597 13.9972 6.83254 14.0655 6.90104 14.0693C6.96929 14.0741 7.01085 14.0942 7.07265 14.1672C7.13491 14.2405 7.1967 14.3109 7.23552 14.3971C7.27413 14.4832 7.37058 14.5441 7.40875 14.5863C7.44665 14.6288 7.47745 14.673 7.47745 14.673C7.47745 14.6729 7.51208 14.7452 7.60606 14.7907C7.70029 14.8366 7.76072 14.8671 7.81353 14.8846C7.8657 14.9028 7.94704 14.8768 7.99157 14.9209C8.03639 14.9646 8.09611 15.0262 8.12391 15.0306L8.14135 15.038C8.16389 15.0519 8.18526 15.078 8.18689 15.0624C8.18825 15.0406 8.36375 15.4519 8.41265 15.5936C8.45908 15.7301 8.6344 16.1612 8.63506 16.1631C8.63486 16.1624 8.75775 16.3872 8.7132 16.3637C8.66814 16.3402 8.75657 16.4367 8.78138 16.4815C8.8058 16.526 8.81243 16.5191 8.84481 16.6121C8.87697 16.7054 8.93416 16.8451 8.95069 16.8927C8.96659 16.9396 9.03685 17.1715 9.03712 17.172C9.03712 17.1719 8.97258 17.1753 9.04148 17.2526C9.10992 17.3298 9.20135 17.3611 9.21951 17.4273C9.23742 17.4935 9.20115 17.568 9.26342 17.6241C9.32566 17.6799 9.33394 17.7741 9.36494 17.7664C9.39574 17.7582 9.37758 17.8169 9.41939 17.8972C9.46144 17.9768 9.49036 18.0054 9.50045 17.9784C9.5106 17.9513 9.46992 17.8894 9.4442 17.8297C9.41919 17.7702 9.39802 17.7096 9.42582 17.7204C9.45363 17.7314 9.49999 17.8097 9.50761 17.8317C9.51544 17.8535 9.54714 17.9174 9.5788 17.9816C9.61051 18.0457 9.63324 18.1248 9.63324 18.1249C9.62985 18.148 9.62639 18.1715 9.6234 18.1948C9.6234 18.1948 9.56942 18.1793 9.58315 18.219C9.59676 18.2582 9.60777 18.3479 9.60777 18.3479C9.60777 18.3478 9.68475 18.3311 9.71322 18.3289C9.74147 18.3268 9.77776 18.3041 9.78328 18.3209C9.78907 18.3374 9.78718 18.4307 9.76512 18.4374C9.7431 18.4439 9.74513 18.5498 9.74513 18.5498C9.74518 18.5498 9.83453 18.6537 9.86599 18.6747C9.89751 18.696 9.9884 18.76 9.99812 18.7883L9.99859 18.7902C10.0029 18.7932 10.0139 18.8046 10.0392 18.8369C10.1091 18.9264 10.1557 18.9476 10.1557 18.9476C10.1557 18.9476 10.1736 18.929 10.2049 18.962C10.2357 18.9947 10.2908 19.0128 10.2908 19.0128L10.3234 19.0507L10.3873 19.0652L10.5214 19.1277C10.5392 19.1215 10.6048 19.0984 10.6476 19.1074C10.6896 19.1167 10.7583 19.1165 10.7849 19.1075C10.8068 19.0999 10.8872 19.0771 10.9145 19.0693L10.9239 19.067L10.9722 19.0343C10.9855 19.0304 11.0193 19.0136 11.0431 19.0119C11.0673 19.0101 11.1169 18.9951 11.1169 18.9951C11.1413 18.9748 11.1661 18.9546 11.1909 18.9344C11.1659 18.9345 10.945 19.0269 10.7691 18.8857C10.592 18.7419 10.6739 18.7807 10.569 18.7185C10.4633 18.6556 10.3951 18.6155 10.4497 18.5882C10.5049 18.5613 10.5097 18.5892 10.4872 18.4962C10.4652 18.4035 10.447 18.3796 10.4796 18.3598C10.5125 18.34 10.5398 18.3904 10.4977 18.2692C10.4557 18.148 10.4204 18.1616 10.37 18.1735C10.32 18.1852 10.2685 18.1803 10.2195 18.1107C10.1709 18.0413 10.1598 17.9683 10.2202 17.9439C10.2807 17.9191 10.2724 17.8533 10.2632 17.8269C10.2538 17.8008 10.1902 17.8021 10.2297 17.7322C10.2697 17.6625 10.3174 17.643 10.255 17.6212C10.1922 17.5991 10.1107 17.6204 10.0914 17.5794C10.0718 17.5383 9.91814 17.4664 10.0307 17.4507C10.1437 17.4356 10.2088 17.4909 10.2248 17.4385C10.2407 17.3862 10.2625 17.3773 10.2093 17.3259C10.1557 17.2745 10.0493 17.1988 10.0962 17.1911C10.1424 17.1832 10.3888 17.1846 10.4288 17.0951C10.4677 17.0053 10.4631 16.9641 10.4413 16.9037C10.4194 16.8432 10.3951 16.8618 10.334 16.8063C10.2731 16.7504 10.3918 16.7263 10.3004 16.7001C10.2094 16.6739 10.1419 16.6821 10.1226 16.6425L10.1256 16.6201C10.1422 16.615 10.1855 16.6245 10.2538 16.6276C10.3572 16.6315 10.3909 16.6954 10.4695 16.6563C10.5488 16.6173 10.6016 16.6178 10.6193 16.5653L10.6205 16.561C10.6354 16.5048 10.6112 16.3557 10.5965 16.2879C10.5816 16.2185 10.5977 16.1321 10.5977 16.1321C10.5977 16.1321 10.6485 16.1534 10.6441 16.2138C10.64 16.2747 10.6682 16.2222 10.676 16.1264C10.6838 16.031 10.6622 16.0024 10.7167 15.9448C10.7718 15.8867 10.7776 15.8715 10.707 15.8014C10.6372 15.7316 10.5322 15.6694 10.5708 15.6126C10.6094 15.5563 10.6685 15.45 10.6997 15.414C10.7303 15.3781 10.8378 15.2601 10.9152 15.2662C10.9917 15.2719 11.161 15.2691 11.1617 15.2544C11.1622 15.2397 11.0879 15.1848 11.1637 15.1813C11.2396 15.178 11.2333 15.1444 11.2333 15.1444C11.2265 15.1008 11.2201 15.0572 11.2136 15.014C11.2134 15.014 11.2479 14.9296 11.2333 14.8917C11.2189 14.8536 11.21 14.8152 11.1897 14.7628C11.1695 14.7107 11.2212 14.7177 11.1996 14.6462C11.1782 14.5745 11.0737 14.2916 11.0335 14.1897C10.9931 14.0872 11.0769 14.1436 11.1043 14.1656C11.1316 14.1877 11.0923 14.1521 11.1135 14.0787C11.1342 14.0052 11.1086 13.9879 11.1199 13.9539C11.1316 13.9193 11.1665 13.8976 11.2223 13.8452C11.278 13.793 11.3248 13.7313 11.28 13.6196C11.2352 13.5082 11.2003 13.454 11.1434 13.3928L11.1434 13.3928Z" fill="#9DD45D"/>
<path fill-rule="evenodd" clip-rule="evenodd" d="M19.1804 14.118C19.1071 14.0261 19.1163 14.0761 19.1163 14.0761C19.1163 14.076 19.0933 14.1706 19.0917 14.2088C19.0896 14.2467 19.0717 14.2473 19.0319 14.2987C18.9927 14.3508 18.9672 14.3706 18.9341 14.4227C18.9008 14.4748 18.8091 14.4651 18.7825 14.5044C18.7556 14.5439 18.6674 14.5787 18.6334 14.6252C18.5996 14.672 18.6111 14.6843 18.6047 14.7759C18.5982 14.868 18.6164 14.8737 18.6478 14.952C18.6798 15.0307 18.6136 14.9993 18.564 15.0878C18.5137 15.1763 18.5026 15.1566 18.4654 15.2387C18.4275 15.321 18.4774 15.3263 18.5003 15.3526C18.5233 15.3789 18.4943 15.4277 18.4769 15.49C18.4595 15.5525 18.473 15.5382 18.542 15.6189C18.6109 15.7 18.6736 15.6146 18.7177 15.6132C18.7614 15.6118 18.8222 15.5477 18.8222 15.5477C18.9254 15.2732 19.0253 15.0064 19.1215 14.7465L19.1294 14.7272C19.1213 14.6488 19.1179 14.6039 19.1785 14.6019C19.2394 14.6003 19.1999 14.55 19.1999 14.55C19.1999 14.5499 19.1767 14.5312 19.1744 14.4608C19.1723 14.3902 19.2339 14.4847 19.2528 14.4716C19.2718 14.4582 19.2698 14.3811 19.2626 14.2797C19.2555 14.179 19.2543 14.2105 19.1804 14.118Z" fill="#8BC34A"/>
<path fill-rule="evenodd" clip-rule="evenodd" d="M5.40706 7.01553C5.45004 6.99346 5.61818 6.96605 5.55868 6.9945C5.49941 7.02297 5.45461 7.06144 5.47297 7.06282C5.49139 7.06444 5.57664 7.01951 5.63792 6.99789C5.69907 6.9762 5.72915 6.94963 5.76086 6.93023C5.79277 6.91101 5.91775 6.87306 5.91775 6.87306C5.95774 6.82406 5.99745 6.77478 6.0379 6.72516C5.99727 6.73498 5.95656 6.74522 5.91592 6.75499C5.91592 6.75499 5.91411 6.69176 5.88558 6.70237C5.85738 6.71279 5.82149 6.79796 5.81896 6.83859C5.81577 6.8793 5.68826 6.87819 5.68826 6.87794C5.71052 6.86211 5.73325 6.84622 5.75604 6.8298C5.7076 6.83143 5.65934 6.83319 5.6111 6.83457L5.67079 6.78174L5.59064 6.82577L5.60145 6.7424C5.60145 6.7424 5.53912 6.78891 5.49231 6.79685C5.45832 6.80311 5.43187 6.81488 5.39808 6.82837C5.37241 6.86784 5.34643 6.9071 5.32116 6.94683L5.33335 6.93855C5.36526 6.92026 5.42634 6.92306 5.39098 6.95067C5.35561 6.97835 5.33673 7.00036 5.3168 7.01495C5.29609 7.02933 5.36454 7.03794 5.40706 7.01553L5.40706 7.01553Z" fill="#9DD45D"/>
<path fill-rule="evenodd" clip-rule="evenodd" d="M5.3345 7.201L5.26103 7.12585C5.24742 7.11979 5.21524 7.14741 5.18427 7.17006C5.13835 7.24718 5.09373 7.32506 5.05029 7.40379C5.15026 7.32975 5.27842 7.26548 5.29014 7.26124L5.3345 7.201H5.3345Z" fill="#9DD45D"/>
<path fill-rule="evenodd" clip-rule="evenodd" d="M6.9917 9.74901L6.99913 9.74609L6.9917 9.74901Z" fill="#9DD45D"/>
<path fill-rule="evenodd" clip-rule="evenodd" d="M20.9513 10.5918C20.9336 10.6023 20.9081 10.6111 20.8711 10.6129C20.9024 10.6527 20.9336 10.6926 20.9646 10.7323C20.9602 10.6853 20.9563 10.6386 20.9513 10.5918V10.5918Z" fill="#8BC34A"/>
<path fill-rule="evenodd" clip-rule="evenodd" d="M6.12791 12.608L6.10493 12.5541C6.12309 12.5525 6.1242 12.5522 6.15064 12.5712C6.17707 12.5901 6.18691 12.5989 6.21588 12.6095C6.24507 12.6204 6.27561 12.6242 6.26661 12.5975C6.2577 12.571 6.24917 12.5542 6.25998 12.506C6.27079 12.4576 6.2467 12.4091 6.24989 12.3857C6.25308 12.3623 6.2517 12.3242 6.2517 12.3242C6.24598 12.3033 6.2308 12.2811 6.21654 12.2627C6.19908 12.2407 6.18255 12.2244 6.18255 12.2244C6.18255 12.2246 6.14973 12.2 6.05548 12.2312C5.9616 12.2617 5.95233 12.2945 5.91698 12.2863L5.90253 12.2857C5.87589 12.2896 5.84899 12.3147 5.85335 12.2972L5.86 12.2806C5.88553 12.2284 5.88182 12.2666 5.89335 12.2039C5.9048 12.1413 5.88852 12.1609 5.90661 12.0962C5.91561 12.0648 5.92115 12.0528 5.92298 12.0421C5.92479 12.0309 5.9218 12.0206 5.91334 11.9911C5.89679 11.9332 5.90297 11.9168 5.91561 11.8837C5.92805 11.8506 5.96341 11.782 5.87544 11.8072C5.78745 11.8329 5.65394 11.8677 5.67232 11.9324C5.69095 11.997 5.69048 12.0339 5.66312 12.0677C5.63559 12.1017 5.62707 12.1228 5.63786 12.1345C5.64842 12.1462 5.64704 12.1799 5.60296 12.1558C5.55907 12.1317 5.53792 12.2011 5.4692 12.2217C5.40031 12.2423 5.4272 12.1785 5.37874 12.193C5.33023 12.2075 5.3424 12.2112 5.30816 12.1694C5.27397 12.1277 5.22272 12.1207 5.20117 12.0454C5.1798 11.9697 5.17426 11.8455 5.16137 11.7752C5.14828 11.7047 5.17589 11.6968 5.17171 11.6687L5.16919 11.6433C5.16755 11.6173 5.16709 11.5852 5.16164 11.5567C5.15407 11.5182 5.14529 11.4872 5.21124 11.4431C5.27697 11.3985 5.2597 11.4293 5.28476 11.3744C5.30959 11.3191 5.2338 11.3292 5.3445 11.2985C5.45455 11.2675 5.44075 11.2716 5.48164 11.2599C5.5228 11.2484 5.53634 11.2189 5.56687 11.2359C5.59788 11.2527 5.6227 11.2753 5.65211 11.2376C5.6815 11.1997 5.66404 11.1642 5.66404 11.1642C5.66404 11.1642 5.61515 11.1227 5.74537 11.1151C5.87517 11.1074 5.85263 11.029 5.89426 11.0725C5.93607 11.1156 5.95769 11.1389 5.98105 11.1061C6.00496 11.0735 5.99121 11.0262 6.03094 11.0624C6.07067 11.0987 6.12882 11.0966 6.12648 11.1265C6.124 11.1564 6.12856 11.1589 6.1451 11.2055C6.16235 11.2521 6.17707 11.3028 6.21862 11.3458C6.2607 11.3888 6.29813 11.4548 6.32205 11.371C6.34548 11.2868 6.35369 11.3287 6.32294 11.2202C6.2915 11.1115 6.2538 11.0304 6.25053 11.02C6.24779 11.0097 6.17427 10.9211 6.2648 10.8085C6.35557 10.6955 6.35948 10.6679 6.41113 10.626C6.46328 10.5837 6.46556 10.6056 6.48972 10.557C6.51409 10.5078 6.50464 10.4878 6.52554 10.4814C6.54645 10.4748 6.53361 10.4561 6.55127 10.4505L6.59171 10.4188L6.57979 10.3732L6.53381 10.3876L6.58597 10.3407L6.56735 10.3007L6.52352 10.3067C6.53635 10.2987 6.57932 10.2737 6.57242 10.2487C6.56599 10.2242 6.54781 10.1563 6.54781 10.1563C6.54788 10.1563 6.52626 10.004 6.56141 10.1212C6.59607 10.2378 6.58642 10.2868 6.62115 10.2024C6.6563 10.1177 6.63651 10.0852 6.63632 10.0852L6.67558 10.088C6.6754 10.088 6.73947 9.9773 6.73165 9.9323C6.72403 9.88763 6.71511 9.89864 6.78766 9.8623C6.86073 9.82589 6.8899 9.78415 6.91907 9.77406C6.94115 9.76664 6.97586 9.75464 6.99169 9.74939C6.98022 9.75081 6.96277 9.74272 6.98321 9.66368C7.01148 9.55285 7.03187 9.52067 7.08149 9.49091C7.13092 9.46108 7.13599 9.41408 7.18145 9.39773L7.22306 9.38385C7.25132 9.37435 7.27288 9.36515 7.26923 9.34934L7.28461 9.30942L7.32322 9.27946C7.35996 9.25777 7.38547 9.22338 7.41186 9.20925C7.43783 9.19545 7.32778 9.2659 7.29953 9.3384C7.27131 9.41094 7.31932 9.48797 7.36021 9.41563C7.4013 9.34256 7.39375 9.34543 7.44382 9.32693C7.49463 9.30838 7.53045 9.26162 7.566 9.24846C7.60142 9.23537 7.6724 9.16687 7.68823 9.16081C7.70431 9.15481 7.73902 9.11646 7.7753 9.06417C7.81184 9.01193 7.78591 8.99611 7.74612 9.01551C7.70659 9.03513 7.75094 8.94083 7.73486 8.94696C7.71858 8.95334 7.67331 9.0051 7.67586 9.03382C7.67839 9.06273 7.63816 9.07804 7.62715 9.0865C7.61587 9.09489 7.58188 9.11626 7.54463 9.12161C7.50725 9.1272 7.4459 9.13776 7.44311 9.10904C7.4411 9.08025 7.43002 9.03323 7.45365 9.00725C7.47783 8.98095 7.47873 8.98491 7.49599 8.94818C7.51345 8.91159 7.57726 8.81338 7.49802 8.84379C7.41901 8.87421 7.39329 8.85402 7.32823 8.90434C7.26396 8.95483 7.22027 9.01845 7.18952 9.02964C7.17226 9.03604 7.13599 9.0936 7.10311 9.14466C7.08357 9.17501 7.06539 9.20307 7.05277 9.21766L7.04203 9.22749C7.01675 9.24084 6.9954 9.21922 6.9954 9.21922C6.9954 9.21922 7.01631 9.18692 7.05277 9.15233C7.08983 9.11757 7.09693 9.07686 7.13782 9.04052C7.17916 9.00348 7.17728 8.99552 7.20164 8.97371C7.22559 8.95196 7.26344 8.91589 7.2637 8.91589L7.31241 8.87148C7.3255 8.85377 7.3087 8.81664 7.33995 8.80485C7.37102 8.7928 7.4833 8.7409 7.53199 8.72586C7.58079 8.71171 7.66205 8.66204 7.68731 8.65657C7.71239 8.65128 7.78057 8.61964 7.80148 8.61145C7.82198 8.60323 7.83346 8.59463 7.87937 8.53622C7.92534 8.47762 7.91289 8.46473 8.02894 8.4091C8.14518 8.35277 8.176 8.3402 8.17736 8.28108C8.17872 8.22149 8.18629 8.19083 8.1691 8.175C8.15163 8.1591 8.10565 8.2056 8.09511 8.15501C8.08455 8.10408 8.04984 8.13696 8.00759 8.17746C7.96558 8.21726 7.93407 8.26213 7.89635 8.27742C7.85899 8.2926 7.79712 8.27683 7.86517 8.23536C7.93342 8.19382 7.94853 8.17832 7.99221 8.1466C8.03631 8.11494 8.0225 8.11588 8.0634 8.08976C8.10409 8.06369 8.10266 8.0553 8.03539 8.06435C7.96833 8.07339 7.98921 8.08778 7.92786 8.0764C7.86634 8.06455 7.80793 8.06539 7.81275 8.02163C7.81736 7.9774 7.83527 8.02176 7.84563 7.93775C7.85644 7.8548 7.74547 7.6031 7.74547 7.60166C7.74547 7.60206 7.6963 7.72448 7.62987 7.79469C7.56327 7.86541 7.51388 7.90428 7.50282 7.9373C7.49183 7.96998 7.47118 7.99741 7.4532 7.95266C7.43556 7.90794 7.41967 7.91417 7.40268 7.91652C7.38547 7.91841 7.27588 7.9584 7.38776 7.84137C7.50035 7.72312 7.44402 7.77013 7.4362 7.73002C7.42846 7.6897 7.3942 7.69374 7.35766 7.70865C7.32113 7.72371 7.30388 7.70163 7.29196 7.66222C7.28023 7.62301 7.23543 7.61676 7.17292 7.65213C7.11048 7.68691 7.07229 7.73164 7.04085 7.72448C7.0096 7.71758 6.90853 7.70396 6.91244 7.80483C6.91615 7.90546 6.87199 7.91729 6.88052 7.95761C6.88854 7.99741 6.89999 8.03074 6.86098 8.04598C6.82217 8.06096 6.72404 8.16491 6.79182 8.20917C6.85916 8.25327 6.86398 8.25607 6.8589 8.30856C6.85433 8.36111 6.83182 8.49891 6.59152 8.64895C6.59152 8.64888 6.5837 8.77164 6.59887 8.81833C6.61378 8.86553 6.6076 8.87225 6.57242 8.91087C6.53771 8.94909 6.5527 8.9784 6.51246 8.99253C6.47226 9.00628 6.46375 9.03525 6.44374 8.98622C6.42402 8.93711 6.41183 8.98466 6.4091 8.92455C6.40656 8.86476 6.37393 8.89393 6.42083 8.82458C6.46765 8.75549 6.41783 8.79508 6.44675 8.73192C6.47547 8.66829 6.47592 8.63658 6.45756 8.64323L6.2745 8.6942C6.2745 8.6942 6.24207 8.64289 6.18345 8.66295C6.12517 8.68314 6.0631 8.59151 5.98978 8.61573C5.91725 8.64016 5.85864 8.67245 5.85864 8.67245C5.85864 8.67245 5.8988 8.58299 5.88598 8.53219C5.87314 8.4812 5.79111 8.5172 5.79129 8.517C5.79064 8.51987 5.92779 8.10076 6.13964 8.02267C6.17316 8.01095 6.24344 7.90754 6.16692 7.93033C6.09046 7.95286 6.21335 7.88434 6.25444 7.86435C6.29514 7.84456 6.27769 7.84119 6.33487 7.82007C6.39231 7.79852 6.31052 7.8589 6.40749 7.77339C6.50489 7.6871 6.52398 7.67479 6.51889 7.65181C6.51409 7.62868 6.44903 7.67823 6.40883 7.66358C6.36776 7.64887 6.34931 7.6406 6.34931 7.6406C6.34939 7.64055 6.3994 7.62185 6.43157 7.61468C6.46355 7.60778 6.49526 7.60055 6.51753 7.58707C6.54006 7.57361 6.5391 7.58876 6.5458 7.54084C6.5527 7.4927 6.54671 7.48465 6.58988 7.46783C6.63286 7.45123 6.63696 7.42934 6.68406 7.43117C6.73121 7.43313 6.68106 7.41723 6.7512 7.40486C6.821 7.39236 6.74702 7.40661 6.83662 7.34019C6.92669 7.2732 6.97398 7.26961 6.95679 7.22506C6.93952 7.17994 6.84901 7.22709 6.91706 7.15238C6.98551 7.07743 7.02269 7.08831 7.00822 7.05749C6.99357 7.02664 6.92142 7.01375 6.90116 7.02194C6.88097 7.03003 6.85499 7.00859 6.81227 7.05769C6.76955 7.10661 6.7771 7.16698 6.75693 7.19588C6.73666 7.22486 6.70912 7.2149 6.68087 7.26771C6.65306 7.31995 6.62734 7.31975 6.59998 7.35152C6.57197 7.38259 6.5977 7.38304 6.57217 7.38259C6.54671 7.38219 6.50627 7.35159 6.55654 7.32658C6.60668 7.30217 6.66224 7.28028 6.6147 7.23619C6.56735 7.19211 6.52463 7.17192 6.49428 7.23112C6.46375 7.28992 6.44146 7.32443 6.43365 7.30685C6.42538 7.28933 6.41002 7.17447 6.39349 7.21724C6.37712 7.26041 6.31443 7.28438 6.2816 7.32827C6.24898 7.37165 6.19453 7.39209 6.17246 7.42596C6.15089 7.45995 6.12673 7.49967 6.10765 7.52698C6.0891 7.55424 6.10238 7.59503 6.0872 7.60075C6.07183 7.60622 6.05575 7.66289 6.04286 7.60647C6.02978 7.55014 6.01533 7.53992 5.97694 7.55399C5.9386 7.56748 5.88507 7.58655 5.86599 7.59286C5.84692 7.59951 5.83544 7.60381 5.792 7.62868C5.74857 7.65401 5.68749 7.68983 5.68749 7.68983C5.68749 7.68983 5.65023 7.62126 5.57788 7.64528C5.50581 7.66927 5.46146 7.67337 5.43729 7.70618C5.4132 7.73972 5.38403 7.76876 5.38467 7.80347C5.38564 7.83811 5.3893 7.88187 5.36676 7.87412C5.3443 7.866 5.35068 7.84436 5.32222 7.8131C5.29324 7.78225 5.30725 7.7728 5.24642 7.79123C5.18598 7.8105 5.00931 7.89666 5.00931 7.89634C5.00931 7.89594 4.97623 7.88095 5.04812 7.84496C5.12003 7.80928 5.13265 7.72031 5.01849 7.75353C4.90388 7.78675 4.88661 7.82613 4.85035 7.8012L4.84663 7.7991C4.31159 8.90352 4.00858 10.1416 4.00098 11.4495L4.00121 11.5058C4.0343 11.5261 4.03339 11.5631 4.05103 11.6076C4.07337 11.6635 4.08138 11.731 4.11284 11.7495C4.14436 11.7678 4.18389 11.7454 4.19398 11.7773C4.20388 11.8093 4.25969 11.8397 4.28816 11.8507C4.31668 11.8618 4.28633 11.8589 4.31186 11.9013C4.33731 11.944 4.3596 11.9072 4.40784 11.9581C4.4563 12.0091 4.58244 12.0368 4.6045 12.1134C4.62704 12.1902 4.63251 12.196 4.62033 12.2377C4.60841 12.2794 4.57697 12.3119 4.61942 12.3331C4.66241 12.3544 4.78645 12.4263 4.82345 12.4185C4.86088 12.4108 4.9298 12.4047 4.9298 12.4047C4.9298 12.4047 5.0713 12.4517 5.12827 12.4642C5.18552 12.4765 5.16436 12.4833 5.22453 12.4795C5.28476 12.4763 5.36859 12.507 5.37732 12.4704C5.38611 12.4338 5.41567 12.391 5.45292 12.3908C5.49037 12.3906 5.58388 12.4709 5.60498 12.4799L5.63051 12.489C5.65577 12.498 5.69414 12.5093 5.73229 12.5153C5.76264 12.52 5.79247 12.5212 5.81545 12.5145C5.88026 12.4951 5.85772 12.5206 5.92251 12.5016L5.95514 12.5012L5.96459 12.5115C5.97303 12.5281 5.97122 12.5561 5.9965 12.5667C6.03829 12.5846 6.09482 12.6137 6.11064 12.6169L6.11572 12.622L6.12791 12.608V12.608Z" fill="#9DD45D"/>
<path fill-rule="evenodd" clip-rule="evenodd" d="M20.4879 9.10771L20.5203 9.10518L20.5238 9.10491L20.4879 9.10771ZM19.4555 10.9365L19.4468 10.9422L19.4555 10.9365ZM16.7449 6.93701L16.7423 6.93278L16.7455 6.93761L16.7449 6.93701ZM16.4609 7.46288L16.471 7.47727L16.4731 7.48099L16.4609 7.46288ZM20.9472 10.553C20.7328 8.62287 19.8727 6.88823 18.5876 5.56942C18.5574 5.58607 18.5315 5.63036 18.5315 5.63036C18.484 5.62137 18.4354 5.61291 18.3872 5.60433L18.3528 5.64931C18.3165 5.65108 18.2799 5.65303 18.2436 5.65466C18.2436 5.65466 18.2797 5.62496 18.2818 5.57872C18.2841 5.53274 18.208 5.55443 18.1891 5.56166L18.1219 5.59839C18.1219 5.59839 18.0575 5.60465 18.0205 5.62672C17.984 5.64873 17.9266 5.72322 17.9266 5.72322C17.9204 5.7455 17.9142 5.7679 17.9073 5.79045C17.9073 5.79057 17.7793 5.80208 17.7435 5.77071C17.7079 5.73984 17.6635 5.68572 17.7547 5.68826C17.8458 5.69074 17.7323 5.59656 17.6534 5.59454C17.5751 5.5924 17.5556 5.59233 17.5786 5.68338C17.6013 5.77455 17.6835 5.81395 17.6879 5.85907C17.693 5.90427 17.6571 5.873 17.6571 5.873C17.6571 5.87293 17.6199 5.82741 17.5739 5.82573C17.5287 5.82442 17.4115 5.88799 17.3963 5.92446C17.3803 5.96079 17.4779 6.02291 17.4471 6.03679C17.4161 6.05022 17.3038 6.03184 17.2466 5.98573C17.1891 5.93944 17.1046 6.00287 17.2151 6.05809C17.3251 6.11286 17.293 6.1772 17.2427 6.13141C17.1924 6.08609 17.1494 6.05547 17.1234 6.05438C17.0975 6.05346 17.0437 6.04441 17.0437 6.04441C17.0437 6.04434 17.0602 6.01574 17.0154 5.96295C16.97 5.90993 16.9914 5.86637 16.9914 5.86637C16.9914 5.8663 16.9174 5.84911 16.8592 5.80275C16.8013 5.75651 16.8767 5.78113 16.9031 5.78224C16.9291 5.78295 17.0547 5.84663 17.1673 5.85784C17.2795 5.86872 17.4333 5.84403 17.426 5.77668C17.418 5.70916 17.3584 5.63961 17.2787 5.62953C17.1995 5.61962 17.1533 5.61833 17.0933 5.55639C17.0343 5.49447 16.9332 5.47596 16.8409 5.47347C16.7481 5.47082 16.7267 5.45499 16.6977 5.43154C16.6684 5.40811 16.5475 5.44984 16.5475 5.44984C16.5475 5.44984 16.4864 5.3803 16.513 5.38095C16.5394 5.38172 16.5394 5.38172 16.5394 5.38172C16.5394 5.38172 16.5054 5.37346 16.476 5.34956C16.4467 5.32625 16.3715 5.30906 16.3715 5.30906L16.3628 5.34637C16.3571 5.31831 16.3515 5.29076 16.3458 5.26281C16.3258 5.2774 16.3056 5.29192 16.2846 5.30657C16.2677 5.32853 16.2505 5.35047 16.2329 5.37268C16.2323 5.34768 16.2311 5.32222 16.2305 5.29726C16.2091 5.31935 16.1872 5.34117 16.1654 5.3629C16.1705 5.33066 16.1753 5.29845 16.1804 5.26562C16.1804 5.26562 16.1448 5.24959 16.0871 5.27057C16.0299 5.29153 16.0081 5.32839 16.0106 5.35067C16.0136 5.3732 15.9708 5.34956 15.9506 5.34877L15.8716 5.36096C15.8716 5.36096 15.867 5.37607 15.8132 5.3741C15.7595 5.37242 15.7214 5.33387 15.7257 5.3713C15.7305 5.40836 15.6648 5.42068 15.6456 5.42738L15.6226 5.51478C15.6226 5.51478 15.5236 5.53308 15.5015 5.5177C15.4795 5.50194 15.4567 5.53789 15.456 5.58875C15.4553 5.63928 15.4158 5.64482 15.3961 5.65133L15.3226 5.72035C15.3165 5.74642 15.3108 5.77259 15.3044 5.79825C15.3044 5.79844 15.2927 5.87632 15.2663 5.8822C15.2398 5.88799 15.1937 5.96399 15.1589 5.96223C15.1248 5.96053 15.113 6.04461 15.0859 6.04337C15.0584 6.04186 15.0444 6.04102 15.0239 6.03993L14.8996 6.03346L14.8757 6.13708C14.8559 6.15011 14.8421 6.14939 14.7955 6.16743C14.7487 6.18593 14.714 6.18383 14.7161 6.20481C14.7179 6.22566 14.7503 6.26908 14.7503 6.26908C14.7944 6.27383 14.8389 6.27885 14.8833 6.28379C14.8281 6.2851 14.7725 6.28666 14.717 6.28803C14.7257 6.32743 14.7342 6.36735 14.742 6.40649C14.7778 6.39281 14.8139 6.37876 14.8498 6.36461C14.8231 6.40239 14.7967 6.43989 14.77 6.47714C14.7914 6.51068 14.8134 6.54376 14.835 6.57684C14.835 6.57684 14.8332 6.63148 14.9644 6.61891C15.0956 6.60635 15.1102 6.55217 15.1378 6.54702C15.1645 6.54175 15.2012 6.42635 15.2134 6.48223C15.2247 6.53198 15.2258 6.5375 15.2743 6.54084L15.2952 6.542C15.3642 6.54579 15.2095 6.57881 15.2892 6.61775C15.3687 6.65636 15.3478 6.65565 15.3922 6.75384C15.4361 6.85211 15.4165 6.86429 15.4192 6.89152C15.4218 6.91861 15.4535 6.96133 15.4949 6.96387C15.5362 6.96635 15.5557 6.95408 15.5596 6.92687C15.564 6.8998 15.6187 6.90317 15.6669 6.90577C15.7147 6.90844 15.7611 6.89783 15.7455 6.80796C15.7294 6.71802 15.7411 6.63596 15.7411 6.63596C15.7413 6.63596 15.918 6.58329 15.8895 6.50527C15.8608 6.42707 15.7487 6.44946 15.7124 6.30014C15.6754 6.15093 15.8093 6.14289 15.884 6.08948C15.9582 6.03595 16.0063 5.98781 16.0063 5.98781C16.0063 5.98781 15.9297 5.96268 15.9667 5.93566C16.0037 5.90836 16.0063 5.8725 16.0395 5.87379C16.0738 5.8751 16.1379 5.85613 16.1578 5.85705L16.1905 5.86004C16.2376 5.8654 16.3138 5.87914 16.2968 5.90615C16.2744 5.94145 16.2908 5.97101 16.2706 5.97037L16.1057 6.09964C16.1057 6.09964 16.0035 6.13792 16.0331 6.2244C16.0628 6.31076 16.094 6.41072 16.094 6.41052C16.094 6.41047 16.097 6.43892 16.1379 6.44797C16.1788 6.45715 16.2102 6.50039 16.2438 6.50228C16.2776 6.50391 16.3444 6.5071 16.3642 6.50807L16.4694 6.49903L16.5358 6.50222L16.5834 6.455L16.6093 6.45636L16.6566 6.45852C16.6812 6.46646 16.7067 6.47481 16.7313 6.48306C16.7067 6.49831 16.6821 6.51368 16.6573 6.52897L16.6208 6.55522C16.539 6.55385 16.4574 6.55229 16.3756 6.55073C16.3756 6.55066 16.204 6.62601 16.3175 6.69387L16.3688 6.73178C16.4303 6.7894 16.4234 6.84553 16.3807 6.84892C16.3276 6.85303 16.3099 6.81108 16.3099 6.81108C16.31 6.81108 16.2392 6.70384 16.1551 6.73392C16.0715 6.76407 16.0784 6.77137 16.1328 6.84293C16.1873 6.91418 16.1379 6.89087 16.161 6.91957C16.1843 6.94824 16.1395 6.97345 16.176 7.00236C16.1926 7.01518 16.1698 7.02612 16.1452 7.03614C16.1151 7.04885 16.0814 7.0607 16.1161 7.07361C16.1788 7.09743 15.9768 7.0932 15.9768 7.0932L15.9171 7.03576C15.9171 7.03576 15.8179 7.05711 15.765 7.07425C15.7124 7.0915 15.6056 7.11893 15.6056 7.11893L15.5803 7.11091L15.5277 7.09424L15.4349 7.0551C15.416 7.07425 15.3616 7.08422 15.3338 7.08277C15.3063 7.08083 15.2633 7.06493 15.2405 7.04318C15.2176 7.02156 15.1645 7.04533 15.1719 6.97832C15.1794 6.91124 15.1875 6.92518 15.24 6.89431C15.2925 6.86359 15.3065 6.86475 15.283 6.83603C15.2598 6.80737 15.2003 6.83791 15.2167 6.79123C15.2327 6.74433 15.2695 6.69869 15.2348 6.69654C15.2003 6.69451 15.1663 6.6996 15.141 6.72519C15.116 6.75104 15.0898 6.76981 15.0898 6.76981C15.0898 6.76981 15.0064 6.77174 15.0089 6.79917C15.012 6.82653 15.0085 6.86683 15.0179 6.89431C15.0275 6.92239 15.1052 7.00808 15.1052 7.00808C15.1052 7.00801 15.0919 7.09503 15.0636 7.0932C15.037 7.09137 15.074 7.09971 14.9474 7.13305L14.9276 7.13813C14.7755 7.17543 14.7631 7.11416 14.7204 7.19831C14.6777 7.28264 14.7211 7.2986 14.6152 7.31161L14.6021 7.31351C14.512 7.3268 14.5453 7.34795 14.5258 7.36581C14.5139 7.37694 14.4757 7.38162 14.4475 7.39062C14.454 7.38372 14.4509 7.37497 14.4303 7.36267C14.3623 7.32314 14.3227 7.38053 14.3623 7.32321C14.4013 7.26604 14.4247 7.28766 14.4426 7.23849C14.4606 7.18978 14.4815 7.18632 14.4374 7.16828C14.3928 7.15037 14.3429 7.20715 14.3023 7.17441C14.2618 7.14166 14.3176 7.1602 14.291 7.0932C14.2646 7.02631 14.2961 7.0185 14.2388 6.97429C14.1815 6.93001 14.156 6.95331 14.156 6.95331C14.1564 6.95356 14.1978 6.8555 14.0973 6.81837C13.997 6.78146 13.9545 6.8038 13.9545 6.8038C13.9545 6.8038 13.96 6.79403 14.0495 6.75957C14.1392 6.72512 14.139 6.65382 14.139 6.65382C14.139 6.65382 14.034 6.62178 13.9903 6.61891C13.9469 6.61599 13.9119 6.65909 13.9053 6.64353C13.8988 6.62811 13.9124 6.58811 13.9492 6.57047C13.9857 6.55249 14.0213 6.52417 14.0213 6.52417C13.9614 6.51517 13.9012 6.50633 13.8408 6.49733C13.8408 6.49733 13.807 6.556 13.7603 6.59346C13.7133 6.63071 13.7041 6.65525 13.7066 6.6908C13.7086 6.72623 13.7978 6.74265 13.7978 6.74265C13.7978 6.74265 13.7293 6.79351 13.7569 6.79539C13.7847 6.79708 13.8885 6.79428 13.8564 6.8021C13.824 6.81006 13.776 6.83173 13.776 6.83173C13.7982 6.83336 13.8199 6.83499 13.8421 6.83635C13.8421 6.83628 13.7521 6.89589 13.7743 6.89743C13.7967 6.89887 13.9005 6.88578 13.9005 6.88578C13.9005 6.88578 13.9478 6.86398 13.9519 6.91957C13.9556 6.97538 13.9972 7.0232 13.9972 7.0232C13.9972 7.0232 14.0808 7.04415 13.9846 7.08277C13.8881 7.12106 13.8936 7.12146 13.8658 7.11957C13.8378 7.11762 13.9365 7.18958 13.9041 7.20215C13.8718 7.21504 13.787 7.18911 13.782 7.20885C13.7778 7.22839 13.8242 7.26194 13.8578 7.26414C13.8913 7.26629 13.9676 7.3316 14.0181 7.25523C14.0181 7.25516 13.9901 7.33298 13.9168 7.32294C13.8442 7.31305 13.7732 7.338 13.7665 7.42715C13.7665 7.42715 13.8161 7.40566 13.9113 7.41224C14.0059 7.41875 13.9942 7.40272 14.0495 7.40675C14.1052 7.41054 14.1102 7.40605 14.1711 7.41014C14.232 7.41432 14.2922 7.41339 14.3356 7.41138C14.3574 7.41014 14.3981 7.40787 14.425 7.40057L14.4142 7.41816C14.4162 7.45137 14.4128 7.50424 14.3765 7.50177C14.3397 7.49929 14.3289 7.55134 14.3289 7.55134C14.3289 7.55134 14.2426 7.57861 14.1881 7.5288C14.1337 7.47859 14.127 7.49168 14.1449 7.5456C14.1629 7.5999 14.186 7.61462 14.1341 7.61111C14.0824 7.60772 14.0305 7.61079 14.0305 7.61079C14.0305 7.61071 13.9177 7.58318 13.8805 7.58735C13.8433 7.59119 13.8469 7.66432 13.8483 7.69089C13.85 7.71706 13.8988 7.65474 13.9853 7.72645C14.0714 7.79815 14.1339 7.8548 14.1429 7.87498C14.1511 7.89537 14.169 7.94264 14.1718 7.99486C14.1748 8.04757 14.2044 8.1866 14.1599 8.18368L14.1066 8.18959C14.0723 8.19676 14.0411 8.20892 14.0411 8.20892C13.8585 8.1776 13.6742 8.14622 13.4869 8.11404C13.4876 8.11397 13.2464 8.13782 13.336 8.24899C13.336 8.24891 13.3393 8.26123 13.3434 8.28305C13.3486 8.31286 13.3555 8.3606 13.3574 8.42084C13.3606 8.5257 13.2907 8.55442 13.2676 8.58593C13.2448 8.61686 13.2145 8.68106 13.254 8.68333C13.294 8.68582 13.3064 8.85013 13.3064 8.84986C13.3064 8.84986 13.2912 8.86874 13.3864 8.87415C13.4699 8.87885 13.4561 8.89271 13.4727 8.8843L13.4819 8.87935C13.5127 8.86151 13.5908 8.85293 13.6167 8.92578C13.6427 8.99866 13.651 9.01187 13.6974 9.00803C13.7443 9.00388 13.7109 8.93726 13.7886 8.94142C13.866 8.94552 13.8814 8.92697 13.9662 8.93159C14.0503 8.93602 14.1042 8.93894 14.1042 8.93894C14.1042 8.93894 14.1541 8.86438 14.1922 8.87292C14.2306 8.88132 14.2329 8.75888 14.2855 8.76194C14.3382 8.76488 14.2425 8.63697 14.3223 8.58314C14.4018 8.52946 14.4128 8.46569 14.4728 8.46928C14.532 8.47261 14.5895 8.4502 14.5895 8.4502C14.6017 8.40565 14.6136 8.36105 14.6256 8.31638C14.6256 8.3163 14.5984 8.22403 14.6935 8.22977C14.7882 8.23524 14.887 8.30596 14.9508 8.29698C15.0149 8.28785 15.034 8.24995 15.0602 8.21935L15.0692 8.20216C15.0779 8.1726 15.0684 8.1399 15.1707 8.16751C15.2932 8.2006 15.3354 8.2032 15.3412 8.28082C15.3465 8.35865 15.3373 8.33208 15.4191 8.39465C15.5006 8.45705 15.5601 8.51123 15.6242 8.53402C15.6885 8.5563 15.7489 8.52783 15.8259 8.64649C15.9026 8.76442 15.9874 8.79984 15.9258 8.80949C15.8648 8.81899 15.9435 8.86718 15.8328 8.86191C15.7218 8.85624 15.7225 8.86886 15.6527 8.86548C15.5824 8.86196 15.5562 8.89251 15.5787 8.91876C15.6015 8.94552 15.8298 9.03787 15.8293 9.03779C15.8434 9.00081 15.8571 8.96375 15.8714 8.92664C15.8714 8.92657 15.9467 8.92417 15.9717 8.88093C15.9966 8.83821 16.015 8.80121 16.0559 8.80323C16.0965 8.80531 16.0092 8.71277 15.9805 8.69206C15.9516 8.67175 16.0083 8.59862 16.0821 8.68444C16.1558 8.77041 16.2332 8.71103 16.0981 8.61567C15.9619 8.51982 15.9143 8.52998 15.893 8.51637C15.8714 8.50237 15.8612 8.45718 15.8612 8.45718C15.8259 8.44466 15.7905 8.43192 15.7553 8.4196C15.7421 8.39504 15.7287 8.37122 15.7153 8.3468C15.7154 8.34673 15.7062 8.31424 15.6334 8.26487C15.5601 8.21602 15.5227 8.18165 15.5227 8.18165C15.5227 8.18165 15.4792 8.06242 15.5419 8.06618C15.5863 8.06853 15.5906 8.04347 15.6102 8.05178L15.6476 8.08507C15.7083 8.15357 15.7448 8.18118 15.7664 8.19511C15.7882 8.20931 15.8206 8.27568 15.8771 8.29787C15.9334 8.32041 15.9495 8.35318 15.9775 8.36105C16.0053 8.36887 16.0604 8.37168 16.0604 8.37168L16.0701 8.37923C16.1151 8.41315 16.1592 8.44755 16.2036 8.48115L16.2206 8.62819C16.2358 8.64798 16.2699 8.7568 16.3102 8.7523L16.3284 8.75257C16.3506 8.75608 16.3545 8.77419 16.3676 8.80538C16.3834 8.84367 16.3947 8.91348 16.3947 8.91348C16.4117 8.93706 16.4287 8.96071 16.446 8.98426C16.446 8.98421 16.4953 9.01775 16.522 9.02498C16.5493 9.03258 16.6297 9.04217 16.6297 9.04217C16.6261 9.02119 16.6226 9.00043 16.6194 8.97944L16.652 8.97444C16.6332 8.95282 16.6138 8.93132 16.595 8.90965C16.6247 8.92345 16.6541 8.93726 16.6837 8.95119L16.7212 8.91517C16.6858 8.87833 16.6504 8.8414 16.6146 8.80432C16.5946 8.77419 16.575 8.74391 16.5555 8.71356C16.5556 8.71356 16.5367 8.63729 16.5735 8.68308C16.6097 8.7288 16.615 8.71012 16.6458 8.67378C16.6762 8.63737 16.6111 8.64674 16.6762 8.63742C16.7356 8.62838 16.7556 8.60311 16.78 8.6224L16.7881 8.62987C16.8126 8.65782 16.8744 8.6784 16.8919 8.68373L16.8967 8.68516L16.8919 8.68373C16.8884 8.68622 16.8843 8.69936 16.8882 8.74767C16.893 8.82908 16.9091 8.86738 16.924 8.89904C16.939 8.93073 16.969 8.98785 17.0015 8.98923C17.0343 8.99052 17.0607 8.99821 17.0754 9.02958C17.0908 9.06099 17.1198 9.11811 17.1198 9.11791C17.1609 9.12331 17.2025 9.12922 17.2438 9.13484L17.3022 9.14315L17.344 9.09543C17.344 9.09543 17.3934 9.06053 17.454 9.11191C17.5142 9.16343 17.508 9.16922 17.584 9.16564C17.6601 9.16218 17.624 9.08749 17.6691 9.10136C17.7138 9.11517 17.7775 9.11732 17.8089 9.11841L17.8418 9.12989L17.8485 9.16284C17.8508 9.1995 17.8641 9.3339 17.8595 9.36388C17.8551 9.39154 17.8558 9.41942 17.8321 9.44183L17.8262 9.44747C17.7959 9.47074 17.7586 9.48187 17.7612 9.53012C17.7631 9.57843 17.7708 9.60873 17.7724 9.65079C17.7738 9.67782 17.781 9.78207 17.8016 9.87696C17.8131 9.92918 17.8285 9.97861 17.8496 10.0108C17.9089 10.1009 17.8822 10.0474 17.9795 10.1674C18.0764 10.287 18.0403 10.339 18.1035 10.3988C18.1664 10.4583 18.2149 10.4244 18.2548 10.5647C18.2549 10.5646 18.2335 10.7448 18.3137 10.8036C18.3939 10.8621 18.4235 10.8393 18.4736 10.9494C18.523 11.0594 18.5834 11.0712 18.6259 11.1174L18.6574 11.1625C18.6641 11.18 18.6622 11.1965 18.6622 11.2268C18.6622 11.2786 18.6507 11.3188 18.6622 11.3934C18.6744 11.4681 18.6744 11.4971 18.704 11.5315C18.7339 11.5658 18.7279 11.5947 18.8175 11.5656C18.9074 11.5365 18.8357 11.5024 18.9369 11.5021C19.0381 11.5018 19.1619 11.4558 19.1619 11.4558C19.1619 11.4558 19.168 11.3761 19.2444 11.3761C19.3211 11.3758 19.3264 11.3357 19.385 11.3076C19.4431 11.2788 19.4842 11.2792 19.49 11.2393C19.4955 11.1993 19.5244 11.1542 19.5421 11.1542H19.5469C19.5609 11.1542 19.5701 11.1542 19.6115 11.1543C19.6581 11.1543 19.6985 11.1543 19.7272 11.1486C19.7562 11.1431 19.6691 11.0633 19.7445 11.0635C19.8199 11.0637 19.8426 11.0751 19.8483 11.0241C19.8534 10.9732 19.9283 10.9506 19.9283 10.9506L19.9278 10.8882C19.9278 10.871 19.8929 10.8027 19.9441 10.803C19.9961 10.8031 19.9676 10.803 20.0358 10.7465C20.1043 10.6902 20.0981 10.6217 20.0803 10.5932C20.0626 10.5646 20.0626 10.5702 20.0394 10.5473C20.0163 10.5243 19.9868 10.4727 19.9696 10.4725C19.9528 10.4724 19.9005 10.4779 19.8715 10.4547C19.8426 10.4315 19.8017 10.4081 19.7835 10.3735L19.7734 10.3428C19.7626 10.3003 19.7585 10.2411 19.7585 10.2411C19.7585 10.2411 19.639 10.3955 19.5928 10.4179C19.5469 10.4405 19.4298 10.4222 19.4003 10.4392L19.382 10.4382C19.3411 10.4235 19.2634 10.339 19.2273 10.2754C19.1842 10.1993 19.2377 10.2061 19.1713 10.1412C19.1244 10.0956 19.0682 10.0296 19.0381 9.97992C19.0254 9.95901 19.0176 9.94066 19.0172 9.92847C19.0158 9.88738 19.1182 9.74224 19.1685 9.83119C19.2187 9.92065 19.2745 10.0265 19.3932 10.0686C19.3932 10.0687 19.4479 10.1623 19.5361 10.181C19.6239 10.1992 19.7263 10.0963 19.7622 10.1314C19.7976 10.1662 19.7937 10.2705 19.9037 10.2884C20.0135 10.3066 20.1003 10.3477 20.1578 10.348C20.1784 10.3482 20.1977 10.3462 20.2217 10.3436C20.2639 10.3392 20.3206 10.334 20.4263 10.3385C20.5919 10.3452 20.6023 10.2879 20.6375 10.3511C20.6717 10.4138 20.6552 10.4651 20.7574 10.4655L20.7914 10.4724C20.839 10.4959 20.821 10.5686 20.9472 10.5531V10.553Z" fill="#8BC34A"/>
<path fill-rule="evenodd" clip-rule="evenodd" d="M15.2023 8.48386C15.2558 8.48705 15.2637 8.44883 15.2611 8.40539C15.2581 8.36175 15.1711 8.33264 15.1628 8.36604C15.1628 8.36604 15.1488 8.48092 15.2023 8.48386Z" fill="#8BC34A"/>
<path fill-rule="evenodd" clip-rule="evenodd" d="M4.23226 12.0532C4.18192 12.0409 4.1741 11.9584 4.14538 11.8932C4.11666 11.8279 4.06195 11.8315 4.03578 11.7764C4.02595 11.7549 4.0165 11.7364 4.00732 11.7207C4.0098 11.7805 4.01304 11.8401 4.0165 11.8994L4.04157 11.9181C4.06657 11.9577 4.06657 11.9576 4.07303 11.9792C4.07966 12.0004 4.0882 12.0563 4.0882 12.0563C4.13457 12.0764 4.18054 12.0964 4.22625 12.1166C4.22625 12.1168 4.3046 12.224 4.30989 12.1573C4.31496 12.0904 4.2828 12.0658 4.23226 12.0532Z" fill="#9DD45D"/>
<path fill-rule="evenodd" clip-rule="evenodd" d="M6.71679 6.49062C6.68344 6.51224 6.72616 6.60674 6.7436 6.59957C6.76108 6.59234 6.81343 6.57085 6.8663 6.5493C6.91919 6.52761 6.972 6.50599 7.03127 6.48125C7.09032 6.45663 7.13923 6.44457 7.18123 6.42705C7.22284 6.40954 7.25475 6.37196 7.34326 6.31888C7.43145 6.26562 7.42544 6.18754 7.42524 6.18754L7.25436 6.25169C7.2364 6.25911 7.08317 6.34787 6.9063 6.42067C6.72942 6.49362 6.94719 6.33146 6.94764 6.33127L7.16015 6.22635L7.29663 6.15276C7.3699 6.12451 7.44315 6.09604 7.51759 6.06732C7.51739 6.06727 7.59729 6.03338 7.57548 6.01796C7.55366 6.00312 7.52678 5.95694 7.58838 5.93044C7.65038 5.9042 7.71054 5.862 7.71054 5.862L7.72969 5.81262L7.93892 5.69021C7.95683 5.67419 7.86312 5.7225 7.83168 5.73593C7.80021 5.7492 7.84242 5.62306 7.87804 5.59102C7.91339 5.55884 8.12596 5.48547 8.18431 5.46091C8.2422 5.43604 8.28721 5.41689 8.33182 5.39C8.3759 5.3627 8.41633 5.25323 8.4685 5.2309C8.52111 5.20902 8.61503 5.13588 8.66674 5.10592C8.71824 5.07598 8.85304 4.98637 8.85304 4.98637C8.8944 4.96091 8.93556 4.93577 8.97665 4.91017C8.97665 4.91042 8.90103 4.8651 8.80759 4.89494C8.71408 4.92489 8.69526 4.94131 8.62238 4.97132C8.55003 5.00128 8.53049 5.00937 8.43886 5.04764C8.34718 5.08601 8.30164 5.10496 8.19806 5.14847C8.09424 5.19208 8.11351 5.18414 7.95292 5.25167C7.79331 5.3194 7.8066 5.32215 7.6481 5.43272C7.4905 5.54264 7.41861 5.54726 7.34989 5.57618C7.28166 5.60522 7.25984 5.67483 7.25984 5.67458C7.26329 5.69873 7.26719 5.72315 7.2711 5.74674L7.29201 5.79721C7.29201 5.79721 7.24258 5.81816 7.22076 5.80215C7.1985 5.7858 7.14224 5.80124 7.14224 5.80124C7.14224 5.80119 7.09606 5.83778 7.07143 5.8478C7.04735 5.85796 6.96211 5.89378 6.92602 5.90882C6.8895 5.92386 6.85042 6.03306 6.85042 6.03288C6.85784 6.06069 6.86467 6.08862 6.87159 6.11597C6.87159 6.11617 6.93611 6.15583 6.96003 6.14561C6.98392 6.13584 7.04409 6.1107 7.07906 6.08783C7.11397 6.06492 7.1914 6.02435 7.20975 6.01626L7.28883 6.02442L7.27065 6.07331L7.21829 6.07085C7.21829 6.07085 7.15785 6.09604 7.13369 6.1062C7.10941 6.11617 7.08109 6.1779 7.04527 6.19261C7.00945 6.20748 6.97336 6.2225 6.94947 6.23241C6.92582 6.24218 6.90721 6.28256 6.86585 6.29962C6.82405 6.31674 6.73581 6.32045 6.69054 6.31454C6.64529 6.30834 6.62256 6.424 6.62256 6.42354C6.66162 6.40798 6.70063 6.39197 6.73997 6.37599C6.73997 6.37626 6.7507 6.46886 6.71678 6.49062L6.71679 6.49062Z" fill="#9DD45D"/>
<path fill-rule="evenodd" clip-rule="evenodd" d="M15.1565 8.61071C15.1597 8.66182 15.1627 8.71327 15.1659 8.76453L15.2195 8.7674L15.2385 8.72995L15.2863 8.72305L15.2976 8.56103L15.2574 8.51562L15.2093 8.51752L15.1678 8.53432L15.1265 8.55621L15.1565 8.61071Z" fill="#8BC34A"/>
<path fill-rule="evenodd" clip-rule="evenodd" d="M5.1286 7.69706L5.15042 7.75515C5.15042 7.75515 5.19196 7.73587 5.29947 7.70258C5.40745 7.66913 5.49635 7.58198 5.51842 7.55237C5.54023 7.52318 5.54531 7.56563 5.6402 7.57021C5.73527 7.57437 5.71046 7.54643 5.80307 7.51425C5.89541 7.48202 5.7957 7.45825 5.8118 7.45278C5.82813 7.44699 5.9154 7.41599 5.95303 7.37283C5.99055 7.32976 5.8028 7.3898 5.80327 7.29169C5.80398 7.19445 5.89814 7.02943 5.89859 7.02923C5.92067 7.02077 5.9253 6.98828 5.9253 6.98828C5.8844 7.00325 5.84351 7.01842 5.8028 7.03301C5.80834 7.06688 5.81452 7.10054 5.82006 7.13434C5.82006 7.13428 5.79389 7.09794 5.74608 7.09943C5.69828 7.10119 5.63075 7.19412 5.64938 7.27039L5.6512 7.2769C5.64292 7.25572 5.62568 7.2244 5.60248 7.24909C5.57702 7.27551 5.60504 7.18715 5.59013 7.22284C5.57521 7.25832 5.51678 7.26329 5.4658 7.25006C5.41462 7.2367 5.41618 7.2668 5.3431 7.28308C5.26985 7.29929 5.25694 7.3187 5.18577 7.34117C5.11453 7.36363 5.09981 7.37535 5.07982 7.43371C5.06035 7.49174 5.16069 7.49048 5.10607 7.50728C5.05157 7.52365 5.0132 7.55717 5.0371 7.55717C5.061 7.55836 5.30592 7.52657 5.30592 7.52605C5.30592 7.52605 5.23513 7.54846 5.15379 7.57347C5.07208 7.59846 4.97946 7.62555 4.98728 7.69543C4.9951 7.76551 5.12853 7.69731 5.1286 7.69706Z" fill="#9DD45D"/>
<path fill-rule="evenodd" clip-rule="evenodd" d="M13.3789 7.24456C13.4485 7.26957 13.4473 7.24456 13.5137 7.22443C13.5806 7.20378 13.5748 7.20378 13.6697 7.19524C13.7644 7.18685 13.6952 7.05213 13.7161 7.03311C13.7161 7.03304 13.7621 7.06188 13.704 7.0126C13.6453 6.96283 13.6116 6.95086 13.7451 6.96029C13.8784 6.96936 13.7471 6.90494 13.7127 6.88266C13.678 6.86007 13.6623 6.87388 13.5732 6.86749C13.4836 6.86118 13.5222 6.9543 13.5222 6.9543C13.5222 6.9543 13.4898 6.97241 13.4259 6.9328C13.3621 6.89302 13.3467 6.92214 13.3391 7.00179C13.3315 7.08148 13.3586 7.05303 13.4097 7.05686C13.4609 7.06045 13.406 7.09152 13.3605 7.09836C13.3157 7.10527 13.2895 7.14831 13.2911 7.18354C13.2921 7.2185 13.3097 7.21988 13.3789 7.24456Z" fill="#8BC34A"/>
<path fill-rule="evenodd" clip-rule="evenodd" d="M15.1179 4.53842C15.1784 4.53907 15.2002 4.47596 15.2558 4.47616C15.3112 4.47693 15.2588 4.54011 15.2588 4.53986C15.1072 4.57261 15.1005 4.56076 15.2165 4.64262C15.3323 4.72427 15.307 4.64417 15.3817 4.67967C15.4566 4.71517 15.4171 4.68076 15.4647 4.5827C15.5122 4.48475 15.4904 4.50782 15.5737 4.49694C15.6576 4.486 15.6482 4.56759 15.6854 4.58562C15.6854 4.58562 15.7707 4.62177 15.8506 4.62288C15.931 4.62372 15.9464 4.58876 15.911 4.58842C15.8761 4.58797 15.8111 4.58713 15.7417 4.51607C15.6723 4.44482 15.4823 4.40818 15.4823 4.40818C15.4823 4.40811 15.5375 4.40877 15.5639 4.42055C15.5905 4.43247 15.7024 4.44509 15.7725 4.44588C15.8428 4.44608 15.8568 4.44034 15.9473 4.40526C16.0381 4.37021 15.9866 4.32214 15.9866 4.32214C15.9866 4.32214 15.8313 4.32155 15.7561 4.32136C15.6811 4.32098 15.6163 4.32058 15.5209 4.32032C15.4256 4.31999 15.3994 4.3493 15.2593 4.34859C15.1191 4.34782 15.0989 4.34782 15.0286 4.34735C14.9585 4.34715 14.9599 4.39905 14.9684 4.46795C14.9772 4.53672 15.0575 4.53776 15.1179 4.53842Z" fill="#8BC34A"/>
<path fill-rule="evenodd" clip-rule="evenodd" d="M13.1997 9.90617L13.2377 9.90837L13.262 9.90958L13.1997 9.90617ZM12.5 10.1246V11.8641C12.5171 11.8785 12.5198 11.8921 12.5608 11.918C12.5924 11.9381 12.6139 11.9729 12.6261 11.9967L12.6373 12.0223L12.6371 12.1013C12.6371 12.1211 12.6964 12.1527 12.7214 12.1721C12.7468 12.1911 12.7635 12.1973 12.8223 12.2224L12.8554 12.2406C12.8822 12.2599 12.8887 12.2797 12.9137 12.2989C12.9468 12.3246 13.0957 12.4182 13.0952 12.4182C13.0952 12.4181 13.1855 12.4614 13.2498 12.505C13.3151 12.5485 13.3392 12.5218 13.3392 12.5218L13.3597 12.5184C13.3829 12.5143 13.406 12.5103 13.4286 12.5064C13.4288 12.5062 13.5099 12.465 13.5338 12.4645C13.5579 12.4637 13.5908 12.4303 13.6781 12.428C13.766 12.4258 13.7893 12.4252 13.8603 12.4232C13.9313 12.4214 13.8917 12.4415 13.9381 12.4595C13.9657 12.4701 13.9928 12.4671 14.0111 12.4631L14.0319 12.4569C14.058 12.4476 14.0845 12.4384 14.1102 12.4294C14.1102 12.4294 14.1722 12.4149 14.1957 12.4015C14.2191 12.3882 14.266 12.3614 14.3045 12.3606C14.3427 12.3595 14.351 12.3278 14.3967 12.3269C14.4426 12.3256 14.4429 12.2876 14.4431 12.2876L14.4688 12.2834C14.4998 12.2784 14.5496 12.2704 14.5798 12.2657L14.5855 12.2649C14.6296 12.2586 14.6799 12.2633 14.7376 12.2621C14.7972 12.2606 14.7895 12.286 14.8699 12.3339C14.9503 12.3821 14.8839 12.3836 14.8747 12.4403C14.866 12.4967 14.8961 12.4897 14.9473 12.4882C14.9993 12.4867 15.0514 12.4605 15.095 12.4592C15.1389 12.458 15.2419 12.418 15.2414 12.418L15.2431 12.4198L15.2908 12.4788C15.2908 12.4788 15.3261 12.5027 15.3742 12.5758C15.4084 12.628 15.3921 12.6591 15.3742 12.6867L15.3554 12.7193C15.345 12.7444 15.3305 12.7837 15.3221 12.818L15.3145 12.8634C15.3126 12.9014 15.2613 12.934 15.2433 13.0285C15.2284 13.1081 15.3471 13.2439 15.4536 13.3381L15.5123 13.387C15.5399 13.4073 15.5577 13.432 15.5711 13.4583C15.5872 13.4899 15.5954 13.5247 15.6007 13.5595C15.6094 13.619 15.6102 13.6796 15.6273 13.7275C15.6637 13.8269 15.7323 13.8362 15.6905 13.8382C15.6485 13.8402 15.6671 13.9916 15.7073 14.0149C15.7471 14.0384 15.7509 14.1907 15.6593 14.3115C15.5803 14.4152 15.4905 14.6546 15.4507 14.8046C15.4443 14.8289 15.4392 14.851 15.4356 14.869C15.4128 15.0004 15.6506 15.4255 15.6491 15.4265C15.6492 15.4261 15.691 15.7065 15.6778 15.8312C15.6677 15.9346 15.7595 16.0525 15.7951 16.1129L15.8084 16.141C15.8174 16.1824 15.8061 16.2943 15.8858 16.4177C15.966 16.5413 15.8335 16.6472 15.9093 16.8028C15.9844 16.9591 16.0584 16.8986 16.1737 16.8207C16.2895 16.7432 16.3476 16.8137 16.4014 16.8118C16.4542 16.8098 16.5822 16.732 16.6619 16.7288C16.7412 16.7257 16.7301 16.595 16.8948 16.5309C17.0591 16.4665 17.0896 16.4215 17.1312 16.2767C17.1728 16.1324 17.2684 16.0865 17.3667 16.0118C17.4519 15.9468 17.455 15.9177 17.4282 15.8287L17.4147 15.7863C17.3757 15.663 17.6399 15.5836 17.6396 15.5836C17.6844 15.5819 17.7228 15.5181 17.7474 15.3813C17.7719 15.2448 17.7668 15.1583 17.6973 15.0814C17.6274 15.0045 17.7313 14.9803 17.7784 14.9521C17.8245 14.9237 17.8656 14.889 17.9065 14.8479C17.9477 14.807 17.9638 14.7605 17.9911 14.7335C18.0187 14.7065 18.1276 14.6698 18.1609 14.6426C18.194 14.615 18.2594 14.5741 18.3074 14.5081C18.3555 14.4418 18.3622 14.4353 18.3481 14.3656C18.3341 14.2962 18.3531 14.2952 18.3619 14.1561C18.3707 14.0173 18.3844 13.9924 18.3844 13.9924C18.3844 13.9924 18.3736 13.9624 18.361 13.9222C18.3452 13.8722 18.3256 13.8061 18.3181 13.759C18.3043 13.6729 18.3247 13.6354 18.302 13.5996C18.2793 13.5635 18.2691 13.5272 18.2675 13.4419C18.2655 13.3592 18.3213 13.4072 18.327 13.3477L18.3274 13.3433C18.3307 13.2768 18.3381 13.2525 18.376 13.2272C18.4138 13.2023 18.3686 13.1191 18.4182 13.1062C18.4593 13.0953 18.5064 13.0306 18.5211 13.0091L18.5257 13.0019L18.608 12.9228C18.6208 12.9045 18.7024 12.8083 18.7217 12.7727C18.741 12.7369 18.8333 12.6764 18.8515 12.6583C18.8699 12.6405 18.9301 12.6337 18.9427 12.6102C18.9554 12.5863 19.0412 12.4802 19.0715 12.4622C19.1017 12.4443 19.1624 12.3623 19.1873 12.31C19.2119 12.2575 19.2249 12.1996 19.2974 12.0784C19.3698 11.9567 19.3835 11.711 19.4247 11.6598C19.4658 11.6083 19.4015 11.6315 19.4015 11.6314C19.4015 11.6314 19.3486 11.6659 19.319 11.689C19.2896 11.7116 19.2428 11.7062 19.1602 11.7066C19.0778 11.7071 19.0952 11.7243 19.0305 11.7246C18.965 11.7249 18.9886 11.7649 18.9291 11.7711C18.8696 11.7772 18.8276 11.7831 18.7918 11.7835C18.7556 11.7836 18.7564 11.7376 18.7325 11.7379L18.698 11.702L18.6971 11.692C18.6971 11.6746 18.6975 11.6458 18.6978 11.6114C18.6978 11.5768 18.6739 11.554 18.6437 11.5311C18.6137 11.5082 18.6142 11.485 18.5719 11.439C18.5298 11.393 18.4697 11.3354 18.4085 11.324C18.3479 11.3122 18.4028 11.2894 18.3231 11.1852C18.2434 11.0808 18.2923 11.1446 18.2737 11.0691C18.2661 11.0395 18.2578 11.0272 18.2468 11.0187C18.2298 11.0059 18.2059 11.0031 18.1688 10.9644C18.1062 10.9 18.1188 10.9234 18.1062 10.9C18.0939 10.8764 18.0989 10.8068 18.0984 10.7894C18.0984 10.772 18.0286 10.6372 18.0022 10.5726C17.976 10.5076 17.9334 10.5423 17.9517 10.5247C17.9617 10.5155 17.953 10.5038 17.9397 10.4803C17.9284 10.4604 17.9146 10.4323 17.9047 10.3893C17.8838 10.295 17.8381 10.2233 17.7793 10.1569C17.7208 10.0905 17.7398 10.1025 17.7381 10.055C17.7371 10.0076 17.6327 9.92772 17.6316 9.89787C17.6307 9.86802 17.5969 9.81327 17.6102 9.83161C17.6235 9.84988 17.6642 9.92255 17.6844 9.95282C17.7042 9.98308 17.6915 9.97691 17.7756 10.044C17.8595 10.1112 17.8 10.0271 17.8038 9.96158C17.8055 9.94156 17.8004 9.90972 17.7936 9.87544C17.7763 9.79674 17.7441 9.70337 17.731 9.70291C17.7122 9.7025 17.6993 9.69608 17.6484 9.69468C17.5982 9.69333 17.61 9.68161 17.5594 9.68009C17.5082 9.67862 17.5197 9.6428 17.4367 9.64032C17.3536 9.63778 17.3494 9.69194 17.2861 9.71435C17.2229 9.7365 17.1082 9.63652 17.0754 9.62914C17.0426 9.62205 16.9447 9.6248 16.9184 9.62392C16.8999 9.62333 16.8834 9.60786 16.862 9.5981L16.8314 9.59059C16.792 9.58946 16.7034 9.5436 16.7034 9.5436C16.7035 9.5436 16.6697 9.52401 16.6272 9.47957C16.5853 9.43512 16.5269 9.46992 16.4864 9.46818C16.4464 9.46677 16.4287 9.52152 16.3961 9.54502C16.3637 9.56811 16.4009 9.64314 16.4025 9.68618C16.4046 9.72887 16.3763 9.69762 16.3433 9.72098C16.3106 9.74412 16.2281 9.72338 16.1859 9.69099C16.1433 9.65866 16.1714 9.66596 16.1351 9.63403C16.0998 9.60198 16.0041 9.61689 15.9766 9.61596C15.949 9.61483 15.9347 9.61442 15.9251 9.55217C15.9153 9.48973 15.8661 9.47555 15.8661 9.47555C15.8663 9.47548 15.7542 9.45868 15.7048 9.4568C15.6559 9.45486 15.6129 9.44041 15.5777 9.43907L15.5247 9.40146L15.4755 9.37227C15.4332 9.3706 15.417 9.33238 15.417 9.33238C15.417 9.33238 15.3868 9.29959 15.3926 9.26232C15.3974 9.22457 15.4323 9.20743 15.4518 9.17677C15.4717 9.14639 15.4332 9.09432 15.418 9.07464L15.4633 8.99454C15.4633 8.99454 15.4015 9.02946 15.3997 8.99807C15.3979 8.96616 15.312 8.94922 15.312 8.94922C15.2814 8.9541 15.2506 8.95886 15.2198 8.96388C15.2198 8.96388 15.1484 8.96641 15.1268 8.96562C15.1052 8.96435 15.0333 8.96729 15.0333 8.96729C14.992 8.96508 14.9508 8.96315 14.9092 8.9608C14.9093 8.96073 14.8447 8.9705 14.7054 8.98228C14.5656 8.99454 14.5575 8.98757 14.5352 8.98642C14.5129 8.9855 14.461 8.9956 14.461 8.9956C14.461 8.9956 14.3716 9.00363 14.3422 9.02156C14.3128 9.03918 14.3059 9.05811 14.2758 9.05657C14.2455 9.05503 14.2152 9.05992 14.1552 9.08255C14.095 9.10515 14.1552 9.08255 14.1337 9.10711L14.0909 9.13281L14.0654 9.12959C14.0268 9.12129 14.0268 9.1148 14.0034 9.10711C13.9799 9.09934 13.957 9.1049 13.926 9.10323C13.8949 9.10162 13.8564 9.09961 13.8253 9.09821C13.7939 9.09648 13.7463 9.0681 13.7463 9.0681C13.7463 9.0681 13.7132 9.02138 13.6585 9.0118C13.6033 9.00243 13.6122 9.03529 13.6122 9.03529C13.6122 9.03522 13.6055 9.06756 13.5979 9.09298C13.591 9.11854 13.5602 9.14961 13.5614 9.18193C13.5621 9.21446 13.4988 9.21144 13.4833 9.23654C13.4681 9.26198 13.4286 9.2603 13.3808 9.27731C13.3333 9.29443 13.2928 9.28606 13.2615 9.33003C13.2301 9.37415 13.1901 9.40513 13.1825 9.4376C13.1755 9.4698 13.1428 9.48136 13.1432 9.52039C13.1442 9.55954 13.1612 9.60599 13.1612 9.60599L13.154 9.65805C13.154 9.65805 13.089 9.70102 13.0897 9.74686C13.0904 9.79226 12.9668 9.78141 12.9666 9.78141C12.9668 9.78141 12.8761 9.81735 12.8513 9.84292C12.8265 9.86809 12.7596 9.87879 12.7345 9.88442L12.7334 9.88482C12.7107 9.89265 12.7504 9.97123 12.6173 10.0254C12.5531 10.0516 12.5195 10.0894 12.5 10.1246L12.5 10.1246Z" fill="#8BC34A"/>
<path fill-rule="evenodd" clip-rule="evenodd" d="M19.1803 14.1181C19.1071 14.0261 19.1162 14.076 19.1162 14.076C19.1162 14.076 19.0933 14.1706 19.0917 14.2088C19.0896 14.2467 19.0717 14.2473 19.0319 14.2987C18.9926 14.3508 18.9672 14.3706 18.9341 14.4227C18.9007 14.4748 18.809 14.4651 18.7824 14.5044C18.7556 14.5439 18.6673 14.5787 18.6333 14.6251C18.5995 14.672 18.611 14.6844 18.6046 14.7759C18.5982 14.868 18.6163 14.8737 18.6478 14.952C18.6798 15.0307 18.6135 14.9993 18.5639 15.0878C18.5137 15.1763 18.5026 15.1566 18.4655 15.2387C18.4275 15.321 18.4773 15.3263 18.5003 15.3526C18.5234 15.3789 18.4943 15.4277 18.4769 15.49C18.4594 15.5525 18.473 15.5382 18.5419 15.6189C18.6108 15.7 18.6736 15.6146 18.7176 15.6132C18.7613 15.6118 18.8222 15.5477 18.8222 15.5477C18.9254 15.2733 19.0253 15.0064 19.1215 14.7465L19.1293 14.7272C19.1213 14.6488 19.1178 14.6038 19.1785 14.6019C19.2394 14.6003 19.1998 14.55 19.1998 14.55C19.1998 14.5499 19.1767 14.5312 19.1744 14.4607C19.1723 14.3902 19.2338 14.4847 19.2527 14.4716C19.2718 14.4581 19.2697 14.3811 19.2625 14.2797C19.2554 14.179 19.2543 14.2104 19.1803 14.1181V14.1181Z" fill="#8BC34A"/>
<path fill-rule="evenodd" clip-rule="evenodd" d="M20.9513 10.5918C20.9336 10.6023 20.9081 10.6111 20.8711 10.613C20.9024 10.6527 20.9336 10.6926 20.9647 10.7323C20.9602 10.6853 20.9564 10.6386 20.9513 10.5918Z" fill="#8BC34A"/>
<path fill-rule="evenodd" clip-rule="evenodd" d="M20.4879 9.10771L20.5203 9.10517L20.5237 9.1049L20.4879 9.10771ZM19.4555 10.9365L19.4468 10.9422L19.4555 10.9365ZM16.7449 6.937L16.7423 6.93279L16.7455 6.93761L16.7449 6.937ZM16.4609 7.46286L16.471 7.47726L16.4731 7.48093L16.4609 7.46286ZM20.9472 10.553C20.7328 8.62288 19.8726 6.88822 18.5875 5.5694C18.5574 5.58606 18.5315 5.63038 18.5315 5.63038C18.4839 5.62134 18.4354 5.6129 18.3872 5.60435L18.3528 5.64931C18.3165 5.65105 18.28 5.653 18.2437 5.65467C18.2437 5.65467 18.2796 5.62496 18.2817 5.57871C18.2841 5.53273 18.2081 5.5544 18.1891 5.56164L18.1218 5.59838C18.1218 5.59838 18.0575 5.6046 18.0205 5.6267C17.984 5.64872 17.9265 5.7232 17.9265 5.7232C17.9204 5.74549 17.9142 5.76792 17.9073 5.7904C17.9073 5.79052 17.7793 5.8021 17.7435 5.77073C17.7079 5.73979 17.6635 5.68572 17.7547 5.68826C17.8458 5.69074 17.7323 5.59658 17.6534 5.59456C17.5751 5.59235 17.5556 5.5923 17.5785 5.68337C17.6013 5.77455 17.6835 5.81395 17.6879 5.85906C17.693 5.90424 17.6571 5.87299 17.6571 5.87299C17.6571 5.87292 17.6199 5.8274 17.5739 5.82573C17.5287 5.8244 17.4115 5.88798 17.3963 5.92446C17.3803 5.96081 17.4779 6.02292 17.4471 6.03677C17.4162 6.05022 17.3037 6.03181 17.2466 5.9857C17.1891 5.93945 17.1046 6.00284 17.2151 6.05805C17.3251 6.11286 17.293 6.17718 17.2427 6.1314C17.1924 6.08609 17.1494 6.05544 17.1234 6.05436C17.0975 6.05343 17.0437 6.04439 17.0437 6.04439C17.0437 6.04432 17.0602 6.01575 17.0155 5.96293C16.97 5.90994 16.9914 5.86636 16.9914 5.86636C16.9914 5.8663 16.9174 5.84909 16.8592 5.80271C16.8013 5.75646 16.8766 5.78109 16.9032 5.78222C16.9292 5.7829 17.0548 5.84662 17.1673 5.8578C17.2794 5.8687 17.4334 5.844 17.426 5.77668C17.418 5.70915 17.3585 5.63961 17.2788 5.62952C17.1995 5.6196 17.1533 5.61833 17.0934 5.55635C17.0343 5.49445 16.9332 5.47597 16.8408 5.47349C16.7481 5.4708 16.7267 5.45496 16.6977 5.43153C16.6684 5.40811 16.5475 5.44986 16.5475 5.44986C16.5475 5.44986 16.4864 5.38025 16.513 5.38093C16.5394 5.38174 16.5394 5.38174 16.5394 5.38174C16.5394 5.38174 16.5054 5.37344 16.4761 5.34954C16.4467 5.32626 16.3715 5.30904 16.3715 5.30904L16.3628 5.34633C16.3571 5.3183 16.3515 5.2907 16.3458 5.26279C16.3258 5.2774 16.3055 5.29192 16.2847 5.30657C16.2677 5.32851 16.2505 5.35047 16.2329 5.37269C16.2323 5.34766 16.2311 5.32217 16.2304 5.29727C16.2091 5.31935 16.1872 5.34117 16.1654 5.36293C16.1705 5.33067 16.1753 5.2984 16.1804 5.26561C16.1804 5.26561 16.1448 5.24961 16.0871 5.27055C16.0299 5.29151 16.0081 5.32839 16.0107 5.35067C16.0136 5.37317 15.9708 5.34954 15.9506 5.34874L15.8716 5.36091C15.8716 5.36091 15.867 5.37604 15.8132 5.3741C15.7595 5.37244 15.7213 5.33387 15.7257 5.37129C15.7306 5.40836 15.6648 5.42068 15.6456 5.42737L15.6225 5.51478C15.6225 5.51478 15.5235 5.53307 15.5015 5.51767C15.4795 5.50194 15.4567 5.53787 15.4559 5.58875C15.4554 5.63927 15.4158 5.64483 15.396 5.65132L15.3226 5.72032C15.3165 5.74642 15.3109 5.77259 15.3043 5.79823C15.3043 5.79845 15.2926 5.87634 15.2663 5.88217C15.2398 5.88798 15.1936 5.96395 15.159 5.96221C15.1248 5.96053 15.1131 6.04459 15.0859 6.04332C15.0583 6.04185 15.0443 6.04097 15.0239 6.03991L14.8996 6.03349L14.8757 6.1371C14.8559 6.15008 14.8421 6.14941 14.7955 6.16741C14.7487 6.18588 14.714 6.1838 14.716 6.20483C14.7179 6.22564 14.7502 6.26908 14.7502 6.26908C14.7944 6.27383 14.8389 6.27885 14.8833 6.2838C14.8281 6.28507 14.7725 6.28668 14.717 6.28801C14.7257 6.32743 14.7342 6.36732 14.742 6.40647C14.7778 6.39283 14.8139 6.3787 14.8498 6.36458C14.8231 6.40239 14.7967 6.43987 14.7701 6.47716C14.7914 6.51069 14.8134 6.54376 14.835 6.57682C14.835 6.57682 14.8332 6.6315 14.9644 6.61891C15.0956 6.60633 15.1103 6.55219 15.1378 6.54702C15.1645 6.54174 15.2012 6.42635 15.2134 6.48223C15.2246 6.53197 15.2258 6.53752 15.2743 6.5408L15.2952 6.54201C15.3642 6.54575 15.2095 6.57876 15.2892 6.61771C15.3688 6.65633 15.3478 6.65565 15.3922 6.75384C15.4361 6.8521 15.4165 6.86427 15.4193 6.89152C15.4219 6.91861 15.4535 6.96131 15.4948 6.96387C15.5362 6.96633 15.5557 6.95409 15.5597 6.92685C15.564 6.89975 15.6187 6.90315 15.6669 6.90575C15.7147 6.90844 15.7611 6.89779 15.7455 6.80792C15.7294 6.71803 15.7411 6.63598 15.7411 6.63598C15.7413 6.63598 15.918 6.58329 15.8895 6.50527C15.8609 6.42702 15.7487 6.44945 15.7124 6.30013C15.6755 6.15094 15.8093 6.14285 15.884 6.08943C15.9582 6.03595 16.0062 5.98783 16.0062 5.98783C16.0062 5.98783 15.9297 5.96268 15.9668 5.93563C16.0037 5.90834 16.0062 5.87245 16.0396 5.87379C16.0738 5.87507 16.1379 5.85612 16.1579 5.85707L16.1905 5.86001C16.2375 5.86535 16.3138 5.87914 16.2968 5.90612C16.2744 5.94145 16.2908 5.97098 16.2707 5.97037L16.1057 6.09961C16.1057 6.09961 16.0035 6.1379 16.0331 6.22437C16.0628 6.31078 16.094 6.41069 16.094 6.41051C16.094 6.41044 16.097 6.43889 16.1379 6.44798C16.1788 6.45714 16.2102 6.50038 16.2438 6.50226C16.2776 6.50393 16.3444 6.50708 16.3642 6.50809L16.4694 6.49903L16.5358 6.50219L16.5834 6.455L16.6093 6.45635L16.6567 6.45848C16.6812 6.46644 16.7067 6.47481 16.7313 6.48304C16.7067 6.4983 16.6821 6.51364 16.6572 6.52895L16.6209 6.5552C16.539 6.55386 16.4574 6.55226 16.3756 6.55072C16.3756 6.55065 16.204 6.62601 16.3175 6.69387L16.3688 6.73177C16.4304 6.78939 16.4234 6.84552 16.3807 6.84896C16.3276 6.85303 16.3099 6.81106 16.3099 6.81106C16.31 6.81106 16.2392 6.70386 16.1552 6.73388C16.0715 6.76407 16.0783 6.77139 16.1328 6.84292C16.1873 6.91413 16.1379 6.89086 16.1611 6.91956C16.1843 6.94821 16.1395 6.97343 16.176 7.00235C16.1926 7.0152 16.1698 7.0261 16.1452 7.03614C16.1151 7.04887 16.0813 7.0607 16.1161 7.07356C16.1788 7.09738 15.9768 7.09317 15.9768 7.09317L15.9171 7.03575C15.9171 7.03575 15.8178 7.0571 15.765 7.07422C15.7124 7.09148 15.6055 7.11895 15.6055 7.11895L15.5803 7.1109L15.5277 7.09424L15.4349 7.05509C15.4161 7.07422 15.3616 7.0842 15.3338 7.08281C15.3063 7.08078 15.2633 7.06493 15.2405 7.04317C15.2175 7.02155 15.1645 7.04532 15.1718 6.97832C15.1794 6.91126 15.1875 6.92517 15.24 6.89432C15.2924 6.86354 15.3064 6.86474 15.283 6.83602C15.2598 6.80739 15.2003 6.8379 15.2167 6.79118C15.2327 6.74433 15.2695 6.69869 15.2347 6.69654C15.2003 6.69455 15.1663 6.69957 15.141 6.72521C15.116 6.75102 15.0898 6.76977 15.0898 6.76977C15.0898 6.76977 15.0065 6.77178 15.0089 6.79914C15.012 6.82651 15.0085 6.86682 15.0179 6.89432C15.0275 6.92237 15.1052 7.0081 15.1052 7.0081C15.1052 7.00803 15.0919 7.09498 15.0636 7.09317C15.037 7.09136 15.074 7.09973 14.9474 7.13306L14.9277 7.13815C14.7755 7.17542 14.7632 7.11418 14.7204 7.19831C14.6777 7.28264 14.7211 7.29858 14.6152 7.31163L14.6021 7.3135C14.512 7.32674 14.5453 7.34797 14.5258 7.36577C14.5139 7.37694 14.4757 7.38162 14.4475 7.3906C14.454 7.3837 14.4509 7.37493 14.4303 7.36271C14.3623 7.32314 14.3227 7.38049 14.3623 7.32321C14.4013 7.26604 14.4247 7.28766 14.4426 7.23847C14.4606 7.18976 14.4815 7.18634 14.4374 7.16827C14.3928 7.15039 14.3429 7.20715 14.3023 7.17442C14.2619 7.14163 14.3176 7.16016 14.291 7.09317C14.2646 7.02632 14.2961 7.01846 14.2389 6.97431C14.1815 6.92999 14.1559 6.9533 14.1559 6.9533C14.1564 6.95355 14.1977 6.8555 14.0973 6.81836C13.997 6.78143 13.9545 6.80378 13.9545 6.80378C13.9545 6.80378 13.96 6.79399 14.0496 6.75959C14.1392 6.72513 14.139 6.65378 14.139 6.65378C14.139 6.65378 14.034 6.62178 13.9903 6.61891C13.9469 6.61597 13.912 6.65907 13.9053 6.64353C13.8988 6.62809 13.9124 6.58811 13.9492 6.57046C13.9857 6.55246 14.0213 6.52413 14.0213 6.52413C13.9614 6.51517 13.9012 6.50633 13.8408 6.4973C13.8408 6.4973 13.807 6.55599 13.7603 6.59342C13.7133 6.63069 13.7041 6.65525 13.7066 6.69079C13.7086 6.72621 13.7978 6.74267 13.7978 6.74267C13.7978 6.74267 13.7293 6.79346 13.7569 6.79541C13.7847 6.79708 13.8885 6.79426 13.8564 6.8021C13.824 6.81006 13.776 6.83175 13.776 6.83175C13.7982 6.83336 13.8199 6.83496 13.8422 6.83636C13.8422 6.8363 13.7521 6.89588 13.7743 6.8974C13.7967 6.89887 13.9005 6.88576 13.9005 6.88576C13.9005 6.88576 13.9478 6.86393 13.9519 6.91956C13.9557 6.97537 13.9972 7.02316 13.9972 7.02316C13.9972 7.02316 14.0808 7.04419 13.9846 7.08281C13.8881 7.12108 13.8936 7.12148 13.8658 7.11954C13.8377 7.1176 13.9365 7.18955 13.9041 7.20213C13.8717 7.21506 13.7869 7.18908 13.782 7.20882C13.7778 7.22838 13.8242 7.2619 13.8577 7.26411C13.8913 7.26626 13.9675 7.33157 14.0181 7.25521C14.0181 7.25514 13.9901 7.33297 13.9168 7.32293C13.8442 7.31303 13.7732 7.33799 13.7665 7.42714C13.7665 7.42714 13.8161 7.40566 13.9113 7.41222C14.0059 7.41871 13.9942 7.4027 14.0496 7.40672C14.1052 7.41054 14.1102 7.40606 14.1711 7.41014C14.232 7.4143 14.2922 7.41335 14.3356 7.41134C14.3575 7.41014 14.3981 7.40788 14.425 7.40057L14.4141 7.41817C14.4163 7.45136 14.4128 7.50425 14.3765 7.50177C14.3397 7.4993 14.3289 7.5513 14.3289 7.5513C14.3289 7.5513 14.2426 7.57861 14.1881 7.52881C14.1337 7.47854 14.1269 7.49166 14.1449 7.5456C14.1629 7.59989 14.186 7.61461 14.1342 7.61113C14.0824 7.60772 14.0305 7.61079 14.0305 7.61079C14.0305 7.61073 13.9176 7.58316 13.8805 7.5873C13.8433 7.59119 13.847 7.66427 13.8483 7.69085C13.8499 7.71708 13.8988 7.65471 13.9852 7.72646C14.0715 7.79813 14.1339 7.85476 14.1429 7.87497C14.1511 7.89537 14.169 7.94263 14.1718 7.99485C14.1748 8.04757 14.2044 8.18658 14.1599 8.18364L14.1066 8.18959C14.0723 8.19677 14.0411 8.20894 14.0411 8.20894C13.8585 8.17762 13.6742 8.14623 13.487 8.11403C13.4877 8.11396 13.2464 8.1378 13.336 8.24897C13.336 8.2489 13.3392 8.26121 13.3433 8.28303C13.3486 8.31288 13.3555 8.36061 13.3575 8.42084C13.3606 8.52565 13.2907 8.55436 13.2676 8.58588C13.2448 8.61688 13.2145 8.68106 13.254 8.68334C13.294 8.68581 13.3064 8.85011 13.3064 8.84985C13.3064 8.84985 13.2912 8.86872 13.3863 8.87415C13.47 8.87883 13.4562 8.89269 13.4727 8.88432L13.482 8.87937C13.5127 8.8615 13.5908 8.85293 13.6167 8.92575C13.6427 8.99864 13.651 9.01189 13.6974 9.008C13.7442 9.00384 13.7109 8.93726 13.7886 8.9414C13.866 8.94549 13.8814 8.92695 13.9662 8.93158C14.0502 8.93599 14.1042 8.93893 14.1042 8.93893C14.1042 8.93893 14.1541 8.86437 14.1922 8.87288C14.2307 8.88131 14.233 8.7589 14.2856 8.76191C14.3382 8.76485 14.2426 8.63696 14.3223 8.58314C14.4018 8.52946 14.4128 8.46568 14.4727 8.4693C14.5321 8.47258 14.5895 8.45022 14.5895 8.45022C14.6017 8.40564 14.6136 8.36107 14.6256 8.31636C14.6256 8.31629 14.5984 8.224 14.6936 8.22975C14.7881 8.23526 14.8869 8.30593 14.9508 8.29694C15.0149 8.28786 15.0339 8.24997 15.0602 8.21932L15.0692 8.20211C15.0779 8.1726 15.0684 8.13988 15.1707 8.16751C15.2932 8.20057 15.3353 8.20318 15.3412 8.28083C15.3464 8.35867 15.3373 8.33208 15.4191 8.39467C15.5006 8.45704 15.5601 8.5112 15.6242 8.53402C15.6885 8.5563 15.7489 8.5278 15.8259 8.64646C15.9026 8.76439 15.9873 8.79986 15.9259 8.80949C15.8647 8.81899 15.9435 8.86718 15.8328 8.86189C15.7218 8.85621 15.7225 8.86885 15.6526 8.86544C15.5824 8.86196 15.5562 8.89249 15.5787 8.91872C15.6014 8.94549 15.8298 9.03785 15.8293 9.03778C15.8434 9.00078 15.8571 8.96377 15.8714 8.92663C15.8714 8.92656 15.9467 8.92415 15.9718 8.88091C15.9966 8.83819 16.015 8.80119 16.0559 8.8032C16.0965 8.80528 16.0092 8.71279 15.9805 8.69203C15.9515 8.67175 16.0083 8.59861 16.0821 8.68447C16.1558 8.77041 16.2332 8.71105 16.0981 8.61568C15.9619 8.51984 15.9143 8.53 15.8929 8.51636C15.8714 8.50236 15.8612 8.45718 15.8612 8.45718C15.8259 8.44467 15.7905 8.43189 15.7553 8.41957C15.7421 8.39506 15.7287 8.37118 15.7154 8.34682C15.7154 8.34675 15.7062 8.31423 15.6334 8.26484C15.5601 8.21604 15.5227 8.18164 15.5227 8.18164C15.5227 8.18164 15.4792 8.06236 15.542 8.06618C15.5863 8.06853 15.5907 8.04343 15.6102 8.05181L15.6476 8.08506C15.7083 8.1536 15.7448 8.18117 15.7664 8.1951C15.7882 8.20933 15.8206 8.27567 15.8771 8.2979C15.9334 8.32038 15.9495 8.35317 15.9775 8.36107C16.0054 8.36883 16.0604 8.37165 16.0604 8.37165L16.0701 8.37921C16.1151 8.41315 16.1592 8.44754 16.2036 8.48113L16.2206 8.62819C16.2357 8.64798 16.2699 8.75682 16.3102 8.75227L16.3284 8.75254C16.3506 8.75609 16.3545 8.77416 16.3676 8.80535C16.3834 8.8437 16.3947 8.91349 16.3947 8.91349C16.4117 8.93706 16.4287 8.96069 16.446 8.98425C16.446 8.98418 16.4954 9.0177 16.522 9.02494C16.5493 9.03256 16.6297 9.04214 16.6297 9.04214C16.6261 9.02118 16.6226 9.00044 16.6194 8.97943L16.652 8.97441C16.6332 8.95278 16.6138 8.93131 16.595 8.90962C16.6247 8.9234 16.6541 8.93726 16.6837 8.95119L16.7212 8.91517C16.6858 8.8783 16.6504 8.84135 16.6146 8.80435C16.5945 8.77416 16.5751 8.74389 16.5555 8.71353C16.5556 8.71353 16.5366 8.63728 16.5735 8.68307C16.6097 8.72878 16.615 8.7101 16.6458 8.67376C16.6762 8.63735 16.6111 8.64673 16.6762 8.63742C16.7356 8.62839 16.7556 8.60309 16.78 8.62236L16.788 8.62986C16.8126 8.65782 16.8744 8.67839 16.8918 8.68375L16.8966 8.68515L16.8918 8.68375C16.8884 8.6862 16.8843 8.69934 16.8882 8.74766C16.893 8.8291 16.9091 8.8674 16.924 8.89906C16.939 8.9307 16.969 8.98787 17.0015 8.9892C17.0343 8.99054 17.0607 8.99816 17.0754 9.02955C17.0908 9.06094 17.1198 9.11809 17.1198 9.1179C17.1609 9.12333 17.2025 9.12921 17.2438 9.13484L17.3022 9.14314L17.344 9.09542C17.344 9.09542 17.3933 9.06055 17.454 9.11187C17.5142 9.16341 17.508 9.16924 17.584 9.16562C17.6601 9.16214 17.624 9.08744 17.6691 9.10137C17.7138 9.11515 17.7775 9.11731 17.809 9.11843L17.8418 9.12987L17.8485 9.1628C17.8508 9.19948 17.8641 9.33389 17.8595 9.36386C17.8551 9.39151 17.8559 9.41942 17.8321 9.44183L17.8262 9.44746C17.7958 9.47075 17.7586 9.48186 17.7611 9.53012C17.763 9.57843 17.7707 9.6087 17.7724 9.65079C17.7738 9.67784 17.781 9.78204 17.8016 9.87693C17.8131 9.92915 17.8285 9.97861 17.8496 10.0108C17.909 10.1009 17.8822 10.0473 17.9794 10.1674C18.0764 10.287 18.0403 10.339 18.1035 10.3988C18.1664 10.4583 18.2149 10.4244 18.2548 10.5647C18.2549 10.5646 18.2335 10.7448 18.3137 10.8037C18.3939 10.8621 18.4235 10.8393 18.4736 10.9494C18.523 11.0594 18.5834 11.0711 18.6259 11.1174L18.6573 11.1625C18.664 11.18 18.6622 11.1964 18.6622 11.2268C18.6622 11.2786 18.6507 11.3187 18.6622 11.3934C18.6744 11.4681 18.6744 11.4971 18.704 11.5315C18.7339 11.5658 18.7279 11.5947 18.8175 11.5656C18.9074 11.5364 18.8356 11.5024 18.9369 11.5021C19.038 11.5018 19.1619 11.4559 19.1619 11.4559C19.1619 11.4558 19.1681 11.3761 19.2444 11.3761C19.3211 11.3758 19.3264 11.3356 19.385 11.3075C19.443 11.2788 19.4842 11.2792 19.4899 11.2392C19.4955 11.1993 19.5244 11.1542 19.5421 11.1542H19.5469C19.561 11.1542 19.5701 11.1542 19.6115 11.1543C19.6581 11.1543 19.6986 11.1543 19.7273 11.1486C19.7563 11.143 19.6691 11.0633 19.7445 11.0635C19.8198 11.0637 19.8426 11.0751 19.8483 11.0242C19.8534 10.9732 19.9283 10.9505 19.9283 10.9505L19.9279 10.8882C19.9279 10.871 19.8929 10.8027 19.9441 10.803C19.9961 10.803 19.9675 10.803 20.0358 10.7466C20.1042 10.6902 20.0981 10.6217 20.0803 10.5932C20.0627 10.5646 20.0627 10.5702 20.0394 10.5473C20.0163 10.5243 19.9868 10.4727 19.9696 10.4725C19.9528 10.4724 19.9005 10.4779 19.8715 10.4547C19.8426 10.4314 19.8017 10.4081 19.7835 10.3734L19.7734 10.3428C19.7626 10.3003 19.7585 10.241 19.7585 10.241C19.7585 10.241 19.639 10.3954 19.5928 10.4179C19.5469 10.4405 19.4298 10.4222 19.4003 10.4392L19.382 10.4382C19.3411 10.4235 19.2634 10.339 19.2273 10.2754C19.1842 10.1993 19.2377 10.2061 19.1713 10.1412C19.1245 10.0956 19.0682 10.0296 19.038 9.97988C19.0255 9.959 19.0177 9.94066 19.0172 9.92849C19.0158 9.88738 19.1182 9.74222 19.1685 9.83116C19.2187 9.92065 19.2744 10.0265 19.3932 10.0686C19.3932 10.0688 19.4478 10.1623 19.5362 10.1809C19.6239 10.1992 19.7264 10.0963 19.7622 10.1314C19.7976 10.1662 19.7937 10.2705 19.9037 10.2884C20.0135 10.3066 20.1003 10.3476 20.1578 10.348C20.1784 10.3482 20.1978 10.3463 20.2217 10.3436C20.2639 10.3392 20.3207 10.334 20.4263 10.3386C20.5919 10.3452 20.6023 10.2879 20.6374 10.3511C20.6717 10.4138 20.6551 10.4651 20.7574 10.4655L20.7914 10.4724C20.839 10.4959 20.821 10.5686 20.9472 10.553L20.9472 10.553Z" fill="#8BC34A"/>
<path fill-rule="evenodd" clip-rule="evenodd" d="M15.2023 8.48384C15.2558 8.48705 15.2636 8.44877 15.2611 8.40533C15.2581 8.3617 15.1711 8.33266 15.1628 8.36606C15.1628 8.36606 15.1488 8.48088 15.2023 8.48384V8.48384Z" fill="#8BC34A"/>
<path fill-rule="evenodd" clip-rule="evenodd" d="M15.1566 8.61073C15.1597 8.66186 15.1628 8.71333 15.166 8.76453L15.2195 8.76742L15.2386 8.73L15.2864 8.7231L15.2976 8.56107L15.2574 8.51562L15.2094 8.51756L15.1678 8.53436L15.1265 8.55625L15.1566 8.61073Z" fill="#8BC34A"/>
<path fill-rule="evenodd" clip-rule="evenodd" d="M13.3789 7.24451C13.4485 7.26954 13.4473 7.24451 13.5137 7.22443C13.5805 7.20375 13.5748 7.20375 13.6697 7.19525C13.7644 7.1868 13.6952 7.0521 13.7161 7.03308C13.7161 7.03302 13.7621 7.06185 13.704 7.01253C13.6453 6.9628 13.6115 6.95083 13.7451 6.96026C13.8784 6.96929 13.7471 6.90491 13.7127 6.88263C13.678 6.86008 13.6623 6.87384 13.5732 6.8675C13.4836 6.86115 13.5222 6.9543 13.5222 6.9543C13.5222 6.9543 13.4899 6.97237 13.4259 6.93275C13.3622 6.89301 13.3467 6.9221 13.3391 7.00176C13.3315 7.08146 13.3586 7.05301 13.4097 7.05683C13.4609 7.06045 13.4059 7.0915 13.3605 7.09833C13.3157 7.10523 13.2895 7.14826 13.2911 7.18352C13.2921 7.21846 13.3097 7.21981 13.3789 7.24451Z" fill="#8BC34A"/>
<path fill-rule="evenodd" clip-rule="evenodd" d="M15.118 4.53844C15.1784 4.5391 15.2002 4.476 15.2558 4.47621C15.3111 4.47695 15.2588 4.54012 15.2588 4.53986C15.1072 4.57264 15.1005 4.56079 15.2166 4.64265C15.3323 4.72431 15.307 4.64419 15.3817 4.67965C15.4566 4.7152 15.4171 4.6808 15.4647 4.58268C15.5122 4.48476 15.4904 4.50785 15.5738 4.49695C15.6576 4.48604 15.6482 4.56762 15.6854 4.58564C15.6854 4.58564 15.7707 4.62178 15.8506 4.62291C15.931 4.62372 15.9464 4.58878 15.911 4.58844C15.8761 4.58797 15.811 4.58718 15.7417 4.51608C15.6724 4.44489 15.4823 4.40821 15.4823 4.40821C15.4823 4.40814 15.5374 4.40881 15.5639 4.42058C15.5906 4.43249 15.7024 4.44514 15.7725 4.44588C15.8428 4.44609 15.8568 4.44032 15.9473 4.40527C16.038 4.37026 15.9866 4.3222 15.9866 4.3222C15.9866 4.3222 15.8313 4.32161 15.7561 4.32139C15.681 4.321 15.6163 4.3206 15.5209 4.32032C15.4256 4.31999 15.3994 4.3493 15.2593 4.34864C15.1191 4.34783 15.0989 4.34783 15.0286 4.34737C14.9585 4.34715 14.9599 4.39909 14.9685 4.46797C14.9772 4.53677 15.0576 4.53778 15.118 4.53844L15.118 4.53844Z" fill="#8BC34A"/>
</svg>
