<svg width="11" height="16" viewBox="0 0 11 16" fill="none" xmlns="http://www.w3.org/2000/svg">
<path d="M9.14296 0.580692L9.14299 0.580753C9.21872 0.722551 9.21058 0.894641 9.12119 1.02863M9.14296 0.580692L6.52887 4.64688H6.70914M9.14296 0.580692C9.06699 0.438609 8.91903 0.35 8.75807 0.35H3.98399C3.80761 0.35 3.64893 0.456173 3.5812 0.618469L3.58117 0.618546L0.716716 7.49333L0.855117 7.55117L0.716655 7.49347L0.716679 7.49342C0.660391 7.62819 0.675455 7.78213 0.756298 7.90348L0.756355 7.90357C0.837312 8.02491 0.973584 8.09776 1.11947 8.09776H3.3293L0.716705 14.3681L9.14296 0.580692ZM9.12119 1.02863L8.99641 0.945388L9.12122 1.02859L9.12119 1.02863ZM9.12119 1.02863L6.70914 4.64688M6.70914 4.64688H9.71288C9.88533 4.64688 10.0421 4.74816 10.1123 4.90631L10.1124 4.90652C10.1822 5.06434 10.1524 5.24878 10.0361 5.37668M6.70914 4.64688L6.60915 4.79688H9.71288C9.82629 4.79688 9.92918 4.86347 9.97522 4.96718L10.0361 5.37668M10.0361 5.37668L9.92511 5.27578M10.0361 5.37668L0.716663 14.3682C0.634874 14.5642 0.706288 14.7904 0.885094 14.9042C0.95751 14.9505 1.03906 14.9726 1.11936 14.9726C1.23869 14.9726 1.35705 14.9237 1.44244 14.8297C1.44245 14.8297 1.44246 14.8297 1.44247 14.8297L10.036 5.37674M10.0361 5.37668L10.036 5.37674M10.0361 5.37668L10.036 5.37674M9.92511 5.27578L10.036 5.37674M9.92511 5.27578L1.33145 14.7288L9.92511 5.27578ZM4.34684 7.41912L4.3469 7.4192C4.42773 7.54054 4.4428 7.69445 4.38654 7.82921L4.34684 7.41912ZM4.34684 7.41912C4.2659 7.2978 4.12976 7.22493 3.98372 7.22493H1.77389L4.27472 1.22301H7.94237L5.53032 4.84126C5.53031 4.84127 5.5303 4.84129 5.53029 4.8413C5.44092 4.97529 5.43279 5.14736 5.50852 5.28914C5.58439 5.4312 5.73241 5.51977 5.89332 5.51977H8.72592L2.49123 12.3782L4.38648 7.82936L4.34684 7.41912ZM3.3918 7.94776H3.5543L3.4918 8.09776L3.3918 7.94776Z" fill="#2E3648" stroke="#2E3648" stroke-width="0.3"/>
</svg>
