<svg width="20" height="20" viewBox="0 0 20 20" fill="none" xmlns="http://www.w3.org/2000/svg">
<path d="M14.9997 3.33325H4.99967C4.0792 3.33325 3.33301 4.07944 3.33301 4.99992V14.9999C3.33301 15.9204 4.0792 16.6666 4.99967 16.6666H14.9997C15.9202 16.6666 16.6663 15.9204 16.6663 14.9999V4.99992C16.6663 4.07944 15.9202 3.33325 14.9997 3.33325Z" stroke="#2E3648" stroke-width="1.5" stroke-linecap="round" stroke-linejoin="round"/>
<path d="M7.08366 7.50008C7.31378 7.50008 7.50033 7.31353 7.50033 7.08341C7.50033 6.8533 7.31378 6.66675 7.08366 6.66675C6.85354 6.66675 6.66699 6.8533 6.66699 7.08341C6.66699 7.31353 6.85354 7.50008 7.08366 7.50008Z" fill="#2E3648" stroke="#2E3648" stroke-width="1.5" stroke-linecap="round" stroke-linejoin="round"/>
<path d="M12.9167 7.50008C13.1468 7.50008 13.3333 7.31353 13.3333 7.08341C13.3333 6.8533 13.1468 6.66675 12.9167 6.66675C12.6865 6.66675 12.5 6.8533 12.5 7.08341C12.5 7.31353 12.6865 7.50008 12.9167 7.50008Z" fill="#2E3648" stroke="#2E3648" stroke-width="1.5" stroke-linecap="round" stroke-linejoin="round"/>
<path d="M12.9167 13.3333C13.1468 13.3333 13.3333 13.1468 13.3333 12.9167C13.3333 12.6865 13.1468 12.5 12.9167 12.5C12.6865 12.5 12.5 12.6865 12.5 12.9167C12.5 13.1468 12.6865 13.3333 12.9167 13.3333Z" fill="#2E3648" stroke="#2E3648" stroke-width="1.5" stroke-linecap="round" stroke-linejoin="round"/>
<path d="M7.08366 13.3333C7.31378 13.3333 7.50033 13.1468 7.50033 12.9167C7.50033 12.6865 7.31378 12.5 7.08366 12.5C6.85354 12.5 6.66699 12.6865 6.66699 12.9167C6.66699 13.1468 6.85354 13.3333 7.08366 13.3333Z" fill="#2E3648" stroke="#2E3648" stroke-width="1.5" stroke-linecap="round" stroke-linejoin="round"/>
</svg>
