<svg width="20" height="20" viewBox="0 0 20 20" fill="none" xmlns="http://www.w3.org/2000/svg">
<path d="M12.5 6.66675H12.5076" stroke="#2E3648" stroke-width="1.5" stroke-linecap="round" stroke-linejoin="round"/>
<path d="M14.1663 3.33325H5.83301C4.4523 3.33325 3.33301 4.45254 3.33301 5.83325V14.1666C3.33301 15.5473 4.4523 16.6666 5.83301 16.6666H14.1663C15.5471 16.6666 16.6663 15.5473 16.6663 14.1666V5.83325C16.6663 4.45254 15.5471 3.33325 14.1663 3.33325Z" stroke="#2E3648" stroke-width="1.5" stroke-linecap="round" stroke-linejoin="round"/>
<path d="M3.33301 12.5L6.66634 9.16663C7.04639 8.80092 7.4775 8.6084 7.91634 8.6084C8.35518 8.6084 8.78629 8.80092 9.16634 9.16663L13.333 13.3333" stroke="#2E3648" stroke-width="1.5" stroke-linecap="round" stroke-linejoin="round"/>
<path d="M11.667 11.6667L12.5003 10.8334C12.8804 10.4677 13.3115 10.2751 13.7503 10.2751C14.1892 10.2751 14.6203 10.4677 15.0003 10.8334L16.667 12.5" stroke="#2E3648" stroke-width="1.5" stroke-linecap="round" stroke-linejoin="round"/>
</svg>
