<svg width="32" height="32" viewBox="0 0 32 32" fill="none" xmlns="http://www.w3.org/2000/svg">
<path d="M20 10.6667H20.0133" stroke="#2E3648" stroke-width="1.5" stroke-linecap="round" stroke-linejoin="round"/>
<path d="M22.6667 5.33325H9.33334C7.1242 5.33325 5.33334 7.12411 5.33334 9.33325V22.6666C5.33334 24.8757 7.1242 26.6666 9.33334 26.6666H22.6667C24.8758 26.6666 26.6667 24.8757 26.6667 22.6666V9.33325C26.6667 7.12411 24.8758 5.33325 22.6667 5.33325Z" stroke="#2E3648" stroke-width="1.5" stroke-linecap="round" stroke-linejoin="round"/>
<path d="M5.33334 19.9999L10.6667 14.6666C11.2748 14.0815 11.9645 13.7734 12.6667 13.7734C13.3688 13.7734 14.0586 14.0815 14.6667 14.6666L21.3333 21.3333" stroke="#2E3648" stroke-width="1.5" stroke-linecap="round" stroke-linejoin="round"/>
<path d="M18.6667 18.6667L20 17.3334C20.6081 16.7482 21.2978 16.4402 22 16.4402C22.7021 16.4402 23.3919 16.7482 24 17.3334L26.6667 20" stroke="#2E3648" stroke-width="1.5" stroke-linecap="round" stroke-linejoin="round"/>
</svg>
