<svg width="20" height="20" viewBox="0 0 20 20" fill="none" xmlns="http://www.w3.org/2000/svg">
<path d="M10.2034 13.0457L12.186 9.48452C11.8189 8.82368 11.2864 8.27294 10.6256 7.88751C9.83629 8.6585 8.75313 9.13571 7.5783 9.13571C6.40346 9.13571 5.32044 8.65847 4.53103 7.88751C3.30112 8.62172 2.4751 9.96173 2.4751 11.4854V13.3762C2.4751 13.78 2.78715 14.0921 3.19101 14.0921H8.56956C8.97342 13.5781 9.54261 13.211 10.2035 13.0458L10.2034 13.0457Z" fill="#8595BC"/>
<path d="M7.57843 8.01599C9.35904 8.01599 10.8092 6.56587 10.8092 4.78522C10.8092 3.0046 9.35907 1.55444 7.57843 1.55444C5.79781 1.55444 4.34766 3.00457 4.34766 4.78522C4.34766 6.56583 5.79778 8.01599 7.57843 8.01599Z" fill="#8595BC"/>
<path d="M17.3442 6.21699C16.5365 5.68471 15.4535 5.96 14.9763 6.80447L11.5068 13.0274C11.8924 13.1008 12.2595 13.2477 12.5899 13.468C12.9202 13.6883 13.214 13.9637 13.4343 14.2941L17.7482 8.6218C18.3355 7.85081 18.1336 6.74937 17.3443 6.21709L17.3442 6.21699Z" fill="#8595BC"/>
<path d="M11.9657 14.4042C11.0846 13.8167 9.89131 14.0738 9.32225 14.9549C8.69815 15.9095 9.359 17.1577 8.27584 18.406C8.07391 18.6262 8.22078 18.975 8.53283 18.975C10.6438 18.975 11.9289 17.9654 12.5346 17.0475C13.1038 16.1664 12.8468 14.9733 11.9657 14.4041L11.9657 14.4042Z" fill="#8595BC"/>
</svg>
