<svg width="21" height="20" viewBox="0 0 21 20" fill="none" xmlns="http://www.w3.org/2000/svg">
<path d="M10.0049 6.86279C9.93449 6.23991 9.65713 4.07227 9.15278 3.47657C8.56189 2.77858 7.60384 2.77858 7.01295 3.47657C6.42206 4.17456 6.42206 5.30626 7.01295 6.00424C7.36124 6.41567 8.34485 6.69917 9.09375 6.86276L10.0049 6.86279Z" fill="#8595BC"/>
<path d="M13.6587 3.08163C13.0022 2.30612 11.9378 2.30612 11.2812 3.08163C10.7155 3.74985 10.4069 6.19745 10.3323 6.86277H11.2588C12.1002 6.68446 13.258 6.36351 13.6589 5.88997C14.3155 5.11446 14.3155 3.85706 13.6589 3.08155L13.6587 3.08163Z" fill="#8595BC"/>
<path d="M12.0017 10.3012H15.196V16.6666H12.0017V10.3012Z" fill="#8595BC"/>
<path d="M5.33322 10.3012H8.52753V16.6666H5.33322V10.3012Z" fill="#8595BC"/>
<path d="M8.52751 9.70618V7.45816H4.59792V9.70618H8.52751Z" fill="#8595BC"/>
<path d="M15.9313 9.70618V7.45816H12.0017V9.70618H15.9313Z" fill="#8595BC"/>
<path d="M9.03122 7.45816H11.4976V16.6667H9.03122V7.45816Z" fill="#8595BC"/>
</svg>
