<svg width="18" height="17" viewBox="0 0 18 17" fill="none" xmlns="http://www.w3.org/2000/svg">
<path d="M9.00002 1C10.9466 2.72215 13.4871 3.61881 16.0834 3.5C16.4614 4.78585 16.577 6.13456 16.4235 7.46598C16.2699 8.79741 15.8503 10.0844 15.1895 11.2504C14.5288 12.4165 13.6403 13.4378 12.5771 14.2537C11.5138 15.0696 10.2973 15.6635 9.00002 16C7.7027 15.6635 6.48626 15.0696 5.42298 14.2537C4.3597 13.4378 3.47128 12.4165 2.81052 11.2504C2.14976 10.0844 1.73014 8.79741 1.57659 7.46598C1.42304 6.13456 1.5387 4.78585 1.91669 3.5C4.51296 3.61881 7.0535 2.72215 9.00002 1" stroke="#2E3648" stroke-width="1.5" stroke-linecap="round" stroke-linejoin="round"/>
</svg>
