<svg width="20" height="20" viewBox="0 0 20 20" fill="none" xmlns="http://www.w3.org/2000/svg">
<path d="M3.33325 5.8335V5.00016C3.33325 4.55814 3.50885 4.13421 3.82141 3.82165C4.13397 3.50909 4.55789 3.3335 4.99992 3.3335H6.66658" stroke="#2E3648" stroke-width="1.5" stroke-linecap="round" stroke-linejoin="round"/>
<path d="M3.33325 14.1665V14.9998C3.33325 15.4419 3.50885 15.8658 3.82141 16.1783C4.13397 16.4909 4.55789 16.6665 4.99992 16.6665H6.66658" stroke="#2E3648" stroke-width="1.5" stroke-linecap="round" stroke-linejoin="round"/>
<path d="M13.3333 3.3335H14.9999C15.4419 3.3335 15.8659 3.50909 16.1784 3.82165C16.491 4.13421 16.6666 4.55814 16.6666 5.00016V5.8335" stroke="#2E3648" stroke-width="1.5" stroke-linecap="round" stroke-linejoin="round"/>
<path d="M13.3333 16.6665H14.9999C15.4419 16.6665 15.8659 16.4909 16.1784 16.1783C16.491 15.8658 16.6666 15.4419 16.6666 14.9998V14.1665" stroke="#2E3648" stroke-width="1.5" stroke-linecap="round" stroke-linejoin="round"/>
<path d="M4.16675 10H15.8334" stroke="#2E3648" stroke-width="1.5" stroke-linecap="round" stroke-linejoin="round"/>
</svg>
