<svg width="32" height="33" viewBox="0 0 32 33" fill="none" xmlns="http://www.w3.org/2000/svg">
<circle cx="16" cy="16.5" r="16" fill="url(#paint0_linear_17701_113028)"/>
<path d="M15.9432 23.4993C16.6683 23.4993 17.2615 22.884 17.2615 22.1318H14.6248C14.6248 22.884 15.2115 23.4993 15.9432 23.4993ZM19.8982 19.3968V15.978C19.8982 13.8788 18.8172 12.1216 16.932 11.6566V11.1917C16.932 10.6241 16.4903 10.166 15.9432 10.166C15.3961 10.166 14.9544 10.6241 14.9544 11.1917V11.6566C13.0626 12.1216 11.9881 13.872 11.9881 15.978V19.3968L11.1378 20.2788C10.7225 20.7096 11.0126 21.4481 11.5992 21.4481H20.2806C20.8672 21.4481 21.1639 20.7096 20.7486 20.2788L19.8982 19.3968Z" fill="#F0F0F3"/>
<defs>
<linearGradient id="paint0_linear_17701_113028" x1="34.5896" y1="-6.03062" x2="-9.40269" y2="-1.70872" gradientUnits="userSpaceOnUse">
<stop stop-color="#7A1CFC" stop-opacity="0.19"/>
<stop offset="1" stop-color="#00FCFF"/>
</linearGradient>
</defs>
</svg>
