<svg width="20" height="20" viewBox="0 0 20 20" fill="none" xmlns="http://www.w3.org/2000/svg">
<path fill-rule="evenodd" clip-rule="evenodd" d="M9.88738 0.76062C14.9285 0.76062 19.0141 4.89671 19.0141 10.0001C19.0141 15.1034 14.9285 19.2395 9.88738 19.2395C4.84627 19.2395 0.76062 15.1034 0.76062 10.0001C0.76062 4.89671 4.84627 0.76062 9.88738 0.76062Z" fill="url(#paint0_radial_19933_1163)"/>
<path d="M6.56102 7.89598C8.39707 6.08057 11.3775 6.08057 13.2136 7.89598L13.4346 8.11614C13.5273 8.20636 13.5273 8.35434 13.4346 8.44457L12.6788 9.19166C12.6325 9.23858 12.5576 9.23858 12.5112 9.19166L12.2082 8.8921C10.9248 7.62529 8.84984 7.62529 7.56639 8.8921L7.24196 9.21332C7.19562 9.26024 7.12075 9.26024 7.0744 9.21332L6.31859 8.46622C6.2259 8.376 6.2259 8.22802 6.31859 8.13779L6.56102 7.89598ZM14.7787 9.4407L15.4525 10.1048C15.5452 10.195 15.5452 10.343 15.4525 10.4332L12.4185 13.4324C12.3259 13.5227 12.1761 13.5227 12.087 13.4324L9.93365 11.303C9.91226 11.2814 9.87304 11.2814 9.85165 11.303L7.6983 13.4324C7.60561 13.5227 7.45587 13.5227 7.36674 13.4324L4.32211 10.4332C4.22942 10.343 4.22942 10.195 4.32211 10.1048L4.99593 9.4407C5.08862 9.35047 5.23836 9.35047 5.32748 9.4407L7.48083 11.5701C7.50222 11.5918 7.54144 11.5918 7.56283 11.5701L9.71617 9.4407C9.80887 9.35047 9.9586 9.35047 10.0477 9.4407L12.2011 11.5701C12.2225 11.5918 12.2617 11.5918 12.2831 11.5701L14.4364 9.4407C14.5362 9.35047 14.686 9.35047 14.7787 9.4407Z" fill="white"/>
<defs>
<radialGradient id="paint0_radial_19933_1163" cx="0" cy="0" r="1" gradientUnits="userSpaceOnUse" gradientTransform="translate(0.760677 10.0003) scale(18.2535 18.4789)">
<stop stop-color="#5D9DF6"/>
<stop offset="1" stop-color="#006FFF"/>
</radialGradient>
</defs>
</svg>
