<svg width="24" height="24" viewBox="0 0 24 24" fill="none" xmlns="http://www.w3.org/2000/svg">
<path d="M20.4768 8.64851C19.5887 6.53887 17.9484 4.83456 15.8743 3.86633C13.8002 2.89817 11.4405 2.73518 9.25306 3.4091C7.06546 4.08288 5.20632 5.54565 4.03684 7.5131C2.86711 9.48066 2.47029 11.8125 2.92334 14.0562C3.37629 16.2999 4.64688 18.2953 6.48836 19.6547C8.32988 21.0142 10.6109 21.641 12.8885 21.4133C15.1661 21.1858 17.2777 20.1198 18.8137 18.4228C20.3497 16.7257 21.2002 14.5184 21.2002 12.2294C21.2019 10.9993 20.9559 9.78152 20.4771 8.6483L20.4768 8.64851ZM12 5.62961C12.3713 5.62961 12.7274 5.77707 12.99 6.03971C13.2525 6.30221 13.4 6.65832 13.4 7.02957C13.4 7.40095 13.2525 7.75708 12.99 8.01957C12.7274 8.28207 12.3713 8.42966 12 8.42966C11.6288 8.42966 11.2727 8.28207 11.01 8.01957C10.7475 7.75707 10.6001 7.40095 10.6001 7.02957C10.6001 6.65832 10.7475 6.3022 11.01 6.03971C11.2727 5.77707 11.6288 5.62961 12 5.62961ZM10.8 10.4296H13.2V18.8296H10.8V10.4296Z" fill="#F0F0F3"/>
</svg>
