<svg width="22" height="22" viewBox="0 0 22 22" fill="none" xmlns="http://www.w3.org/2000/svg">
<path d="M11 1.98198C13.9371 1.98198 14.285 1.9932 15.4449 2.04613C16.5174 2.09503 17.0999 2.27423 17.4875 2.42487C18.0009 2.62442 18.3674 2.86278 18.7523 3.24768C19.1372 3.63263 19.3756 3.99906 19.5751 4.51251C19.7258 4.90012 19.905 5.48256 19.9539 6.55505C20.0068 7.71495 20.018 8.06286 20.018 11C20.018 13.9371 20.0068 14.285 19.9539 15.4449C19.905 16.5174 19.7258 17.0998 19.5751 17.4874C19.3756 18.0009 19.1372 18.3673 18.7523 18.7522C18.3674 19.1372 18.0009 19.3755 17.4875 19.5751C17.0999 19.7257 16.5174 19.9049 15.4449 19.9538C14.2852 20.0067 13.9373 20.018 11 20.018C8.06266 20.018 7.71483 20.0067 6.55505 19.9538C5.48257 19.9049 4.90012 19.7257 4.51251 19.5751C3.99906 19.3755 3.63263 19.1372 3.24773 18.7522C2.86282 18.3673 2.62441 18.0009 2.42487 17.4874C2.27422 17.0998 2.09503 16.5174 2.04612 15.4449C1.9932 14.285 1.98198 13.9371 1.98198 11C1.98198 8.06286 1.9932 7.71495 2.04612 6.55505C2.09503 5.48256 2.27422 4.90012 2.42487 4.51251C2.62441 3.99906 2.86278 3.63263 3.24773 3.24773C3.63263 2.86278 3.99906 2.62442 4.51251 2.42487C4.90012 2.27423 5.48257 2.09503 6.55505 2.04613C7.71496 1.9932 8.06288 1.98198 11 1.98198ZM11 1.14441e-05C8.01258 1.14441e-05 7.63798 0.0126741 6.46471 0.0662067C5.29389 0.119608 4.49426 0.305575 3.79458 0.577473C3.07123 0.858585 2.45779 1.23471 1.84623 1.84623C1.2347 2.45779 0.858576 3.07124 0.577507 3.79458C0.305565 4.49426 0.119597 5.29389 0.0661955 6.4647C0.0126627 7.63797 0 8.01256 0 11C0 13.9874 0.0126627 14.362 0.0661955 15.5352C0.119597 16.7061 0.305565 17.5057 0.577507 18.2054C0.858576 18.9287 1.2347 19.5422 1.84623 20.1537C2.45779 20.7652 3.07123 21.1414 3.79458 21.4224C4.49426 21.6944 5.29389 21.8803 6.46471 21.9337C7.63798 21.9873 8.01258 21.9999 11 21.9999C13.9874 21.9999 14.362 21.9873 15.5353 21.9337C16.7061 21.8803 17.5057 21.6944 18.2054 21.4224C18.9288 21.1414 19.5422 20.7652 20.1538 20.1537C20.7653 19.5422 21.1414 18.9287 21.4225 18.2054C21.6944 17.5057 21.8804 16.7061 21.9338 15.5352C21.9873 14.362 22 13.9874 22 11C22 8.01256 21.9873 7.63797 21.9338 6.4647C21.8804 5.29389 21.6944 4.49426 21.4225 3.79458C21.1414 3.07124 20.7653 2.45779 20.1538 1.84623C19.5422 1.23471 18.9288 0.858585 18.2054 0.577473C17.5057 0.305575 16.7061 0.119608 15.5353 0.0662067C14.362 0.0126741 13.9874 1.14441e-05 11 1.14441e-05Z" fill="#DF65B0"/>
<path d="M11.0051 5.35642C7.88541 5.35642 5.35645 7.88538 5.35645 11.005C5.35645 14.1247 7.88541 16.6537 11.0051 16.6537C14.1248 16.6537 16.6537 14.1247 16.6537 11.005C16.6537 7.88538 14.1248 5.35642 11.0051 5.35642ZM11.0051 14.6717C8.98004 14.6717 7.33842 13.0301 7.33842 11.005C7.33842 8.98 8.98004 7.33839 11.0051 7.33839C13.0301 7.33839 14.6718 8.98 14.6718 11.005C14.6718 13.0301 13.0301 14.6717 11.0051 14.6717Z" fill="#DF65B0"/>
<path d="M18.1966 5.12985C18.1966 5.85883 17.6056 6.44983 16.8766 6.44983C16.1476 6.44983 15.5566 5.85883 15.5566 5.12985C15.5566 4.40083 16.1476 3.80983 16.8766 3.80983C17.6056 3.80983 18.1966 4.40083 18.1966 5.12985Z" fill="#DF65B0"/>
</svg>
