<svg width="22" height="22" viewBox="0 0 22 22" fill="none" xmlns="http://www.w3.org/2000/svg">
<circle cx="11" cy="11" r="11" fill="#0077B5"/>
<path fill-rule="evenodd" clip-rule="evenodd" d="M8.12611 5.65616C8.12611 6.34096 7.60469 6.89516 6.78929 6.89516C6.00565 6.89516 5.48423 6.34096 5.50036 5.65616C5.48423 4.93808 6.00563 4.40002 6.80491 4.40002C7.60468 4.40002 8.11048 4.93808 8.12611 5.65616ZM5.56592 15.8505V7.87394H8.04492V15.85H5.56592V15.8505Z" fill="white"/>
<path fill-rule="evenodd" clip-rule="evenodd" d="M10.0319 10.4196C10.0319 9.42469 9.99909 8.5765 9.96631 7.87506H12.1195L12.234 8.96782H12.2829C12.6092 8.46203 13.4246 7.69604 14.7458 7.69604C16.3766 7.69604 17.6 8.77266 17.6 11.1205V15.8516H15.121V11.4312C15.121 10.403 14.7624 9.70203 13.8653 9.70203C13.18 9.70203 12.7726 10.175 12.6097 10.6314C12.5442 10.7948 12.5119 11.0227 12.5119 11.2517V15.8516H10.0329V10.4196H10.0319Z" fill="white"/>
</svg>
