<svg width="42" height="42" viewBox="0 0 42 42" fill="none" xmlns="http://www.w3.org/2000/svg">
<rect width="42" height="42" rx="5.16797" fill="url(#paint0_linear_14804_89566)" fill-opacity="0.4" style="mix-blend-mode:hard-light"/>
<rect width="42" height="42" rx="5.16797" fill="#4969F8" fill-opacity="0.2"/>
<rect x="3.53857" y="3.53833" width="34.9234" height="34.9234" rx="4.42969" fill="url(#paint1_linear_14804_89566)" fill-opacity="0.4" style="mix-blend-mode:hard-light"/>
<rect x="3.53857" y="3.53833" width="34.9234" height="34.9234" rx="4.42969" fill="#4969F8" fill-opacity="0.2"/>
<rect x="3.53857" y="3.53833" width="34.9234" height="34.9234" rx="4.42969" stroke="#F0F0F3" stroke-width="1.47656"/>
<g clip-path="url(#clip0_14804_89566)">
<path d="M14.4091 13.8914C14.4091 14.9772 13.5288 15.8576 12.4428 15.8576C11.3569 15.8576 10.4766 14.9773 10.4766 13.8914C10.4766 12.8055 11.3569 11.9251 12.4428 11.9251C13.5288 11.9251 14.4091 12.8055 14.4091 13.8914Z" fill="#F0F0F3"/>
<path d="M14.4091 20.8182C14.4091 21.9041 13.5288 22.7845 12.4428 22.7845C11.3569 22.7845 10.4766 21.9041 10.4766 20.8182C10.4766 19.7323 11.3569 18.852 12.4428 18.852C13.5288 18.852 14.4091 19.7323 14.4091 20.8182Z" fill="#F0F0F3"/>
<path d="M14.4091 27.7451C14.4091 28.831 13.5288 29.7114 12.4428 29.7114C11.3569 29.7114 10.4766 28.831 10.4766 27.7451C10.4766 26.6592 11.3569 25.7789 12.4428 25.7789C13.5288 25.7789 14.4091 26.6592 14.4091 27.7451" fill="#F0F0F3"/>
<path d="M18.3412 15.8577H29.1554C29.8578 15.8577 30.5069 15.4829 30.8582 14.8745C31.2094 14.2662 31.2094 13.5167 30.8582 12.9083C30.5069 12.3 29.8579 11.9252 29.1554 11.9252H18.3412C17.6387 11.9252 16.9896 12.3 16.6384 12.9083C16.2872 13.5167 16.2872 14.2662 16.6384 14.8745C16.9895 15.4829 17.6387 15.8577 18.3412 15.8577Z" fill="#F0F0F3"/>
<path d="M29.1558 18.8521H18.3417C17.6392 18.8521 16.9901 19.2269 16.6389 19.8353C16.2877 20.4436 16.2877 21.1931 16.6389 21.8014C16.99 22.4098 17.6392 22.7846 18.3417 22.7846H29.1558C29.8583 22.7846 30.5074 22.4098 30.8587 21.8014C31.2098 21.1931 31.2098 20.4436 30.8587 19.8353C30.5074 19.2269 29.8583 18.8521 29.1558 18.8521V18.8521Z" fill="#F0F0F3"/>
<path d="M29.1558 25.779H18.3417C17.6392 25.779 16.9901 26.1537 16.6389 26.7622C16.2877 27.3705 16.2877 28.12 16.6389 28.7284C16.99 29.3367 17.6392 29.7115 18.3417 29.7115H29.1558C29.8583 29.7115 30.5074 29.3367 30.8587 28.7284C31.2098 28.12 31.2098 27.3705 30.8587 26.7622C30.5074 26.1537 29.8583 25.779 29.1558 25.779V25.779Z" fill="#F0F0F3"/>
</g>
<defs>
<linearGradient id="paint0_linear_14804_89566" x1="-4.92593" y1="-24.1111" x2="56.2593" y2="71.8148" gradientUnits="userSpaceOnUse">
<stop stop-color="white"/>
<stop offset="1" stop-color="white" stop-opacity="0"/>
</linearGradient>
<linearGradient id="paint1_linear_14804_89566" x1="-1.46885" y1="-18.0962" x2="51.5583" y2="65.0396" gradientUnits="userSpaceOnUse">
<stop stop-color="white"/>
<stop offset="1" stop-color="white" stop-opacity="0"/>
</linearGradient>
<clipPath id="clip0_14804_89566">
<rect width="22.12" height="22.12" fill="white" transform="translate(9.80029 9.79999)"/>
</clipPath>
</defs>
</svg>
