<svg width="81" height="82" viewBox="0 0 81 82" fill="none" xmlns="http://www.w3.org/2000/svg">
<path d="M29.9539 30.2096C30.385 33.5758 32.3128 36.5512 35.1811 38.255C38.0505 39.9596 41.5299 40.1933 44.5918 38.8851L44.3299 38.272L44.5919 38.8851C47.6524 37.5774 49.9395 34.8824 50.7908 31.6014C51.6426 28.321 50.9646 24.8175 48.9519 22.1206C46.9922 19.494 43.9806 17.921 40.7618 17.8417L40.7585 17.8387L40.4987 17.8385C37.6702 17.8358 34.9616 18.9943 32.9717 21.0517M29.9539 30.2096L30.5869 30.1285L29.9539 30.2096C29.9539 30.2096 29.9539 30.2096 29.9539 30.2096ZM29.9539 30.2096C29.5228 26.8443 30.6349 23.4596 32.9717 21.0517M32.9717 21.0517C32.9715 21.052 32.9712 21.0523 32.9709 21.0526L33.4501 21.516L32.9717 21.0517ZM45.0495 24.0574L45.0754 24.0842C46.273 25.3296 46.9474 27.0166 46.9452 28.7783V28.7787C46.9438 30.858 46.0037 32.8124 44.4111 34.0694C42.8199 35.3254 40.7572 35.7453 38.8269 35.2118C36.896 34.6779 35.307 33.2471 34.5366 31.3289L34.5365 31.3288C33.7656 29.4101 33.9054 27.2308 34.9133 25.4345C35.9205 23.6394 37.6756 22.4365 39.6566 22.1684C41.6371 21.9003 43.6303 22.5949 45.0495 24.0574ZM44.7053 65.0408L49.5291 58.0593C51.1838 58.7468 52.698 59.7554 53.9878 61.0335L53.9878 61.0336L53.9966 61.042C55.1109 62.1062 55.7747 63.585 55.8376 65.1573C55.8318 67.299 54.3618 69.4057 51.7385 71.0583C48.3126 73.0371 44.4364 74.035 40.5124 73.9487L40.4976 73.9484L40.4828 73.9487C36.5574 74.0365 32.6798 73.0391 29.2527 71.0599C26.6298 69.4077 25.1592 67.3004 25.1535 65.1588C25.2164 63.5865 25.8806 62.1074 26.9952 61.0438L26.9953 61.0438L27.004 61.0352C28.2945 59.7574 29.8086 58.7485 31.4633 58.0615L36.2854 65.0405C36.2858 65.0411 36.2862 65.0416 36.2866 65.0422C36.7584 65.7329 37.3863 66.2977 38.1178 66.6879L38.1222 66.6902C39.6126 67.4711 41.3778 67.4711 42.8683 66.6902L42.8726 66.6879C43.6042 66.2977 44.232 65.7328 44.7042 65.0423C44.7046 65.0418 44.7049 65.0413 44.7053 65.0408ZM41.2854 62.586L41.2345 62.6598C41.1562 62.7592 41.0605 62.8401 40.9538 62.8986C40.6657 63.0387 40.3337 63.0383 40.0459 62.8974C39.9143 62.8273 39.7995 62.7238 39.7129 62.5944L39.713 62.5944L39.7072 62.5861L26.4561 43.4152C26.4561 43.4152 26.456 43.4151 26.456 43.4151C23.0654 38.5085 20.9182 32.6637 20.9182 27.0204H20.9183L20.9182 27.012C20.8551 22.0091 22.7763 17.2007 26.2314 13.6972L26.2334 13.6951C30.0289 9.81278 35.158 7.63737 40.4985 7.63737C45.8391 7.63737 50.9677 9.81265 54.7637 13.6951L54.7649 13.6963C58.1028 17.0935 60.0093 21.7044 60.0812 26.531V27.0676C60.0812 32.5704 58.0361 38.35 54.5389 43.4154L41.2854 62.586Z" fill="url(#paint0_linear_19852_5763)" stroke="url(#paint1_linear_19852_5763)" stroke-width="1.33333"/>
<defs>
<linearGradient id="paint0_linear_19852_5763" x1="21.4379" y1="12.3272" x2="67.4529" y2="17.7507" gradientUnits="userSpaceOnUse">
<stop stop-color="#4885DA"/>
<stop offset="1" stop-color="#4831C1"/>
</linearGradient>
<linearGradient id="paint1_linear_19852_5763" x1="21.4379" y1="12.3272" x2="67.4529" y2="17.7507" gradientUnits="userSpaceOnUse">
<stop stop-color="#4885DA"/>
<stop offset="1" stop-color="#4831C1"/>
</linearGradient>
</defs>
</svg>
