<svg width="44" height="44" viewBox="0 0 44 44" fill="none" xmlns="http://www.w3.org/2000/svg">
<path d="M21.225 18.4612C21.4124 17.1776 21.569 15.9394 21.6992 14.7582C21.771 14.1069 21.2982 13.52 20.6468 13.4512C15.8431 12.9447 11.6366 13.3326 9.30062 13.6619C8.8059 13.7322 8.50585 14.2401 8.67856 14.7041C8.68442 14.7187 8.69027 14.7304 8.69759 14.7436C8.90104 15.0861 11.8576 20.0947 13.15 23.6953C14.8391 27.7759 16.5662 34.175 16.5662 34.175C16.8487 34.8747 17.8615 34.8029 18.043 34.0711C18.9476 30.4325 20.379 24.2485 21.2236 18.4598L21.225 18.4612Z" fill="#010101"/>
<path d="M16.5135 11.7167C17.7181 11.7314 19.0573 11.7958 20.4844 11.9392C21.2792 12.0197 21.9846 11.4299 22.0461 10.6336C22.2627 7.84538 22.3345 5.55622 22.3535 3.98864C22.3623 3.31536 21.5938 2.92604 21.0537 3.32854C21.0537 3.32854 18.8831 5.36156 16.5633 7.08867C14.5127 8.61526 10.6691 11.0727 10.6691 11.0727C10.2681 11.3728 10.514 12.0095 11.0131 11.9597C12.5221 11.8075 14.3985 11.6919 16.515 11.7167H16.5135Z" fill="#010101"/>
<path d="M24.7685 12.5057C26.6303 12.873 28.5652 13.3956 30.4914 14.1288C31.2188 14.4055 31.857 13.5609 31.3915 12.936C31.3915 12.936 29.1126 10.3146 27.7148 8.42206C26.3053 6.51346 24.6104 3.84083 24.6104 3.84083C24.3645 3.51004 23.8391 3.67982 23.8347 4.09257C23.8127 5.70113 23.7366 8.02687 23.5141 10.8429C23.4512 11.6348 23.9898 12.352 24.77 12.5057H24.7685Z" fill="#010101"/>
<path d="M24.5211 13.9591C23.8639 13.8317 23.239 14.2913 23.1644 14.9558C23.0341 16.1223 22.8789 17.3445 22.6945 18.6076C21.8456 24.4373 20.4039 30.6593 19.495 34.3199C19.3954 34.7224 19.9135 34.9771 20.1726 34.6537C20.1726 34.6537 24.7129 27.9413 27.6578 24.5193L27.6607 24.5164C29.1419 22.5082 33.4201 18.0778 33.4201 18.0778C33.7246 17.6958 33.609 17.1279 33.1757 16.9025C30.3523 15.4359 27.387 14.5152 24.5211 13.9576V13.9591Z" fill="#010101"/>
<path d="M17.4415 35.6665L14.6708 38.0347C14.0853 38.5353 14.3385 39.4925 15.0952 39.6359L20.0175 40.5756C20.7552 40.7161 21.3274 39.9418 20.9762 39.2788L19.2491 36.0104C18.8963 35.3416 18.0137 35.1732 17.44 35.665L17.4415 35.6665Z" fill="#010101"/>
</svg>
