<svg width="20" height="20" viewBox="0 0 20 20" fill="none" xmlns="http://www.w3.org/2000/svg">
<path d="M5 16.6667C6.38071 16.6667 7.5 15.5475 7.5 14.1667C7.5 12.786 6.38071 11.6667 5 11.6667C3.61929 11.6667 2.5 12.786 2.5 14.1667C2.5 15.5475 3.61929 16.6667 5 16.6667Z" stroke="#8595BC" stroke-width="1.5" stroke-linecap="round" stroke-linejoin="round"/>
<path d="M13.333 16.6667C14.7137 16.6667 15.833 15.5475 15.833 14.1667C15.833 12.786 14.7137 11.6667 13.333 11.6667C11.9523 11.6667 10.833 12.786 10.833 14.1667C10.833 15.5475 11.9523 16.6667 13.333 16.6667Z" stroke="#8595BC" stroke-width="1.5" stroke-linecap="round" stroke-linejoin="round"/>
<path d="M7.5 14.1666V3.33325H15.8333V14.1666" stroke="#8595BC" stroke-width="1.5" stroke-linecap="round" stroke-linejoin="round"/>
<path d="M7.5 6.66675H15.8333" stroke="#8595BC" stroke-width="1.5" stroke-linecap="round" stroke-linejoin="round"/>
</svg>
