<svg width="60" height="16" viewBox="0 0 60 16" fill="none" xmlns="http://www.w3.org/2000/svg">
<path d="M30.0365 3.46297V12.537C30.0361 12.5713 30.0222 12.604 29.9978 12.6282C29.9735 12.6524 29.9405 12.6662 29.9061 12.6667H28.9565C28.7386 12.6668 28.5241 12.6127 28.3326 12.5091C28.1412 12.4055 27.979 12.2559 27.8609 12.0738L23.5513 5.45408L23.6991 8.7605V12.537C23.6987 12.5713 23.6848 12.604 23.6604 12.6282C23.6361 12.6524 23.6032 12.6662 23.5687 12.6667H22.3131C22.2786 12.6662 22.2457 12.6524 22.2213 12.6282C22.197 12.604 22.1831 12.5713 22.1826 12.537V3.46297C22.1831 3.42872 22.197 3.39601 22.2213 3.3718C22.2457 3.34758 22.2786 3.33378 22.3131 3.33334H23.2574C23.4751 3.33345 23.6893 3.38757 23.8807 3.4908C24.072 3.59402 24.2344 3.74307 24.3531 3.92445L28.6626 10.5338L28.5287 7.23951V3.46297C28.5287 3.42859 28.5424 3.39561 28.5669 3.3713C28.5914 3.34699 28.6245 3.33334 28.6591 3.33334H29.9148C29.9477 3.33593 29.9785 3.35067 30.001 3.37466C30.0235 3.39865 30.0362 3.43015 30.0365 3.46297Z" fill="white"/>
<path d="M42.8695 12.6667H41.5408C41.5201 12.6665 41.4996 12.6614 41.4813 12.6517C41.4629 12.6421 41.4471 12.6283 41.4352 12.6114C41.4233 12.5945 41.4156 12.575 41.4128 12.5545C41.41 12.5341 41.4122 12.5133 41.4191 12.4938L44.9391 3.45778C44.9541 3.41995 44.9806 3.38767 45.0149 3.36539C45.0491 3.34311 45.0895 3.33191 45.1304 3.33333H46.7947C46.8342 3.33367 46.8726 3.34569 46.9051 3.36786C46.9377 3.39003 46.9628 3.42134 46.9773 3.45778L50.4869 12.4938C50.4938 12.5133 50.496 12.5341 50.4932 12.5545C50.4904 12.575 50.4827 12.5945 50.4708 12.6114C50.4589 12.6283 50.4431 12.6421 50.4247 12.6517C50.4064 12.6614 50.3859 12.6665 50.3652 12.6667H49.0365C49.0099 12.6668 48.9839 12.6589 48.9618 12.6441C48.9398 12.6293 48.9228 12.6083 48.913 12.5837L46.0765 5.15161C46.0673 5.12658 46.0507 5.10496 46.0287 5.08968C46.0068 5.0744 45.9807 5.0662 45.9539 5.0662C45.9271 5.0662 45.9009 5.0744 45.879 5.08968C45.8571 5.10496 45.8404 5.12658 45.8313 5.15161L42.9947 12.5837C42.9848 12.6086 42.9675 12.6298 42.9452 12.6446C42.9228 12.6594 42.8964 12.6671 42.8695 12.6667Z" fill="white"/>
<path d="M59.7114 12.4575L57.0714 9.10618C58.5618 8.82618 59.4331 7.82716 59.4331 6.29408C59.4331 4.53284 58.28 3.33334 56.24 3.33334H52.5583C52.5066 3.33334 52.4571 3.35373 52.4206 3.39003C52.384 3.42634 52.3635 3.47558 52.3635 3.52692C52.3635 3.69034 52.3959 3.85216 52.4588 4.00314C52.5218 4.15413 52.614 4.29131 52.7303 4.40687C52.8466 4.52243 52.9846 4.61409 53.1365 4.67663C53.2884 4.73917 53.4513 4.77136 53.6157 4.77136H56.087C57.32 4.77136 57.9114 5.39877 57.9114 6.30445C57.9114 7.21013 57.334 7.86 56.087 7.86H52.5583C52.5065 7.86046 52.4569 7.88124 52.4205 7.91781C52.384 7.95439 52.3635 8.00381 52.3635 8.05531V12.5491C52.3635 12.5835 52.3773 12.6165 52.4017 12.6408C52.4262 12.6651 52.4594 12.6788 52.494 12.6788H53.7496C53.7841 12.6783 53.817 12.6645 53.8413 12.6403C53.8657 12.6161 53.8796 12.5834 53.88 12.5491V9.18741H55.3287L57.6192 12.1585C57.7419 12.3175 57.8999 12.4461 58.0809 12.5343C58.262 12.6224 58.4611 12.6677 58.6627 12.6667H59.6157C59.6395 12.6654 59.6624 12.6576 59.6821 12.6442C59.7018 12.6309 59.7174 12.6124 59.7272 12.5909C59.7371 12.5693 59.7408 12.5455 59.738 12.522C59.7352 12.4985 59.726 12.4762 59.7114 12.4575Z" fill="white"/>
<path d="M38.8992 3.33334H33.0731C33.027 3.33334 32.9827 3.35155 32.9501 3.38396C32.9175 3.41637 32.8992 3.46034 32.8992 3.50618C32.8992 3.84218 33.0335 4.16443 33.2726 4.40202C33.5116 4.63961 33.8359 4.77309 34.174 4.77309H38.8992C38.9164 4.77332 38.9334 4.77013 38.9494 4.7637C38.9653 4.75726 38.9798 4.74772 38.9919 4.73564C39.0041 4.72356 39.0137 4.70917 39.0202 4.69334C39.0266 4.67751 39.0298 4.66055 39.0296 4.64346V3.46297C39.0296 3.42859 39.0159 3.39561 38.9914 3.3713C38.9669 3.34699 38.9338 3.33334 38.8992 3.33334ZM38.8992 11.2269H34.5514C34.5169 11.2265 34.484 11.2127 34.4596 11.1885C34.4353 11.1642 34.4214 11.1315 34.4209 11.0973V8.75704C34.4209 8.72266 34.4347 8.68969 34.4591 8.66538C34.4836 8.64107 34.5168 8.62741 34.5514 8.62741H38.5705C38.6051 8.62741 38.6383 8.61375 38.6627 8.58944C38.6872 8.56513 38.7009 8.53216 38.7009 8.49778V7.30864C38.7009 7.27426 38.6872 7.24129 38.6627 7.21698C38.6383 7.19267 38.6051 7.17901 38.5705 7.17901H33.094C33.0421 7.17947 32.9926 7.20025 32.9561 7.23683C32.9196 7.27341 32.8992 7.32282 32.8992 7.37432V12.4644C32.8989 12.49 32.9038 12.5154 32.9135 12.5391C32.9232 12.5627 32.9375 12.5843 32.9556 12.6024C32.9737 12.6206 32.9953 12.635 33.019 12.6449C33.0428 12.6547 33.0682 12.6598 33.094 12.6598H38.8992C38.9338 12.6598 38.9669 12.6461 38.9914 12.6218C39.0159 12.5975 39.0296 12.5645 39.0296 12.5301V11.3496C39.0283 11.3163 39.0139 11.2848 38.9895 11.2619C38.9651 11.239 38.9327 11.2264 38.8992 11.2269Z" fill="white"/>
<path d="M12.8243 1.0121L9.5513 5.83951C9.49826 5.90918 9.47374 5.99623 9.48266 6.08315C9.49159 6.17007 9.5333 6.2504 9.5994 6.30799C9.66551 6.36559 9.7511 6.39617 9.83897 6.39359C9.92685 6.391 10.0105 6.35545 10.073 6.29407L13.2939 3.52864C13.3125 3.51172 13.3356 3.50058 13.3605 3.49662C13.3854 3.49266 13.4109 3.49604 13.4339 3.50634C13.4568 3.51665 13.4762 3.53343 13.4897 3.5546C13.5031 3.57577 13.5101 3.6004 13.5096 3.62543V12.3175C13.5093 12.3439 13.5009 12.3696 13.4856 12.3911C13.4703 12.4127 13.4487 12.4291 13.4237 12.4381C13.3988 12.4471 13.3716 12.4483 13.3459 12.4416C13.3203 12.4349 13.2973 12.4206 13.28 12.4005L3.54086 0.820248C3.38539 0.634338 3.19087 0.484476 2.97096 0.38117C2.75105 0.277864 2.51106 0.223614 2.26782 0.222223H1.92869C1.48636 0.222223 1.06214 0.396855 0.749359 0.707703C0.436581 1.01855 0.260864 1.44015 0.260864 1.87975V14.1202C0.260864 14.5599 0.436581 14.9815 0.749359 15.2923C1.06214 15.6031 1.48636 15.7778 1.92869 15.7778C2.2137 15.7777 2.49395 15.7051 2.74269 15.5668C2.99143 15.4286 3.20037 15.2292 3.34956 14.9879L6.6226 10.1605C6.67564 10.0908 6.70016 10.0038 6.69124 9.91685C6.68231 9.82994 6.64061 9.7496 6.5745 9.69201C6.5084 9.63442 6.4228 9.60383 6.33493 9.60642C6.24706 9.609 6.16343 9.64455 6.10086 9.70593L2.87999 12.4714C2.86143 12.4883 2.83826 12.4994 2.81339 12.5034C2.78851 12.5073 2.76301 12.504 2.74004 12.4937C2.71708 12.4834 2.69767 12.4666 2.68421 12.4454C2.67075 12.4242 2.66385 12.3996 2.66434 12.3746V3.69111C2.6646 3.66472 2.67297 3.63904 2.68831 3.6175C2.70365 3.59596 2.72524 3.57958 2.7502 3.57057C2.77515 3.56155 2.80228 3.56031 2.82796 3.56703C2.85364 3.57374 2.87665 3.58809 2.89391 3.60815L12.633 15.1884C12.7897 15.3726 12.9849 15.5207 13.2051 15.6222C13.4253 15.7237 13.6651 15.7762 13.9078 15.7761H14.2556C14.4747 15.7761 14.6915 15.7332 14.8939 15.6499C15.0962 15.5666 15.2801 15.4445 15.435 15.2906C15.5898 15.1367 15.7127 14.9539 15.7965 14.7528C15.8803 14.5517 15.9235 14.3362 15.9235 14.1185V1.87975C15.9235 1.66121 15.88 1.44482 15.7955 1.24304C15.7111 1.04126 15.5873 0.858073 15.4313 0.704021C15.2753 0.549969 15.0902 0.428093 14.8867 0.345407C14.6831 0.26272 14.4651 0.220856 14.2452 0.222223C13.9602 0.222257 13.68 0.294878 13.4312 0.433156C13.1825 0.571434 12.9735 0.770755 12.8243 1.0121Z" fill="white"/>
</svg>
