<svg width="24" height="25" viewBox="0 0 24 25" fill="none" xmlns="http://www.w3.org/2000/svg">
<path d="M9 15.332L15 9.33203" stroke="#2E3648" stroke-width="1.5" stroke-linecap="round" stroke-linejoin="round"/>
<path d="M9.5 10.332C9.77614 10.332 10 10.1082 10 9.83203C10 9.55589 9.77614 9.33203 9.5 9.33203C9.22386 9.33203 9 9.55589 9 9.83203C9 10.1082 9.22386 10.332 9.5 10.332Z" fill="black" stroke="#2E3648" stroke-width="1.5" stroke-linecap="round" stroke-linejoin="round"/>
<path d="M14.5 15.332C14.7761 15.332 15 15.1082 15 14.832C15 14.5559 14.7761 14.332 14.5 14.332C14.2239 14.332 14 14.5559 14 14.832C14 15.1082 14.2239 15.332 14.5 15.332Z" fill="black" stroke="#2E3648" stroke-width="1.5" stroke-linecap="round" stroke-linejoin="round"/>
<path d="M4.99997 7.53249C4.99997 6.94902 5.23176 6.38944 5.64434 5.97686C6.05692 5.56428 6.6165 5.33249 7.19997 5.33249H8.19997C8.78087 5.33216 9.33806 5.10209 9.74997 4.69249L10.45 3.99249C10.6544 3.78689 10.8975 3.62373 11.1652 3.5124C11.4329 3.40106 11.72 3.34375 12.01 3.34375C12.2999 3.34375 12.587 3.40106 12.8547 3.5124C13.1225 3.62373 13.3655 3.78689 13.57 3.99249L14.27 4.69249C14.6819 5.10209 15.2391 5.33216 15.82 5.33249H16.82C17.4034 5.33249 17.963 5.56428 18.3756 5.97686C18.7882 6.38944 19.02 6.94902 19.02 7.53249V8.53249C19.0203 9.11339 19.2504 9.67058 19.66 10.0825L20.36 10.7825C20.5656 10.9869 20.7287 11.23 20.8401 11.4977C20.9514 11.7655 21.0087 12.0525 21.0087 12.3425C21.0087 12.6324 20.9514 12.9195 20.8401 13.1873C20.7287 13.455 20.5656 13.698 20.36 13.9025L19.66 14.6025C19.2504 15.0144 19.0203 15.5716 19.02 16.1525V17.1525C19.02 17.736 18.7882 18.2955 18.3756 18.7081C17.963 19.1207 17.4034 19.3525 16.82 19.3525H15.82C15.2391 19.3528 14.6819 19.5829 14.27 19.9925L13.57 20.6925C13.3655 20.8981 13.1225 21.0612 12.8547 21.1726C12.587 21.2839 12.2999 21.3412 12.01 21.3412C11.72 21.3412 11.4329 21.2839 11.1652 21.1726C10.8975 21.0612 10.6544 20.8981 10.45 20.6925L9.74997 19.9925C9.33806 19.5829 8.78087 19.3528 8.19997 19.3525H7.19997C6.6165 19.3525 6.05692 19.1207 5.64434 18.7081C5.23176 18.2955 4.99997 17.736 4.99997 17.1525V16.1525C4.99964 15.5716 4.76957 15.0144 4.35997 14.6025L3.65997 13.9025C3.45437 13.698 3.29121 13.455 3.17988 13.1873C3.06855 12.9195 3.01123 12.6324 3.01123 12.3425C3.01123 12.0525 3.06855 11.7655 3.17988 11.4977C3.29121 11.23 3.45437 10.9869 3.65997 10.7825L4.35997 10.0825C4.76957 9.67058 4.99964 9.11339 4.99997 8.53249V7.53249" stroke="#2E3648" stroke-width="1.5" stroke-linecap="round" stroke-linejoin="round"/>
</svg>
