<svg width="28" height="28" viewBox="0 0 28 28" fill="none" xmlns="http://www.w3.org/2000/svg">
<g clip-path="url(#clip0_22777_15508)">
<path d="M10.6654 6.22241H8.44314C7.82949 6.22241 7.33203 6.71987 7.33203 7.33352V20.6669C7.33203 21.2805 7.82949 21.778 8.44314 21.778H10.6654C11.279 21.778 11.7765 21.2805 11.7765 20.6669V7.33352C11.7765 6.71987 11.279 6.22241 10.6654 6.22241Z" fill="#F0F0F3"/>
<path d="M19.554 6.22241H17.3318C16.7182 6.22241 16.2207 6.71987 16.2207 7.33352V20.6669C16.2207 21.2805 16.7182 21.778 17.3318 21.778H19.554C20.1677 21.778 20.6651 21.2805 20.6651 20.6669V7.33352C20.6651 6.71987 20.1677 6.22241 19.554 6.22241Z" fill="#F0F0F3"/>
</g>
<defs>
<clipPath id="clip0_22777_15508">
<rect width="26.6667" height="26.6667" fill="white" transform="translate(0.666016 0.666748)"/>
</clipPath>
</defs>
</svg>
