<svg width="123" height="123" viewBox="0 0 123 123" fill="none" xmlns="http://www.w3.org/2000/svg">
<g clip-path="url(#clip0_101_2)">
<path fill-rule="evenodd" clip-rule="evenodd" d="M61.44 0C95.37 0 122.88 27.51 122.88 61.44C122.88 95.37 95.37 122.88 61.44 122.88C27.51 122.88 0 95.37 0 61.44C0 27.51 27.51 0 61.44 0ZM54.22 37.65C54.22 28.22 68.59 28.21 68.59 37.67V63.42L84.82 72.01C84.9 72.05 84.98 72.1 85.05 72.16L85.19 72.26C92.73 77.2 85.72 89.07 77.66 84.41L77.63 84.39L57.99 73.87C55.69 72.64 54.2 70.2 54.2 67.58H54.21L54.22 37.65Z" fill="#F3CA24"/>
</g>
<defs>
<clipPath id="clip0_101_2">
<rect width="122.88" height="122.88" fill="white"/>
</clipPath>
</defs>
</svg>
