<svg width="20" height="20" viewBox="0 0 20 20" fill="none" xmlns="http://www.w3.org/2000/svg">
<g clip-path="url(#clip0_4919_24922)">
<path d="M14.5937 6.78125C14.2656 6.59375 13.8437 6.59375 13.4687 6.78125L10.8437 8.32812L9.0625 9.3125L6.48437 10.8594C6.15625 11.0469 5.73438 11.0469 5.35938 10.8594L3.34375 9.64062C3.01562 9.45312 2.78125 9.07812 2.78125 8.65625V6.3125C2.78125 5.9375 2.96875 5.5625 3.34375 5.32812L5.35938 4.15625C5.6875 3.96875 6.10937 3.96875 6.48437 4.15625L8.5 5.375C8.82812 5.5625 9.0625 5.9375 9.0625 6.35937V7.90625L10.8437 6.875V5.28125C10.8437 4.90625 10.6562 4.53125 10.2812 4.29687L6.53125 2.09375C6.20312 1.90625 5.78125 1.90625 5.40625 2.09375L1.5625 4.34375C1.1875 4.53125 1 4.90625 1 5.28125V9.6875C1 10.0625 1.1875 10.4375 1.5625 10.6719L5.35938 12.875C5.6875 13.0625 6.10937 13.0625 6.48437 12.875L9.0625 11.375L10.8437 10.3437L13.4219 8.84375C13.75 8.65625 14.1719 8.65625 14.5469 8.84375L16.5625 10.0156C16.8906 10.2031 17.125 10.5781 17.125 11V13.3437C17.125 13.7187 16.9375 14.0937 16.5625 14.3281L14.5937 15.5C14.2656 15.6875 13.8437 15.6875 13.4687 15.5L11.4531 14.3281C11.125 14.1406 10.8906 13.7656 10.8906 13.3437V11.8437L9.10937 12.875V14.4219C9.10937 14.7969 9.29687 15.1719 9.67187 15.4062L13.4687 17.6094C13.7969 17.7969 14.2187 17.7969 14.5937 17.6094L18.3906 15.4062C18.7187 15.2187 18.9531 14.8437 18.9531 14.4219V9.96875C18.9531 9.59375 18.7656 9.21875 18.3906 8.98437L14.5937 6.78125Z" fill="#8247E5"/>
</g>
<defs>
<clipPath id="clip0_4919_24922">
<rect width="18" height="15.7031" fill="white" transform="translate(1 2)"/>
</clipPath>
</defs>
</svg>
