<svg width="50" height="50" viewBox="0 0 50 50" fill="none" xmlns="http://www.w3.org/2000/svg">
<g filter="url(#filter0_dd_4745_25649)">
<path d="M22.0779 15H15.5447C15.218 15 15.0002 15.2178 15.0002 15.5445V22.0777C15.0002 22.4044 15.218 22.6222 15.5447 22.6222H22.0779C22.4046 22.6222 22.6224 22.4044 22.6224 22.0777L22.6223 15.5445C22.6223 15.2178 22.4046 15 22.0779 15H22.0779ZM21.5334 21.5332H16.0889V16.0887H21.5334V21.5332ZM22.0779 26.9778H15.5447C15.218 26.9778 15.0002 27.1956 15.0002 27.5223V34.0555C15.0002 34.3822 15.218 34.6 15.5447 34.6H22.0779C22.4046 34.6 22.6224 34.3822 22.6224 34.0555L22.6223 27.5223C22.6223 27.1956 22.4046 26.9779 22.0779 26.9779L22.0779 26.9778ZM21.5334 33.511H16.0889V28.0665H21.5334V33.511ZM34.0553 15H27.5221C27.1954 15 26.9776 15.2178 26.9776 15.5445V22.0777C26.9776 22.4044 27.1954 22.6222 27.5221 22.6222H34.0553C34.382 22.6222 34.5998 22.4044 34.5998 22.0777V15.5445C34.5998 15.2178 34.382 15 34.0553 15ZM33.511 21.5332H28.0665V16.0887H33.511V21.5332ZM15 24.7999C15 24.4732 15.2178 24.2554 15.5445 24.2554H16.6333C16.96 24.2554 17.1778 24.4732 17.1778 24.7999C17.1778 25.1265 16.96 25.3444 16.6333 25.3444H15.5445C15.2178 25.3444 15 25.1265 15 24.7999ZM26.4332 29.6998C26.4332 30.0265 26.2153 30.2443 25.8887 30.2443H25.3442C25.3442 30.5709 25.1263 30.7888 24.7997 30.7888C24.473 30.7888 24.2552 30.5709 24.2552 30.2443V29.1555C24.2552 28.8288 24.473 28.611 24.7997 28.611C25.1263 28.611 25.3442 28.8288 25.3442 29.1555H25.8887C26.2153 29.1553 26.4332 29.3731 26.4332 29.6998ZM24.2554 26.4332V24.7999C24.2554 24.4732 24.4732 24.2554 24.7999 24.2554H29.1553C29.482 24.2554 29.6998 24.4732 29.6998 24.7999C29.6998 25.1265 29.482 25.3444 29.1553 25.3444H25.3442V26.4332C25.3442 26.7598 25.1263 26.9777 24.7997 26.9777C24.4732 26.9777 24.2554 26.7598 24.2554 26.4332ZM24.2554 22.0777V15.5445C24.2554 15.2178 24.4732 15 24.7999 15H25.3444C25.671 15 25.8889 15.2178 25.8889 15.5445C25.8889 15.8712 25.671 16.089 25.3444 16.089V22.0776C25.3444 22.4043 25.1265 22.6221 24.7999 22.6221C24.4732 22.622 24.2554 22.4043 24.2554 22.0776V22.0777ZM34.5998 24.7999V29.1553C34.5998 29.482 34.382 29.6998 34.0553 29.6998H31.3332C31.0065 29.6998 30.7887 29.482 30.7887 29.1553C30.7887 28.8286 31.0065 28.6108 31.3332 28.6108H33.511V24.7997C33.511 24.473 33.7289 24.2552 34.0555 24.2552C34.382 24.2554 34.5998 24.4732 34.5998 24.7999ZM34.5998 31.3331C34.5998 31.6598 34.382 31.8776 34.0553 31.8776H31.8775V32.9664C31.8775 33.2931 31.6597 33.5109 31.333 33.5109C31.0064 33.5109 30.7885 33.2931 30.7885 32.9664V31.3331C30.7885 31.0064 31.0064 30.7886 31.333 30.7886H34.0551C34.382 30.7886 34.5998 31.0064 34.5998 31.3331ZM22.6221 24.2553V25.3441C22.6221 25.6707 22.4042 25.8886 22.0776 25.8886C21.7509 25.8886 21.5331 25.6707 21.5331 25.3441H19.3552C19.0286 25.3441 18.8107 25.1262 18.8107 24.7996C18.8107 24.4729 19.0286 24.2551 19.3552 24.2551H21.5331C21.5331 23.9284 21.7509 23.7106 22.0776 23.7106C22.4044 23.7109 22.6221 23.9286 22.6221 24.2553ZM26.4332 32.4218V34.0551C26.4332 34.3818 26.2153 34.5996 25.8887 34.5996H24.7999C24.4732 34.5996 24.2554 34.3818 24.2554 34.0551C24.2554 33.7285 24.4732 33.5106 24.7999 33.5106H25.3444V32.4218C25.3444 32.0952 25.5622 31.8773 25.8889 31.8773C26.2154 31.8775 26.4332 32.0952 26.4332 32.4218ZM30.7886 34.0551C30.7886 34.3818 30.5708 34.5996 30.2441 34.5996H28.6108C28.2841 34.5996 28.0663 34.3818 28.0663 34.0551L28.0665 28.0665H27.522C27.1953 28.0665 26.9775 27.8486 26.9775 27.522C26.9775 27.1953 27.1953 26.9775 27.522 26.9775H28.6108C28.9375 26.9775 29.1553 27.1953 29.1553 27.522V33.5106H30.2441C30.571 33.5108 30.7886 33.7285 30.7886 34.0551H30.7886ZM34.5997 34.0551C34.5997 34.3818 34.3819 34.5996 34.0552 34.5996H32.4219C32.0953 34.5996 31.8774 34.3818 31.8774 34.0551C31.8774 33.7285 32.0953 33.5106 32.4219 33.5106H34.0552C34.3819 33.5108 34.5997 33.7285 34.5997 34.0551ZM30.7886 26.4332V24.7999C30.7886 24.4732 31.0065 24.2554 31.3331 24.2554C31.6598 24.2554 31.8776 24.4732 31.8776 24.7999V26.4332C31.8776 26.7598 31.6598 26.9777 31.3331 26.9777C31.0065 26.9777 30.7886 26.7598 30.7886 26.4332ZM20.4446 17.722V19.8998C20.4446 20.2265 20.2268 20.4443 19.9001 20.4443H17.7223C17.3956 20.4443 17.1778 20.2265 17.1778 19.8998V17.722C17.1778 17.3954 17.3956 17.1775 17.7223 17.1775H19.9001C20.2268 17.1777 20.4446 17.3954 20.4446 17.722ZM20.4446 29.6998V31.8776C20.4446 32.2043 20.2268 32.4221 19.9001 32.4221H17.7223C17.3956 32.4221 17.1778 32.2043 17.1778 31.8776V29.6998C17.1778 29.3731 17.3956 29.1553 17.7223 29.1553H19.9001C20.2268 29.1553 20.4446 29.3731 20.4446 29.6998ZM32.4219 17.722V19.8998C32.4219 20.2265 32.2041 20.4443 31.8774 20.4443H29.6996C29.373 20.4443 29.1551 20.2265 29.1551 19.8998V17.722C29.1551 17.3954 29.373 17.1775 29.6996 17.1775H31.8774C32.2043 17.1777 32.4219 17.3954 32.4219 17.722Z" fill="#4969F9"/>
</g>
<defs>
<filter id="filter0_dd_4745_25649" x="-2" y="-2" width="54" height="54" filterUnits="userSpaceOnUse" color-interpolation-filters="sRGB">
<feFlood flood-opacity="0" result="BackgroundImageFix"/>
<feColorMatrix in="SourceAlpha" type="matrix" values="0 0 0 0 0 0 0 0 0 0 0 0 0 0 0 0 0 0 127 0" result="hardAlpha"/>
<feOffset dx="5" dy="5"/>
<feGaussianBlur stdDeviation="5"/>
<feColorMatrix type="matrix" values="0 0 0 0 0.6512 0 0 0 0 0.66896 0 0 0 0 0.74 0 0 0 1 0"/>
<feBlend mode="normal" in2="BackgroundImageFix" result="effect1_dropShadow_4745_25649"/>
<feColorMatrix in="SourceAlpha" type="matrix" values="0 0 0 0 0 0 0 0 0 0 0 0 0 0 0 0 0 0 127 0" result="hardAlpha"/>
<feOffset dx="-5" dy="-5"/>
<feGaussianBlur stdDeviation="5"/>
<feColorMatrix type="matrix" values="0 0 0 0 0.979167 0 0 0 0 0.983333 0 0 0 0 1 0 0 0 1 0"/>
<feBlend mode="normal" in2="effect1_dropShadow_4745_25649" result="effect2_dropShadow_4745_25649"/>
<feBlend mode="normal" in="SourceGraphic" in2="effect2_dropShadow_4745_25649" result="shape"/>
</filter>
</defs>
</svg>
