<svg width="25" height="25" viewBox="0 0 25 25" fill="none" xmlns="http://www.w3.org/2000/svg">
<path d="M9.375 9.79167C9.375 9.12863 9.66291 8.49275 10.1754 8.0239C10.6879 7.55506 11.383 7.29167 12.1077 7.29167H12.8885C13.6133 7.29167 14.3084 7.55506 14.8208 8.0239C15.3333 8.49275 15.6212 9.12863 15.6212 9.79167C15.65 10.3327 15.5132 10.8691 15.2316 11.32C14.95 11.7709 14.5387 12.1119 14.0597 12.2917C13.5807 12.5314 13.1694 12.9861 12.8878 13.5873C12.6061 14.1885 12.4694 14.9036 12.4981 15.625" stroke="#2E3648" stroke-width="1.5" stroke-linecap="round" stroke-linejoin="round"/>
<path d="M12.5 19.1788V19.1903" stroke="#2E3648" stroke-width="1.5" stroke-linecap="round" stroke-linejoin="round"/>
<path d="M22.1667 13.0208C22.1667 18.6472 17.6056 23.2083 11.9792 23.2083C6.35279 23.2083 1.79169 18.6472 1.79169 13.0208C1.79169 7.39443 6.35279 2.83333 11.9792 2.83333C17.6056 2.83333 22.1667 7.39443 22.1667 13.0208Z" stroke="#2E3648" stroke-width="1.5"/>
</svg>
