<svg width="24" height="24" viewBox="0 0 24 24" fill="none" xmlns="http://www.w3.org/2000/svg">
<path d="M12 2C6.48635 2 2 6.48592 2 12C2 17.5141 6.48635 22 12 22C17.5136 22 22 17.5141 22 12C22 6.48592 17.5136 2 12 2ZM16.2422 14.8286C16.6328 15.2192 16.6328 15.8525 16.2422 16.2427C16.0469 16.4381 15.7911 16.5357 15.5352 16.5357C15.2794 16.5357 15.0235 16.4381 14.8283 16.2427L12 13.4141L9.1719 16.2427C8.97653 16.4381 8.72074 16.5357 8.46492 16.5357C8.2091 16.5357 7.95316 16.4381 7.75794 16.2427C7.36736 15.8527 7.36736 15.2193 7.75794 14.8286L10.586 12L7.75777 9.17138C7.36719 8.78081 7.36719 8.14747 7.75777 7.75725C8.14834 7.36667 8.78117 7.36667 9.1719 7.75725L12 10.5859L14.8281 7.75725C15.2187 7.36667 15.8515 7.36667 16.2422 7.75725C16.6328 8.14732 16.6328 8.78065 16.2422 9.17138L13.414 12L16.2422 14.8286Z" fill="#D80E0E"/>
</svg>
