<svg width="17" height="17" viewBox="0 0 17 17" fill="none" xmlns="http://www.w3.org/2000/svg">
<path d="M8.49984 0.166664C3.90513 0.166664 0.166504 3.90493 0.166504 8.49999C0.166504 13.095 3.90513 16.8333 8.49984 16.8333C13.0945 16.8333 16.8332 13.095 16.8332 8.49999C16.8332 3.90493 13.0945 0.166664 8.49984 0.166664ZM12.035 10.8572C12.3605 11.1826 12.3605 11.7104 12.035 12.0356C11.8722 12.1984 11.6591 12.2797 11.4459 12.2797C11.2327 12.2797 11.0194 12.1984 10.8567 12.0356L8.49984 9.67843L6.14309 12.0356C5.98028 12.1984 5.76712 12.2797 5.55394 12.2797C5.34076 12.2797 5.12747 12.1984 4.96479 12.0356C4.63931 11.7105 4.63931 11.1828 4.96479 10.8572L7.32153 8.49999L4.96464 6.14281C4.63916 5.81734 4.63916 5.28955 4.96464 4.96437C5.29012 4.63889 5.81748 4.63889 6.14309 4.96437L8.49984 7.32154L10.8566 4.96437C11.1821 4.63889 11.7094 4.63889 12.035 4.96437C12.3605 5.28943 12.3605 5.8172 12.035 6.14281L9.67814 8.49999L12.035 10.8572Z" fill="#D80E0E"/>
</svg>
