<svg width="20" height="20" viewBox="0 0 20 20" fill="none" xmlns="http://www.w3.org/2000/svg">
<path d="M4.99998 12.5C6.3807 12.5 7.49998 11.3807 7.49998 10C7.49998 8.61929 6.3807 7.5 4.99998 7.5C3.61927 7.5 2.49998 8.61929 2.49998 10C2.49998 11.3807 3.61927 12.5 4.99998 12.5Z" stroke="#4969F9" stroke-width="1.28125" stroke-linecap="round" stroke-linejoin="round"/>
<path d="M15 7.5C16.3807 7.5 17.5 6.38071 17.5 5C17.5 3.61929 16.3807 2.5 15 2.5C13.6193 2.5 12.5 3.61929 12.5 5C12.5 6.38071 13.6193 7.5 15 7.5Z" stroke="#4969F9" stroke-width="1.28125" stroke-linecap="round" stroke-linejoin="round"/>
<path d="M15 17.5C16.3807 17.5 17.5 16.3807 17.5 15C17.5 13.6193 16.3807 12.5 15 12.5C13.6193 12.5 12.5 13.6193 12.5 15C12.5 16.3807 13.6193 17.5 15 17.5Z" stroke="#4969F9" stroke-width="1.28125" stroke-linecap="round" stroke-linejoin="round"/>
<path d="M7.24998 8.91665L12.75 6.08331" stroke="#4969F9" stroke-width="1.28125" stroke-linecap="round" stroke-linejoin="round"/>
<path d="M7.24998 11.0833L12.75 13.9166" stroke="#4969F9" stroke-width="1.28125" stroke-linecap="round" stroke-linejoin="round"/>
</svg>
