<svg width="24" height="24" viewBox="0 0 24 24" fill="none" xmlns="http://www.w3.org/2000/svg">
  <path d="M19.7885 7.52303H15.4321V8.41259H19.7885C20.4252 8.41259 20.9614 8.88704 20.9614 9.45045V21.0733C20.9614 21.6368 20.4252 22.1112 19.7885 22.1112L5.17804 22.111C4.54129 22.111 4.00506 21.6366 4.00506 21.0731V9.45024C4.00506 8.88684 4.54128 8.41238 5.17804 8.41238H9.19919V7.52282H5.17804C3.97167 7.52282 3 8.38257 3 9.44998V21.0729C3 22.1403 3.97167 23 5.17804 23H19.822C21.0283 23 22 22.1403 22 21.0729V9.44998C21.9666 8.38257 20.9948 7.52303 19.7885 7.52303ZM11.9806 2.6902V15.2619H12.986L12.9857 2.6902L15.1975 4.64717L15.9013 4.02441L12.4832 1.00003L9.03165 4.02441L9.73548 4.64717L11.9806 2.6902Z" fill="black" stroke="black" stroke-width="0.5"/>
</svg>
