<svg width="20" height="20" viewBox="0 0 20 20" fill="none" xmlns="http://www.w3.org/2000/svg">
<path d="M7.50004 10.8333L6.79293 10.1261L7.50004 9.41904L8.20715 10.1261L7.50004 10.8333ZM8.50004 18.3333C8.50004 18.8855 8.05233 19.3333 7.50004 19.3333C6.94776 19.3333 6.50004 18.8855 6.50004 18.3333L8.50004 18.3333ZM2.62627 14.2928L6.79293 10.1261L8.20715 11.5404L4.04048 15.707L2.62627 14.2928ZM8.20715 10.1261L12.3738 14.2928L10.9596 15.707L6.79293 11.5404L8.20715 10.1261ZM8.50004 10.8333L8.50004 18.3333L6.50004 18.3333L6.50004 10.8333L8.50004 10.8333Z" fill="#2E3648"/>
<path d="M12.5 9.16675L11.7929 9.87386L12.5 10.581L13.2071 9.87386L12.5 9.16675ZM13.5 1.66675C13.5 1.11446 13.0523 0.666748 12.5 0.666748C11.9478 0.666748 11.5 1.11446 11.5 1.66675L13.5 1.66675ZM7.62627 5.70719L11.7929 9.87386L13.2071 8.45964L9.04048 4.29297L7.62627 5.70719ZM13.2071 9.87386L17.3738 5.70719L15.9596 4.29297L11.7929 8.45964L13.2071 9.87386ZM13.5 9.16675L13.5 1.66675L11.5 1.66675L11.5 9.16675L13.5 9.16675Z" fill="#2E3648"/>
</svg>
