<svg width="22" height="19" viewBox="0 0 22 19" fill="none" xmlns="http://www.w3.org/2000/svg">
<path fill-rule="evenodd" clip-rule="evenodd" d="M22 2.17004C21.1912 2.53849 20.3208 2.78661 19.4078 2.89865C20.3398 2.32569 21.0555 1.41887 21.3921 0.338362C20.521 0.869218 19.5538 1.25345 18.5264 1.46173C17.703 0.562437 16.529 0 15.2318 0C12.7393 0 10.7184 2.07229 10.7184 4.62807C10.7184 4.9905 10.7587 5.3439 10.8357 5.68302C7.08426 5.49052 3.75882 3.64757 1.53256 0.847414C1.14392 1.53091 0.921739 2.3257 0.921739 3.17386C0.921739 4.77921 1.71735 6.19583 2.92947 7.02595C2.18885 7.00189 1.4937 6.79361 0.884339 6.44697V6.50487C0.884339 8.74785 2.4411 10.6179 4.50456 11.0442C4.12619 11.1495 3.72728 11.2066 3.31591 11.2066C3.0248 11.2066 2.74175 11.1773 2.46603 11.1232C3.0402 12.9616 4.70769 14.3 6.68242 14.3376C5.13812 15.5783 3.19199 16.3189 1.07719 16.3189C0.712018 16.3189 0.35271 16.2971 0 16.2535C1.99747 17.5664 4.36964 18.3333 6.91854 18.3333C15.2201 18.3333 19.7598 11.2811 19.7598 5.16569C19.7598 4.96493 19.7562 4.76493 19.7466 4.56717C20.6295 3.913 21.395 3.09791 22 2.17004Z" fill="#49A5F9"/>
</svg>
