<svg width="18" height="16" viewBox="0 0 18 16" fill="none" xmlns="http://www.w3.org/2000/svg">
<path d="M17.0209 7.30845L15.6256 5.86829C15.5587 5.79918 15.5274 5.70303 15.5409 5.60775L15.8215 3.624C15.883 3.18933 15.5881 2.78459 15.1552 2.70821L13.1785 2.36202C13.0839 2.34544 13.0021 2.28612 12.957 2.20126L12.0168 0.431712C11.8118 0.0450773 11.3347 -0.110049 10.9404 0.0828745L9.13727 0.96269C9.05101 1.00478 8.95017 1.00478 8.86391 0.962689L7.06076 0.0828745C6.66649 -0.110049 6.18941 0.0450773 5.9836 0.432499L5.04335 2.20279C4.99826 2.28768 4.91653 2.34702 4.82185 2.3636L2.84518 2.70978C2.41226 2.78538 2.11734 3.19012 2.17885 3.62479L2.4595 5.60854C2.47298 5.70381 2.4417 5.79997 2.37474 5.86908L0.979468 7.30923C0.673511 7.625 0.673511 8.12502 0.979468 8.44079L2.37474 9.88094C2.4417 9.95005 2.47298 10.0462 2.4595 10.1415L2.17885 12.1252C2.11734 12.5599 2.41226 12.9646 2.84518 13.041L4.82188 13.3872C4.91654 13.4038 4.99826 13.4631 5.04335 13.548L5.9836 15.3175C6.18941 15.7049 6.66649 15.8601 7.06155 15.6671L8.86386 14.7867C8.95015 14.7445 9.05105 14.7445 9.13736 14.7866L10.9404 15.6664C11.3355 15.8593 11.8118 15.7042 12.0184 15.3167L12.9586 13.5472C13.0037 13.4623 13.0854 13.403 13.1801 13.3864L15.1568 13.0402C15.5897 12.9646 15.8846 12.5591 15.8231 12.1244L15.5425 10.1407C15.529 10.0454 15.5603 9.94926 15.6272 9.88015L17.0225 8.44C17.3261 8.12502 17.3261 7.62421 17.0209 7.30845ZM8.43228 11.1305C8.3106 11.252 8.11349 11.252 7.9918 11.1305L5.50975 8.65189C5.38782 8.53013 5.38782 8.33254 5.50975 8.21079L6.18366 7.53783C6.30534 7.41631 6.50245 7.41631 6.62414 7.53783L7.9918 8.90357C8.11349 9.02508 8.3106 9.02508 8.43228 8.90357L12.1656 5.1755C12.2873 5.05399 12.4844 5.05399 12.6061 5.1755L13.28 5.84846C13.4019 5.97022 13.4019 6.16781 13.28 6.28956L8.43228 11.1305Z" fill="url(#paint0_linear_503_6127)"/>
<path d="M17.0209 7.30845L15.6256 5.86829C15.5587 5.79918 15.5274 5.70303 15.5409 5.60775L15.8215 3.624C15.883 3.18933 15.5881 2.78459 15.1552 2.70821L13.1785 2.36202C13.0839 2.34544 13.0021 2.28612 12.957 2.20126L12.0168 0.431712C11.8118 0.0450773 11.3347 -0.110049 10.9404 0.0828745L9.13727 0.96269C9.05101 1.00478 8.95017 1.00478 8.86391 0.962689L7.06076 0.0828745C6.66649 -0.110049 6.18941 0.0450773 5.9836 0.432499L5.04335 2.20279C4.99826 2.28768 4.91653 2.34702 4.82185 2.3636L2.84518 2.70978C2.41226 2.78538 2.11734 3.19012 2.17885 3.62479L2.4595 5.60854C2.47298 5.70381 2.4417 5.79997 2.37474 5.86908L0.979468 7.30923C0.673511 7.625 0.673511 8.12502 0.979468 8.44079L2.37474 9.88094C2.4417 9.95005 2.47298 10.0462 2.4595 10.1415L2.17885 12.1252C2.11734 12.5599 2.41226 12.9646 2.84518 13.041L4.82188 13.3872C4.91654 13.4038 4.99826 13.4631 5.04335 13.548L5.9836 15.3175C6.18941 15.7049 6.66649 15.8601 7.06155 15.6671L8.86386 14.7867C8.95015 14.7445 9.05105 14.7445 9.13736 14.7866L10.9404 15.6664C11.3355 15.8593 11.8118 15.7042 12.0184 15.3167L12.9586 13.5472C13.0037 13.4623 13.0854 13.403 13.1801 13.3864L15.1568 13.0402C15.5897 12.9646 15.8846 12.5591 15.8231 12.1244L15.5425 10.1407C15.529 10.0454 15.5603 9.94926 15.6272 9.88015L17.0225 8.44C17.3261 8.12502 17.3261 7.62421 17.0209 7.30845ZM8.43228 11.1305C8.3106 11.252 8.11349 11.252 7.9918 11.1305L5.50975 8.65189C5.38782 8.53013 5.38782 8.33254 5.50975 8.21079L6.18366 7.53783C6.30534 7.41631 6.50245 7.41631 6.62414 7.53783L7.9918 8.90357C8.11349 9.02508 8.3106 9.02508 8.43228 8.90357L12.1656 5.1755C12.2873 5.05399 12.4844 5.05399 12.6061 5.1755L13.28 5.84846C13.4019 5.97022 13.4019 6.16781 13.28 6.28956L8.43228 11.1305Z" fill="#4969F9"/>
<defs>
<linearGradient id="paint0_linear_503_6127" x1="0.75" y1="0" x2="16.483" y2="16.4822" gradientUnits="userSpaceOnUse">
<stop stop-opacity="0.05"/>
<stop offset="1" stop-color="white" stop-opacity="0.05"/>
</linearGradient>
</defs>
</svg>
