<svg width="24" height="24" viewBox="0 0 24 24" fill="none" xmlns="http://www.w3.org/2000/svg">
<path d="M4 6C4 5.46957 4.21071 4.96086 4.58579 4.58579C4.96086 4.21071 5.46957 4 6 4H16C16.2652 4 16.5196 4.10536 16.7071 4.29289C16.8946 4.48043 17 4.73478 17 5V8L18.3224 8.05339L18.7814 8.37601L19 9M4 6C4 6.53043 4.21071 7.03914 4.58579 7.41421C4.96086 7.78929 5.46957 8 6 8H18C18.2652 8 18.5196 8.10536 18.7071 8.29289C18.8946 8.48043 19 8.73478 19 9M4 6V18C4 18.5304 4.21071 19.0391 4.58579 19.4142C4.96086 19.7893 5.46957 20 6 20H18C18.2652 20 18.5196 19.8946 18.7071 19.7071C18.8946 19.5196 19 19.2652 19 19V16M19 9V12" stroke="#4969F9" stroke-width="1.5" stroke-linecap="round" stroke-linejoin="round"/>
<path d="M20 12V16H16C15.4696 16 14.9609 15.7893 14.5858 15.4142C14.2107 15.0391 14 14.5304 14 14C14 13.4696 14.2107 12.9609 14.5858 12.5858C14.9609 12.2107 15.4696 12 16 12H20Z" stroke="#4969F9" stroke-width="1.5" stroke-linecap="round" stroke-linejoin="round"/>
<path d="M0 6.5C0 4.01472 2.01472 2 4.5 2C6.98528 2 9 4.01472 9 6.5C9 8.98528 6.98528 11 4.5 11C2.01472 11 0 8.98528 0 6.5Z" fill="#E6EAF0"/>
<path d="M4.5 3.875V9.125" stroke="#4969F9" stroke-linecap="round" stroke-linejoin="round"/>
<path d="M1.875 6.5H7.125" stroke="#4969F9" stroke-linecap="round" stroke-linejoin="round"/>
</svg>
