<svg width="20" height="21" viewBox="0 0 20 21" fill="none" xmlns="http://www.w3.org/2000/svg">
<path fill-rule="evenodd" clip-rule="evenodd" d="M14.9946 8.98145C14.3044 8.98145 13.6664 9.34979 13.3212 9.94756C12.9763 10.5453 12.9763 11.2819 13.3212 11.8796C13.6664 12.4774 14.3043 12.8456 14.9946 12.8456H18.8588V8.98148L14.9946 8.98145ZM14.9946 11.5557C14.8242 11.5557 14.6609 11.4881 14.5404 11.3676C14.42 11.2472 14.3524 11.0838 14.3524 10.9135C14.3524 10.7432 14.42 10.5798 14.5404 10.4595C14.6609 10.3391 14.8242 10.2713 14.9946 10.2713C15.1649 10.2713 15.3282 10.3391 15.4487 10.4595C15.5691 10.5798 15.6367 10.7432 15.6367 10.9135C15.6367 11.0838 15.5691 11.2472 15.4487 11.3676C15.3282 11.4881 15.1649 11.5557 14.9946 11.5557Z" fill="#4969F9"/>
<path fill-rule="evenodd" clip-rule="evenodd" d="M18.8585 6.40711V7.697L14.9944 7.69714C13.8443 7.69714 12.7816 8.3106 12.2064 9.3067C11.6314 10.3027 11.6314 11.5299 12.2064 12.5258C12.7816 13.5219 13.8443 14.1354 14.9944 14.1354H18.8585V15.4254C18.857 16.1076 18.5852 16.7615 18.1029 17.2441C17.6204 17.7264 16.9665 17.9981 16.2843 17.9997H3.40752C2.72389 17.9997 2.06828 17.7277 1.58537 17.2436C1.10245 16.7597 0.831845 16.1034 0.833257 15.4198V5.11726C0.833257 4.77565 0.969332 4.44818 1.21148 4.20716C1.45351 3.96613 1.78167 3.83146 2.12328 3.83302H16.2844C16.9667 3.83444 17.6206 4.10616 18.1031 4.58864C18.5854 5.07098 18.8571 5.72492 18.8587 6.40714L18.8585 6.40711Z" fill="#4969F9"/>
</svg>
