<svg width="23" height="23" viewBox="0 0 23 23" fill="none" xmlns="http://www.w3.org/2000/svg">
<path fill-rule="evenodd" clip-rule="evenodd" d="M11.5 22.5C17.5751 22.5 22.5 17.745 22.5 11.8794C22.5 6.01371 17.5751 1.25867 11.5 1.25867C5.42487 1.25867 0.5 6.01371 0.5 11.8794C0.5 13.7842 1.01935 15.5718 1.9288 17.1176L0.5 22.5L6.24739 21.2133C7.80822 22.0338 9.59772 22.5 11.5 22.5ZM11.5 20.8661C16.6405 20.8661 20.8077 16.8426 20.8077 11.8794C20.8077 6.91612 16.6405 2.89262 11.5 2.89262C6.3595 2.89262 2.19231 6.91612 2.19231 11.8794C2.19231 13.7957 2.81354 15.5719 3.87216 17.0306L3.03846 20.0491L6.21994 19.2812C7.72021 20.2807 9.53931 20.8661 11.5 20.8661Z" fill="#BFC8D0"/>
<path d="M20.9284 11.1207C20.9284 16.1484 16.7071 20.2241 11.4999 20.2241C9.5137 20.2241 7.67099 19.6312 6.15123 18.6186L2.92843 19.3965L3.77296 16.3388C2.70059 14.8612 2.07129 13.0619 2.07129 11.1207C2.07129 6.09296 6.2926 2.01721 11.4999 2.01721C16.7071 2.01721 20.9284 6.09296 20.9284 11.1207Z" fill="url(#paint0_linear_1036_3678)"/>
<path fill-rule="evenodd" clip-rule="evenodd" d="M11.5 21.7414C17.5751 21.7414 22.5 16.9863 22.5 11.1207C22.5 5.25504 17.5751 0.5 11.5 0.5C5.42487 0.5 0.5 5.25504 0.5 11.1207C0.5 13.0255 1.01935 14.8132 1.9288 16.3589L0.5 21.7414L6.24739 20.4546C7.80822 21.2752 9.59772 21.7414 11.5 21.7414ZM11.5 20.1074C16.6405 20.1074 20.8077 16.0839 20.8077 11.1207C20.8077 6.15745 16.6405 2.13395 11.5 2.13395C6.3595 2.13395 2.19231 6.15745 2.19231 11.1207C2.19231 13.037 2.81354 14.8132 3.87216 16.2719L3.03846 19.2905L6.21994 18.5225C7.72021 19.5221 9.53931 20.1074 11.5 20.1074Z" fill="white"/>
<path d="M8.75002 6.18963C8.48848 5.68243 8.08727 5.72733 7.68196 5.72733C6.9576 5.72733 5.82812 6.56506 5.82812 8.12416C5.82813 9.40193 6.41128 10.8006 8.37633 12.893C10.2727 14.9122 12.7645 15.9568 14.8332 15.9213C16.9018 15.8857 17.3274 14.1669 17.3274 13.5865C17.3274 13.3292 17.1621 13.2009 17.0481 13.166C16.3432 12.8394 15.0431 12.2307 14.7472 12.1164C14.4514 12.002 14.2969 12.1567 14.2009 12.2408C13.9326 12.4877 13.4008 13.2151 13.2188 13.3788C13.0367 13.5424 12.7652 13.4596 12.6523 13.3977C12.2366 13.2367 11.1094 12.7526 10.211 11.9117C9.0999 10.8718 9.03469 10.514 8.82535 10.1955C8.65788 9.94067 8.78077 9.78435 8.84209 9.71603C9.08149 9.44933 9.41205 9.03757 9.56029 8.83295C9.70853 8.62833 9.59084 8.31766 9.52023 8.12417C9.21654 7.292 8.95925 6.59539 8.75002 6.18963Z" fill="white"/>
<defs>
<linearGradient id="paint0_linear_1036_3678" x1="19.7499" y1="4.29307" x2="2.65008" y2="20.8229" gradientUnits="userSpaceOnUse">
<stop stop-color="#5BD066"/>
<stop offset="1" stop-color="#27B43E"/>
</linearGradient>
</defs>
</svg>
