<svg width="48" height="49" viewBox="0 0 48 49" fill="none" xmlns="http://www.w3.org/2000/svg">
<path d="M29.2 29.5002C29.2 30.4943 28.3939 31.3001 27.4001 31.3001C26.4059 31.3001 25.5999 30.4943 25.5999 29.5002C25.5999 28.506 26.4059 27.7003 27.4001 27.7003C28.3939 27.7003 29.2 28.506 29.2 29.5002Z" fill="#F0F0F3"/>
<path d="M22.4002 19.1002C22.4002 20.0943 21.5941 20.9004 20.6 20.9004C19.6061 20.9004 18.8 20.0943 18.8 19.1002C18.8 18.1063 19.6061 17.3002 20.6 17.3002C21.5941 17.3002 22.4002 18.1063 22.4002 19.1002Z" fill="#F0F0F3"/>
<path d="M40.4 27.8202L40.8001 27.4201C42.4 25.8202 42.4 23.1399 40.8001 21.54L40.6801 21.4201L40.9603 20.78C41.8403 18.66 40.8403 16.22 38.7602 15.34L38.2002 15.1L38.1999 14.5001C38.1999 12.22 36.32 10.3403 34.0401 10.3403H33.3602L33.2801 10.1804C32.4001 8.06038 30 7.02052 27.88 7.90023L27.32 8.10001L26.9199 7.6999C25.32 6.10003 22.6398 6.10003 21.0399 7.6999L20.9199 7.81988L20.2799 7.53974C18.2001 6.70016 15.7199 7.70018 14.8402 9.78025L14.6002 10.3402H14.0001C11.7199 10.3402 9.84023 12.2202 9.84023 14.5001V15.1801L9.68035 15.2601C7.56036 16.1402 6.52051 18.5403 7.40022 20.6603L7.6 21.1801L7.19989 21.5802C5.60004 23.1801 5.60004 25.8604 7.19989 27.4602L7.31986 27.5802L7.03973 28.2203C6.20016 30.3001 7.20016 32.7803 9.28022 33.66L9.8402 33.9V34.5001C9.8402 36.7803 11.7202 38.66 14 38.66H14.68L14.7601 38.8199C15.6401 40.9399 18.0402 41.9798 20.1602 41.1L20.6401 40.9L21.0402 41.3001C22.6401 42.9 25.3203 42.9 26.9202 41.3001L27.0402 41.1801L27.6802 41.4603C29.8002 42.3403 32.2402 41.3403 33.1202 39.2602L33.3601 38.7002H33.9999C36.2801 38.7002 38.1598 36.8202 38.1598 34.5403V33.8604L38.3196 33.7803C40.4396 32.9003 41.4795 30.5001 40.5998 28.3801L40.4 27.8202ZM17.2001 19.1001C17.2001 17.2201 18.7202 15.7 20.6003 15.7C22.4802 15.7 24.0004 17.2201 24.0004 19.1001C24.0001 20.9802 22.48 22.5003 20.6 22.5003C18.7201 22.5003 17.2002 20.9802 17.2002 19.1001H17.2001ZM19.6401 31.3802C19.4802 31.5802 19.24 31.7002 19.0001 31.7002C18.8402 31.7002 18.68 31.6603 18.5201 31.5403C18.1602 31.2602 18.12 30.7803 18.3603 30.4203L28.7202 16.8203C29.0003 16.4604 29.4803 16.4202 29.8402 16.6604C30.2001 16.9406 30.2403 17.4205 30.0001 17.7804L19.6401 31.3802ZM27.4001 32.9003C25.5201 32.9003 24 31.3802 24 29.5001C24 27.62 25.52 26.1 27.4001 26.1C29.2801 26.1 30.8002 27.62 30.8002 29.5001C30.7999 31.3801 29.2801 32.9003 27.4001 32.9003Z" fill="#F0F0F3"/>
</svg>
