<svg width="20" height="21" viewBox="0 0 20 21" fill="none" xmlns="http://www.w3.org/2000/svg">
<g clip-path="url(#clip0_19325_111443)">
<path d="M16.0022 4.53861C15.4917 4.42571 14.9022 4.49811 14.3472 4.70735C14.3519 4.40743 14.3505 4.11451 14.342 3.8335H4.8244C4.81593 4.11439 4.81434 4.40733 4.81925 4.70735C4.2642 4.49811 3.67478 4.42571 3.16416 4.53861C2.40909 4.70465 1.89639 5.22363 1.72065 5.99858C1.49105 7.01038 1.99652 8.17042 3.14368 9.26547C4.04759 10.128 5.26029 10.8457 6.54094 11.2889C7.07157 12.037 7.7508 12.6397 8.61262 13.0061C8.48696 13.4651 8.04592 14.7947 6.98025 15.6084H12.1861C11.1202 14.7948 10.6793 13.4651 10.5537 13.0061C11.4156 12.6397 12.095 12.0369 12.6254 11.2887C13.906 10.8456 15.1187 10.1279 16.0227 9.26534C17.17 8.17023 17.6753 7.01031 17.4457 5.99845C17.2697 5.22363 16.7571 4.70464 16.0021 4.53861H16.0022ZM3.90732 8.46554C3.07764 7.67315 2.66334 6.84274 2.7993 6.24362C2.87919 5.88995 3.07087 5.69153 3.40232 5.61839C3.83981 5.52181 4.41057 5.66858 4.8807 5.95931C4.98746 7.22758 5.23805 8.55206 5.70683 9.72728C5.03225 9.37643 4.41255 8.94789 3.90732 8.46551V8.46554ZM15.259 8.46554C14.7537 8.9477 14.1341 9.37646 13.4595 9.72743C13.9285 8.55231 14.1789 7.22771 14.2856 5.95947C14.7557 5.66888 15.3263 5.5221 15.764 5.61855C16.0954 5.69169 16.2872 5.89012 16.367 6.24378C16.5029 6.843 16.0887 7.67343 15.259 8.46557V8.46554Z" fill="#F0F0F3"/>
<path d="M6.24072 16.4419H12.9259V17.887H6.24072V16.4419Z" fill="#F0F0F3"/>
</g>
<defs>
<clipPath id="clip0_19325_111443">
<rect width="20" height="20" fill="white" transform="translate(0 0.5)"/>
</clipPath>
</defs>
</svg>
