<svg width="388" height="204" viewBox="0 0 388 204" fill="none" xmlns="http://www.w3.org/2000/svg">
<g filter="url(#filter0_dd_2568_7954)">
<mask id="path-1-inside-1_2568_7954" fill="white">
<path fill-rule="evenodd" clip-rule="evenodd" d="M15 31C15 25.3995 15 22.5992 16.0899 20.4601C17.0487 18.5785 18.5785 17.0487 20.4601 16.0899C22.5992 15 25.3995 15 31 15H357C362.6 15 365.401 15 367.54 16.0899C369.422 17.0487 370.951 18.5785 371.91 20.4601C373 22.5992 373 25.3995 373 31L373 84.7966C371.008 84.7966 369.035 85.178 367.195 85.9191C365.354 86.6601 363.682 87.7463 362.274 89.1155C360.865 90.4848 359.748 92.1104 358.985 93.8994C358.223 95.6885 357.831 97.6059 357.831 99.5424C357.831 101.479 358.223 103.396 358.985 105.185C359.748 106.974 360.865 108.6 362.274 109.969C363.682 111.338 365.354 112.425 367.195 113.166C369.035 113.907 371.008 114.288 373 114.288L373 173C373 178.601 373 181.401 371.91 183.54C370.951 185.422 369.422 186.951 367.54 187.91C365.401 189 362.6 189 357 189H31C25.3995 189 22.5992 189 20.4601 187.91C18.5785 186.951 17.0487 185.422 16.0899 183.54C15 181.401 15 178.601 15 173V119.171C18.6539 118.933 22.1097 117.417 24.7152 114.884C27.56 112.119 29.1583 108.368 29.1583 104.458C29.1583 100.547 27.56 96.7962 24.7152 94.0308C22.1097 91.498 18.6539 89.9818 15 89.7446V31Z"/>
</mask>
<path fill-rule="evenodd" clip-rule="evenodd" d="M15 31C15 25.3995 15 22.5992 16.0899 20.4601C17.0487 18.5785 18.5785 17.0487 20.4601 16.0899C22.5992 15 25.3995 15 31 15H357C362.6 15 365.401 15 367.54 16.0899C369.422 17.0487 370.951 18.5785 371.91 20.4601C373 22.5992 373 25.3995 373 31L373 84.7966C371.008 84.7966 369.035 85.178 367.195 85.9191C365.354 86.6601 363.682 87.7463 362.274 89.1155C360.865 90.4848 359.748 92.1104 358.985 93.8994C358.223 95.6885 357.831 97.6059 357.831 99.5424C357.831 101.479 358.223 103.396 358.985 105.185C359.748 106.974 360.865 108.6 362.274 109.969C363.682 111.338 365.354 112.425 367.195 113.166C369.035 113.907 371.008 114.288 373 114.288L373 173C373 178.601 373 181.401 371.91 183.54C370.951 185.422 369.422 186.951 367.54 187.91C365.401 189 362.6 189 357 189H31C25.3995 189 22.5992 189 20.4601 187.91C18.5785 186.951 17.0487 185.422 16.0899 183.54C15 181.401 15 178.601 15 173V119.171C18.6539 118.933 22.1097 117.417 24.7152 114.884C27.56 112.119 29.1583 108.368 29.1583 104.458C29.1583 100.547 27.56 96.7962 24.7152 94.0308C22.1097 91.498 18.6539 89.9818 15 89.7446V31Z" fill="#FDD73F"/>
<path d="M16.0899 20.4601L16.9809 20.9141L16.0899 20.4601ZM20.4601 16.0899L20.9141 16.9809L20.4601 16.0899ZM367.54 16.0899L367.994 15.1989V15.1989L367.54 16.0899ZM371.91 20.4601L371.019 20.9141L371.019 20.9141L371.91 20.4601ZM373 31H372H373ZM373 84.7966V85.7966H374V84.7966H373ZM367.195 85.9191L366.821 84.9914L367.195 85.9191ZM362.274 89.1155L361.577 88.3985V88.3985L362.274 89.1155ZM358.985 93.8994L358.065 93.5074V93.5074L358.985 93.8994ZM358.985 105.185L358.065 105.577V105.577L358.985 105.185ZM362.274 109.969L361.577 110.686V110.686L362.274 109.969ZM367.195 113.166L366.821 114.093L367.195 113.166ZM373 114.288H374V113.288H373V114.288ZM373 173H372H373ZM371.91 183.54L371.019 183.086V183.086L371.91 183.54ZM367.54 187.91L367.086 187.019L367.54 187.91ZM20.4601 187.91L20.9141 187.019H20.9141L20.4601 187.91ZM16.0899 183.54L15.1989 183.994H15.1989L16.0899 183.54ZM15 119.171L14.9352 118.173L14 118.233V119.171H15ZM24.7152 114.884L25.4122 115.602H25.4122L24.7152 114.884ZM24.7152 94.0308L25.4122 93.3138H25.4122L24.7152 94.0308ZM15 89.7446H14V90.6818L14.9352 90.7425L15 89.7446ZM15.1989 20.0061C14.5702 21.2401 14.2809 22.6212 14.1396 24.3506C13.9992 26.0683 14 28.2162 14 31H16C16 28.1832 16.0008 26.1308 16.1329 24.5135C16.2641 22.9078 16.5198 21.8192 16.9809 20.9141L15.1989 20.0061ZM20.0061 15.1989C17.9363 16.2535 16.2535 17.9363 15.1989 20.0061L16.9809 20.9141C17.8438 19.2206 19.2206 17.8438 20.9141 16.9809L20.0061 15.1989ZM31 14C28.2162 14 26.0683 13.9992 24.3506 14.1396C22.6212 14.2809 21.2401 14.5702 20.0061 15.1989L20.9141 16.9809C21.8192 16.5198 22.9078 16.2641 24.5135 16.1329C26.1308 16.0008 28.1832 16 31 16V14ZM357 14H31V16H357V14ZM367.994 15.1989C366.76 14.5702 365.379 14.2809 363.649 14.1396C361.932 13.9992 359.784 14 357 14V16C359.817 16 361.869 16.0008 363.487 16.1329C365.092 16.2641 366.181 16.5198 367.086 16.9809L367.994 15.1989ZM372.801 20.0061C371.746 17.9363 370.064 16.2535 367.994 15.1989L367.086 16.9809C368.779 17.8438 370.156 19.2206 371.019 20.9141L372.801 20.0061ZM374 31C374 28.2162 374.001 26.0683 373.86 24.3506C373.719 22.6212 373.43 21.2401 372.801 20.0061L371.019 20.9141C371.48 21.8192 371.736 22.9078 371.867 24.5135C371.999 26.1308 372 28.1832 372 31H374ZM374 84.7966L374 31L372 31L372 84.7966H374ZM367.568 86.8467C369.29 86.1536 371.135 85.7966 373 85.7966V83.7966C370.88 83.7966 368.781 84.2024 366.821 84.9914L367.568 86.8467ZM362.971 89.8326C364.285 88.5548 365.847 87.5397 367.568 86.8467L366.821 84.9914C364.862 85.7805 363.079 86.9378 361.577 88.3985L362.971 89.8326ZM359.905 94.2914C360.615 92.6257 361.656 91.1103 362.971 89.8326L361.577 88.3985C360.074 89.8593 358.88 91.595 358.065 93.5074L359.905 94.2914ZM358.831 99.5424C358.831 97.7412 359.195 95.9571 359.905 94.2914L358.065 93.5074C357.25 95.4198 356.831 97.4706 356.831 99.5424H358.831ZM359.905 104.793C359.195 103.128 358.831 101.343 358.831 99.5424H356.831C356.831 101.614 357.25 103.665 358.065 105.577L359.905 104.793ZM362.971 109.252C361.656 107.974 360.615 106.459 359.905 104.793L358.065 105.577C358.88 107.49 360.074 109.225 361.577 110.686L362.971 109.252ZM367.568 112.238C365.847 111.545 364.285 110.53 362.971 109.252L361.577 110.686C363.079 112.147 364.862 113.304 366.821 114.093L367.568 112.238ZM373 113.288C371.135 113.288 369.29 112.931 367.568 112.238L366.821 114.093C368.781 114.882 370.88 115.288 373 115.288V113.288ZM374 173L374 114.288H372L372 173H374ZM372.801 183.994C373.43 182.76 373.719 181.379 373.86 179.649C374.001 177.932 374 175.784 374 173H372C372 175.817 371.999 177.869 371.867 179.487C371.736 181.092 371.48 182.181 371.019 183.086L372.801 183.994ZM367.994 188.801C370.064 187.746 371.746 186.064 372.801 183.994L371.019 183.086C370.156 184.779 368.779 186.156 367.086 187.019L367.994 188.801ZM357 190C359.784 190 361.932 190.001 363.649 189.86C365.379 189.719 366.76 189.43 367.994 188.801L367.086 187.019C366.181 187.48 365.092 187.736 363.487 187.867C361.869 187.999 359.817 188 357 188V190ZM31 190H357V188H31V190ZM20.0061 188.801C21.2401 189.43 22.6212 189.719 24.3506 189.86C26.0683 190.001 28.2162 190 31 190V188C28.1832 188 26.1308 187.999 24.5135 187.867C22.9078 187.736 21.8192 187.48 20.9141 187.019L20.0061 188.801ZM15.1989 183.994C16.2535 186.064 17.9363 187.746 20.0061 188.801L20.9141 187.019C19.2206 186.156 17.8438 184.779 16.9809 183.086L15.1989 183.994ZM14 173C14 175.784 13.9992 177.932 14.1396 179.649C14.2809 181.379 14.5702 182.76 15.1989 183.994L16.9809 183.086C16.5198 182.181 16.2641 181.092 16.1329 179.487C16.0008 177.869 16 175.817 16 173H14ZM14 119.171V173H16V119.171H14ZM24.0182 114.167C21.5864 116.531 18.356 117.951 14.9352 118.173L15.0648 120.169C18.9518 119.916 22.633 118.303 25.4122 115.602L24.0182 114.167ZM28.1583 104.458C28.1583 108.094 26.6725 111.587 24.0182 114.167L25.4122 115.602C28.4476 112.651 30.1583 108.643 30.1583 104.458H28.1583ZM24.0182 94.7478C26.6725 97.328 28.1583 100.821 28.1583 104.458H30.1583C30.1583 100.272 28.4476 96.2643 25.4122 93.3138L24.0182 94.7478ZM14.9352 90.7425C18.356 90.9646 21.5864 92.384 24.0182 94.7478L25.4122 93.3138C22.633 90.6121 18.9518 88.999 15.0648 88.7467L14.9352 90.7425ZM14 31V89.7446H16V31H14Z" fill="url(#paint0_linear_2568_7954)" fill-opacity="0.4" style="mix-blend-mode:hard-light" mask="url(#path-1-inside-1_2568_7954)"/>
</g>
<defs>
<filter id="filter0_dd_2568_7954" x="0" y="0" width="388" height="204" filterUnits="userSpaceOnUse" color-interpolation-filters="sRGB">
<feFlood flood-opacity="0" result="BackgroundImageFix"/>
<feColorMatrix in="SourceAlpha" type="matrix" values="0 0 0 0 0 0 0 0 0 0 0 0 0 0 0 0 0 0 127 0" result="hardAlpha"/>
<feOffset dx="5" dy="5"/>
<feGaussianBlur stdDeviation="5"/>
<feColorMatrix type="matrix" values="0 0 0 0 0.6512 0 0 0 0 0.66896 0 0 0 0 0.74 0 0 0 1 0"/>
<feBlend mode="normal" in2="BackgroundImageFix" result="effect1_dropShadow_2568_7954"/>
<feColorMatrix in="SourceAlpha" type="matrix" values="0 0 0 0 0 0 0 0 0 0 0 0 0 0 0 0 0 0 127 0" result="hardAlpha"/>
<feOffset dx="-5" dy="-5"/>
<feGaussianBlur stdDeviation="5"/>
<feColorMatrix type="matrix" values="0 0 0 0 0.979167 0 0 0 0 0.983333 0 0 0 0 1 0 0 0 1 0"/>
<feBlend mode="normal" in2="effect1_dropShadow_2568_7954" result="effect2_dropShadow_2568_7954"/>
<feBlend mode="normal" in="SourceGraphic" in2="effect2_dropShadow_2568_7954" result="shape"/>
</filter>
<linearGradient id="paint0_linear_2568_7954" x1="-0.146149" y1="4.96154" x2="146.026" y2="307.863" gradientUnits="userSpaceOnUse">
<stop stop-color="white"/>
<stop offset="1" stop-color="white" stop-opacity="0"/>
</linearGradient>
</defs>
</svg>
