<svg width="22" height="17" viewBox="0 0 22 17" fill="none" xmlns="http://www.w3.org/2000/svg">
<path fill-rule="evenodd" clip-rule="evenodd" d="M20.8005 1.30151C21.1421 1.67844 21.3883 2.14753 21.5145 2.66208C22.2411 5.88929 22.0732 10.9862 21.5286 14.3379C21.4024 14.8525 21.1562 15.3216 20.8146 15.6985C20.473 16.0754 20.0479 16.347 19.5815 16.4863C17.8743 17 11.003 17 11.003 17C11.003 17 4.1317 17 2.42446 16.4863C1.95811 16.347 1.53295 16.0754 1.19133 15.6985C0.849715 15.3216 0.603551 14.8525 0.477357 14.3379C-0.25351 11.1247 -0.0531558 6.02473 0.463249 2.67766C0.589441 2.16311 0.835604 1.694 1.17722 1.31707C1.51884 0.940147 1.944 0.668538 2.41035 0.529308C4.11759 0.015564 10.9889 0 10.9889 0C10.9889 0 17.8602 0 19.5674 0.513734C20.0337 0.652974 20.4589 0.924583 20.8005 1.30151ZM14.5021 8.49999L8.80191 12.1428V4.85713L14.5021 8.49999Z" fill="#FF0000"/>
</svg>
