<svg width="512" height="512" viewBox="0 0 512 512" fill="none" xmlns="http://www.w3.org/2000/svg">
<path d="M246.77 215.09C249.013 199.725 250.887 184.904 252.447 170.765C253.305 162.968 247.646 155.943 239.849 155.12C182.349 149.058 131.996 153.7 104.035 157.642C98.1128 158.483 94.5212 164.563 96.5886 170.117C96.6586 170.292 96.7287 170.432 96.8163 170.59C99.2516 174.689 134.642 234.643 150.112 277.742C170.33 326.588 191.004 403.185 191.004 403.185C194.385 411.56 206.509 410.701 208.682 401.941C219.509 358.387 236.644 284.365 246.753 215.073L246.77 215.09Z" fill="#010101"/>
<path d="M190.373 134.358C204.792 134.534 220.823 135.304 237.905 137.021C247.418 137.985 255.863 130.924 256.599 121.394C259.192 88.018 260.05 60.6167 260.278 41.8527C260.383 33.7935 251.185 29.1333 244.72 33.9513C244.72 33.9513 218.738 58.2866 190.969 78.9602C166.423 97.2336 120.416 126.65 120.416 126.65C115.615 130.241 118.558 137.862 124.533 137.267C142.596 135.445 165.057 134.061 190.391 134.358H190.373Z" fill="#010101"/>
<path d="M289.186 143.802C311.471 148.199 334.633 154.454 357.689 163.231C366.396 166.543 374.035 156.434 368.464 148.953C368.464 148.953 341.185 117.574 324.453 94.921C307.582 72.0749 287.294 40.0834 287.294 40.0834C284.35 36.1239 278.06 38.1561 278.008 43.0968C277.745 62.3513 276.834 90.1905 274.171 123.899C273.418 133.377 279.865 141.962 289.203 143.802H289.186Z" fill="#010101"/>
<path d="M286.225 161.199C278.358 159.675 270.878 165.176 269.984 173.13C268.425 187.094 266.567 201.723 264.36 216.842C254.198 286.625 236.941 361.102 226.061 404.92C224.87 409.738 231.072 412.786 234.173 408.914C234.173 408.914 288.52 328.568 323.77 287.606L323.805 287.571C341.536 263.533 392.746 210.5 392.746 210.5C396.391 205.928 395.007 199.13 389.821 196.432C356.025 178.877 320.529 167.857 286.225 161.181V161.199Z" fill="#010101"/>
<path d="M201.481 421.038L168.315 449.386C161.307 455.377 164.338 466.835 173.396 468.552L232.316 479.8C241.146 481.482 247.996 472.214 243.791 464.278L223.118 425.155C218.896 417.149 208.331 415.134 201.463 421.021L201.481 421.038Z" fill="#010101"/>
</svg>
